<svg width="24" height="24" viewBox="0 0 24 24" fill="none" xmlns="http://www.w3.org/2000/svg">
<g clip-path="url(#clip0_1116_1462)">
<path d="M23.2271 11.9501C23.2369 14.1706 22.588 16.3441 21.3625 18.1959C20.1369 20.0476 18.3898 21.4943 16.3421 22.3531C14.2943 23.2119 12.0379 23.4441 9.85814 23.0205C7.67839 22.5968 5.67321 21.5363 4.09618 19.9731C2.51915 18.4098 1.44111 16.414 0.998373 14.2381C0.555638 12.0621 0.768099 9.80373 1.60889 7.74853C2.44968 5.69332 3.88103 3.93359 5.72194 2.69188C7.56285 1.45017 9.73063 0.782244 11.9512 0.772568C14.9286 0.759593 17.7893 1.92991 19.904 4.02608C22.0186 6.12225 23.214 8.97258 23.2271 11.9501Z" stroke="white" stroke-width="1.5"/>
<path d="M17.267 8.37057C16.5136 8.15254 15.7326 7.84338 14.9418 7.53098C14.8963 7.33247 14.7206 7.08515 14.365 6.78332C13.8484 6.33504 12.8778 6.34643 12.0391 6.54494C11.1132 6.32691 10.1988 6.24962 9.32096 6.46359C2.1413 8.44135 6.21235 13.2666 3.57642 18.117C3.95147 18.9127 7.99404 23.5548 13.8435 22.3093C13.8435 22.3093 11.843 17.502 16.3574 15.1947C20.0193 13.3162 22.665 9.84067 17.267 8.37057Z" fill="white"/>
<path d="M18.1537 11.5275C18.1542 11.6136 18.1291 11.6979 18.0817 11.7698C18.0343 11.8416 17.9666 11.8978 17.8873 11.9312C17.8079 11.9646 17.7205 11.9737 17.6359 11.9573C17.5514 11.941 17.4736 11.9 17.4124 11.8395C17.3512 11.7789 17.3093 11.7016 17.292 11.6173C17.2748 11.533 17.2829 11.4454 17.3154 11.3657C17.3479 11.286 17.4033 11.2177 17.4746 11.1694C17.5459 11.1212 17.6299 11.0952 17.716 11.0947C17.7732 11.0944 17.8298 11.1054 17.8828 11.1269C17.9357 11.1485 17.9839 11.1803 18.0245 11.2205C18.0651 11.2607 18.0975 11.3085 18.1196 11.3612C18.1418 11.4139 18.1534 11.4704 18.1537 11.5275Z" fill="#042A64"/>
<path d="M12.0391 6.54156C12.5622 6.57898 14.4537 7.19241 14.9418 7.52759C14.5351 6.34793 13.1658 6.19092 12.0391 6.54156Z" fill="white"/>
<path d="M12.537 9.52463C12.5371 9.92179 12.4195 10.3101 12.199 10.6404C11.9784 10.9707 11.6649 11.2282 11.298 11.3803C10.9311 11.5323 10.5273 11.5722 10.1378 11.4948C9.74825 11.4174 9.39041 11.2262 9.10953 10.9454C8.82866 10.6646 8.63736 10.3068 8.55985 9.91731C8.48234 9.52778 8.52209 9.12402 8.67407 8.75708C8.82606 8.39015 9.08345 8.07654 9.41369 7.8559C9.74393 7.63527 10.1322 7.51753 10.5294 7.51758C11.0617 7.51764 11.5722 7.7291 11.9487 8.10547C12.3252 8.48183 12.5368 8.99229 12.537 9.52463Z" fill="#042A64"/>
<path d="M11.9414 9.5432C11.9414 9.82253 11.8585 10.0956 11.7034 10.3279C11.5482 10.5601 11.3276 10.7411 11.0695 10.848C10.8114 10.9549 10.5275 10.9829 10.2535 10.9284C9.97954 10.8739 9.72788 10.7394 9.53036 10.5419C9.33284 10.3444 9.19833 10.0927 9.14384 9.81873C9.08934 9.54476 9.11731 9.26079 9.22421 9.00272C9.3311 8.74465 9.51213 8.52407 9.74439 8.36888C9.97664 8.21369 10.2497 8.13086 10.529 8.13086C10.9036 8.13086 11.2628 8.27966 11.5277 8.54452C11.7926 8.80939 11.9414 9.16862 11.9414 9.5432Z" fill="white"/>
<path d="M19.7801 12.413C18.153 13.5593 16.303 14.429 13.6784 14.429C12.45 14.429 12.201 13.1273 11.3891 13.7635C10.9701 14.0938 9.49267 14.8325 8.32033 14.7764C7.14799 14.7202 5.24751 14.0328 4.71789 11.5303C4.50799 14.0328 4.4006 15.8763 3.46094 17.9891C5.33212 20.9855 9.79368 23.2968 13.8436 22.301C13.4083 19.2623 16.0638 16.2863 17.5599 14.7634C18.1294 14.1865 19.2114 13.2453 19.7801 12.4114V12.413Z" fill="white"/>
<path d="M19.7166 12.4881C19.2113 12.9486 18.6101 13.2895 17.9983 13.5905C17.3791 13.8845 16.7335 14.1196 16.0702 14.2926C15.4063 14.4642 14.714 14.5936 14.0127 14.5301C13.3114 14.4667 12.5947 14.2283 12.1301 13.7028L12.1521 13.6775C12.7216 14.0469 13.3789 14.1771 14.033 14.1958C14.696 14.2159 15.3592 14.1614 16.01 14.0331C16.6674 13.8954 17.3105 13.6966 17.9308 13.4392C18.5515 13.1829 19.1658 12.8859 19.6946 12.4629L19.7166 12.4881Z" fill="#042A64"/>
</g>
<defs>
<clipPath id="clip0_1116_1462">
<rect width="24" height="24" fill="white"/>
</clipPath>
</defs>
</svg>
