<svg width="375" height="375" viewBox="0 0 375 375" fill="none" xmlns="http://www.w3.org/2000/svg">
<path d="M187.5 375C291.053 375 375 291.053 375 187.5C375 83.9466 291.053 0 187.5 0C83.9466 0 0 83.9466 0 187.5C0 291.053 83.9466 375 187.5 375Z" fill="#283C46"/>
<path d="M177.827 121.872C171.03 121.728 164.469 122.403 158.085 123.691L157.457 163.741C164.714 160.872 170.607 161.719 177.681 161.672C198.348 161.911 216.252 178.673 215.84 200.277L214.359 289.191L257.639 289.883L258.989 200.897C260.031 145.777 229.689 123.522 177.827 121.872Z" fill="#F5FAFF"/>
<path d="M293.535 123.705L236.12 122.771L236.079 123.78C253.35 132.973 266.747 147.935 273.138 166.247L292.724 166.577L293.535 123.705Z" fill="#01E2AF"/>
<path d="M177.545 288.614C184.342 288.758 190.903 288.083 197.287 286.795L197.915 246.745C190.658 249.614 184.765 248.767 177.691 248.814C157.023 248.575 139.119 231.813 139.532 210.209L140.881 121.223L97.6012 120.53L96.2515 209.516C95.341 264.709 125.683 286.964 177.545 288.614Z" fill="#9D6AFC"/>
</svg>
