<svg width="30" height="24" viewBox="0 0 30 24" fill="none" xmlns="http://www.w3.org/2000/svg">
<g id="&#240;&#159;&#166;&#134; icon &#34;burger menu&#34;">
<path id="Vector" d="M1.875 9.94141C1.37772 9.94141 0.900806 10.1509 0.549175 10.5238C0.197544 10.8966 0 11.4024 0 11.9297C0 12.457 0.197544 12.9627 0.549175 13.3356C0.900806 13.7085 1.37772 13.918 1.875 13.918V9.94141ZM28.125 13.918C28.6223 13.918 29.0992 13.7085 29.4508 13.3356C29.8025 12.9627 30 12.457 30 11.9297C30 11.4024 29.8025 10.8966 29.4508 10.5238C29.0992 10.1509 28.6223 9.94141 28.125 9.94141V13.918ZM1.875 0C1.37772 0 0.900806 0.209479 0.549175 0.582354C0.197544 0.95523 0 1.46096 0 1.98828C0 2.51561 0.197544 3.02133 0.549175 3.39421C0.900806 3.76708 1.37772 3.97656 1.875 3.97656V0ZM28.125 3.97656C28.6223 3.97656 29.0992 3.76708 29.4508 3.39421C29.8025 3.02133 30 2.51561 30 1.98828C30 1.46096 29.8025 0.95523 29.4508 0.582354C29.0992 0.209479 28.6223 0 28.125 0V3.97656ZM1.875 19.8828C1.37772 19.8828 0.900806 20.0923 0.549175 20.4652C0.197544 20.838 0 21.3438 0 21.8711C0 22.3984 0.197544 22.9041 0.549175 23.277C0.900806 23.6499 1.37772 23.8594 1.875 23.8594V19.8828ZM28.125 23.8594C28.6223 23.8594 29.0992 23.6499 29.4508 23.277C29.8025 22.9041 30 22.3984 30 21.8711C30 21.3438 29.8025 20.838 29.4508 20.4652C29.0992 20.0923 28.6223 19.8828 28.125 19.8828V23.8594ZM1.875 13.918H28.125V9.94141H1.875V13.918ZM1.875 3.97656H28.125V0H1.875V3.97656ZM1.875 23.8594H28.125V19.8828H1.875V23.8594Z" fill="#979797"/>
</g>
</svg>
