<svg width="16" height="20" viewBox="0 0 16 20" fill="none" xmlns="http://www.w3.org/2000/svg">
<g clip-path="url(#clip0_1585_27748)">
<path d="M16 9.37365C16 9.35925 16 9.35925 16 9.37365C16 9.35925 16 9.35925 16 9.35925C15.9847 8.43773 15.2984 7.66019 14.3375 7.473C14.0934 7.42981 13.8494 7.4442 13.5901 7.42981C13.3613 7.42981 13.346 7.41541 13.346 7.19942C13.346 6.40749 13.346 5.62995 13.346 4.83801C13.346 4.73722 13.346 4.63643 13.3308 4.52124C13.1783 3.19654 12.5682 2.07343 11.5157 1.18071C10.9209 0.676746 10.2193 0.345572 9.45662 0.115191C9.15157 0.0287977 8.84652 0.0431965 8.54147 0C8.17541 0 7.79409 0 7.42803 0C7.18398 0.0431965 6.93994 0.0287977 6.6959 0.0863931C5.71973 0.316775 4.88084 0.763139 4.19447 1.43988C3.1878 2.41901 2.65396 3.58531 2.65396 4.9532C2.65396 5.65875 2.65396 6.36429 2.65396 7.08423C2.65396 7.14183 2.65396 7.18503 2.65396 7.24262C2.66921 7.38661 2.59295 7.44421 2.44042 7.44421C2.30315 7.44421 2.18112 7.44421 2.04385 7.44421C0.899905 7.44421 0 8.29374 0 9.37365C0 11.1015 0 12.815 0 14.5428C0 15.7523 0 16.9618 0 18.1713C0 19.0353 0.854147 20 1.92183 20C5.97903 19.9856 10.021 20 14.0782 19.9856C14.2917 19.9856 14.5205 19.9712 14.734 19.8848C15.4967 19.5968 16 18.8769 16.0153 18.0706C16 15.1908 16 12.2822 16 9.37365ZM9.02955 13.8229C8.90753 13.8949 8.87703 13.9813 8.87703 14.1109C8.87703 14.6724 8.87703 15.234 8.87703 15.7811C8.87703 16.2851 8.49571 16.6451 7.99237 16.6451C7.48904 16.6451 7.13823 16.2851 7.13823 15.7811C7.13823 15.5076 7.13823 15.2196 7.13823 14.946C7.13823 14.658 7.13823 14.3701 7.13823 14.0821C7.13823 13.9669 7.10772 13.8949 7.00095 13.8229C6.39085 13.4053 6.14681 12.8438 6.28408 12.1526C6.42135 11.4759 6.87893 11.0439 7.58055 10.8711C8.38894 10.6695 9.22784 11.0583 9.5939 11.7783C9.94471 12.4982 9.71592 13.3621 9.02955 13.8229ZM11.3327 7.5018C10.2193 7.4874 9.10581 7.5018 7.99237 7.5018C6.89419 7.5018 5.796 7.5018 4.68255 7.5018C4.54528 7.5018 4.48427 7.4874 4.48427 7.32901C4.49952 6.53708 4.48427 5.74514 4.48427 4.9532C4.49952 3.32613 5.78074 1.94384 7.48904 1.71346C9.6244 1.42549 11.5005 2.95176 11.5157 4.982C11.5157 5.75954 11.5157 6.52268 11.5157 7.30022C11.531 7.4586 11.4852 7.5018 11.3327 7.5018Z" fill="#9C6AFD"/>
</g>
<defs>
<clipPath id="clip0_1585_27748">
<rect width="16" height="20" fill="white"/>
</clipPath>
</defs>
</svg>
