<svg width="50" height="50" viewBox="0 0 50 50" fill="none" xmlns="http://www.w3.org/2000/svg">
<g clip-path="url(#clip0_1112_4074)">
<path d="M19.8213 6.89543C19.2151 6.58335 18.6869 6.31887 18.1603 6.04814C17.5096 5.71266 17.2748 5.17275 17.5362 4.62896C17.6022 4.49887 17.6955 4.38447 17.8095 4.29343C17.9235 4.2024 18.0557 4.13688 18.1972 4.10124C18.3387 4.06561 18.4862 4.06069 18.6298 4.08686C18.7733 4.11303 18.9096 4.16964 19.0294 4.25291C20.35 4.91711 21.6678 5.58625 22.9827 6.26034C23.1451 6.30883 23.2931 6.39645 23.4137 6.51553C23.5344 6.6346 23.6239 6.78146 23.6746 6.94324C23.7252 7.10501 23.7353 7.27678 23.704 7.44338C23.6728 7.60998 23.6011 7.76635 23.4952 7.89876C22.8024 9.20532 22.1044 10.509 21.4012 11.8099C21.3508 11.9474 21.2712 12.0724 21.1678 12.1762C21.0645 12.2801 20.9399 12.3603 20.8026 12.4114C20.6653 12.4625 20.5185 12.4832 20.3724 12.4721C20.2263 12.4611 20.0844 12.4185 19.9563 12.3474C19.8331 12.2754 19.7263 12.1786 19.6426 12.0631C19.5589 11.9476 19.5003 11.8158 19.4703 11.6764C19.4404 11.5369 19.4398 11.3927 19.4687 11.253C19.4975 11.1133 19.5552 10.9812 19.638 10.865C19.9969 10.18 20.3651 9.50047 20.7755 8.73276C19.6649 8.99616 18.5906 9.39443 17.5767 9.91866C15.472 10.9564 13.6148 12.4342 12.1311 14.2522C10.6473 16.0702 9.57155 18.1859 8.97669 20.4559C8.95017 20.5519 8.92442 20.6486 8.89243 20.7422C8.82415 20.9949 8.6598 21.211 8.43445 21.3442C8.2091 21.4774 7.9406 21.5174 7.68626 21.4554C7.55682 21.4225 7.43533 21.3638 7.32907 21.2829C7.22281 21.202 7.13396 21.1005 7.06783 20.9845C7.00169 20.8685 6.95964 20.7403 6.94418 20.6076C6.92872 20.475 6.94017 20.3406 6.97785 20.2125C7.36584 18.5769 7.99451 17.008 8.84328 15.5571C11.2405 11.3551 15.1769 8.24925 19.8213 6.89543Z" fill="#04E2AF"/>
<path d="M30.1801 42.6538C30.7996 42.9659 31.3317 43.2311 31.8575 43.5058C31.9991 43.549 32.1295 43.6227 32.2396 43.7217C32.3497 43.8207 32.4368 43.9425 32.4947 44.0787C32.5527 44.215 32.5801 44.3623 32.5751 44.5103C32.5701 44.6582 32.5327 44.8032 32.4656 44.9352C32.3986 45.0672 32.3034 45.183 32.1869 45.2743C32.0703 45.3655 31.9352 45.4303 31.791 45.4638C31.6468 45.4973 31.497 45.4988 31.3522 45.4683C31.2073 45.4377 31.0709 45.3758 30.9525 45.2869C29.6178 44.616 28.2853 43.9398 26.9548 43.2584C26.8077 43.2069 26.6746 43.1219 26.566 43.0102C26.4574 42.8984 26.3762 42.7629 26.3288 42.6144C26.2815 42.466 26.2693 42.3085 26.2931 42.1544C26.317 42.0004 26.3763 41.8541 26.4664 41.7269C27.1706 40.3892 27.8824 39.0558 28.6018 37.7269C28.6532 37.595 28.7317 37.4753 28.8321 37.3755C28.9326 37.2757 29.0528 37.1981 29.1851 37.1476C29.3174 37.0971 29.4588 37.0749 29.6002 37.0824C29.7416 37.0898 29.8799 37.1268 30.0061 37.1909C30.1309 37.2592 30.2401 37.3525 30.3268 37.4652C30.4136 37.5779 30.476 37.7073 30.51 37.8454C30.544 37.9835 30.549 38.1271 30.5246 38.2672C30.5002 38.4073 30.4469 38.5408 30.3681 38.6592C30.0077 39.3497 29.6332 40.0323 29.2244 40.793C29.8621 40.6772 30.4836 40.4855 31.0758 40.222C33.4916 39.2886 35.6517 37.7955 37.3787 35.8655C39.1057 33.9355 40.3504 31.6234 41.0107 29.119C41.0427 29.0075 41.07 28.8944 41.1082 28.7844C41.1817 28.5335 41.3501 28.3212 41.5777 28.1926C41.8053 28.0639 42.074 28.029 42.3269 28.0954C42.4519 28.1286 42.5693 28.1861 42.6721 28.2647C42.7749 28.3432 42.8612 28.4413 42.9261 28.5533C42.9909 28.6653 43.0331 28.7889 43.0501 28.9172C43.0671 29.0455 43.0586 29.1758 43.0251 29.3008C42.5906 31.1307 41.8609 32.8775 40.8648 34.4727C38.4453 38.4343 34.6356 41.3513 30.1801 42.6538Z" fill="#04E2AF"/>
<path d="M37.8411 24.3697H26.9466C26.7802 24.3775 26.6135 24.3722 26.448 24.3541C26.2117 24.3167 25.9967 24.1955 25.8423 24.0126C25.688 23.8298 25.6047 23.5974 25.6075 23.3582C25.6103 23.1189 25.6992 22.8886 25.8578 22.7095C26.0165 22.5304 26.2343 22.4143 26.4714 22.3825C26.6207 22.3679 26.7709 22.3637 26.9208 22.3701H48.7099C48.8431 22.3649 48.9765 22.3678 49.1094 22.3786C49.352 22.4042 49.5767 22.5179 49.7411 22.6982C49.9054 22.8784 49.998 23.1127 50.0011 23.3565C50.0043 23.6004 49.9179 23.837 49.7583 24.0214C49.5987 24.2058 49.377 24.3253 49.1352 24.3572C48.9694 24.3726 48.8029 24.3768 48.6366 24.3697H37.8411Z" fill="#04E2AF"/>
<path d="M12.1973 47.7764H23.0419C23.2082 47.7698 23.3747 47.7742 23.5404 47.7897C23.7733 47.8236 23.9869 47.9383 24.1437 48.1138C24.3006 48.2892 24.3908 48.5142 24.3986 48.7494C24.404 48.9933 24.3203 49.2308 24.1632 49.4175C24.0061 49.6042 23.7864 49.7272 23.5451 49.7636C23.3795 49.7802 23.2128 49.7846 23.0466 49.7768H1.3573C1.20746 49.7827 1.05741 49.7799 0.907911 49.7682C0.656954 49.7443 0.424268 49.6267 0.256346 49.4386C0.0884239 49.2506 -0.00236754 49.0061 0.00211128 48.7541C0.00887733 48.5105 0.10419 48.2777 0.270203 48.0993C0.436216 47.9209 0.661549 47.8092 0.904012 47.785C1.05355 47.774 1.20358 47.7714 1.3534 47.7772L12.1973 47.7764Z" fill="#04E2AF"/>
<path d="M47.7488 6.38792C44.6842 4.35942 41.6256 2.32027 38.573 0.270447C38.3523 0.0939305 38.0778 -0.00154313 37.7952 1.88661e-05C37.5126 0.00158086 37.2391 0.100073 37.0204 0.279019C34.2624 2.13821 31.4881 3.97242 28.7231 5.81835C26.9716 6.98863 27.2134 6.58527 27.2017 8.6871C27.1978 9.48368 27.5692 9.87845 28.3517 9.85739C28.7317 9.84647 28.8113 9.9518 28.8089 10.3201C28.7918 13.1027 28.7918 15.8854 28.8089 18.6681C28.8089 19.0769 28.7262 19.1994 28.3018 19.1846C28.1476 19.1664 27.9913 19.1847 27.8455 19.2379C27.6996 19.2912 27.5683 19.3779 27.4621 19.4911C27.3558 19.6043 27.2776 19.7409 27.2338 19.8898C27.1899 20.0387 27.1816 20.1959 27.2095 20.3486C27.2618 20.6046 27.4086 20.8315 27.6208 20.9839C27.833 21.1363 28.0948 21.2031 28.3541 21.1709C31.4863 21.1709 34.6185 21.1709 37.7507 21.1709C40.8995 21.1709 44.0481 21.1709 47.1964 21.1709C47.9298 21.1709 48.3823 20.7949 48.394 20.191C48.3972 20.0445 48.3681 19.899 48.3087 19.765C48.2494 19.631 48.1612 19.5118 48.0505 19.4157C47.9399 19.3196 47.8094 19.2491 47.6684 19.2091C47.5274 19.1692 47.3793 19.1608 47.2347 19.1846C46.8313 19.2025 46.7884 19.055 46.79 18.7094C46.8035 15.9106 46.8035 13.1119 46.79 10.3131C46.79 9.92296 46.9 9.85271 47.2581 9.86129C47.4123 9.88407 47.5697 9.87064 47.7178 9.82205C47.8659 9.77347 48.0006 9.69108 48.1114 9.58139C48.2221 9.4717 48.3058 9.33774 48.3558 9.1901C48.4058 9.04247 48.4208 8.88523 48.3995 8.73082C48.4049 8.36413 48.3784 7.99666 48.4057 7.63153C48.4301 7.38268 48.3808 7.13214 48.264 6.91106C48.1472 6.68997 47.9681 6.50808 47.7488 6.38792ZM31.4998 19.1744C31.3842 19.1564 31.2666 19.1564 31.1511 19.1744C30.8671 19.215 30.7906 19.1027 30.7937 18.8202C30.8078 17.4042 30.8 15.9873 30.8 14.5705C30.8 13.188 30.8148 11.8047 30.7898 10.4222C30.7828 10.0485 30.8733 9.94478 31.2501 9.96039C31.9991 9.9916 31.9999 9.96661 31.9999 10.7211C31.9999 13.3737 31.9897 16.0201 32.0108 18.6704C32.0147 19.0847 31.918 19.2493 31.4998 19.1744ZM41.6087 18.7687C41.6087 19.0909 41.5307 19.1814 41.2022 19.1791C38.936 19.164 36.6696 19.164 34.4029 19.1791C34.0799 19.1791 33.987 19.1011 33.9925 18.7726C34.012 17.373 34.0011 15.9725 34.0011 14.5729C34.0011 13.1732 34.0112 11.7728 33.9933 10.3731C33.9894 10.0509 34.0713 9.96038 34.3998 9.96272C36.6665 9.9778 38.9329 9.9778 41.1991 9.96272C41.5221 9.96272 41.6111 10.0407 41.6095 10.3692C41.5955 13.169 41.5952 15.9689 41.6087 18.7687ZM44.3011 19.1744C44.1853 19.1563 44.0674 19.1563 43.9516 19.1744C43.6676 19.215 43.592 19.1019 43.5951 18.8202C43.6091 17.387 43.6013 15.9538 43.6013 14.5198C43.6013 13.1373 43.6122 11.754 43.5935 10.3708C43.5888 10.0454 43.6715 9.95416 44.0016 9.96196C44.8012 9.97912 44.8013 9.96193 44.8013 10.7718C44.8013 13.4049 44.7903 16.038 44.8122 18.6712C44.8161 19.0855 44.7185 19.2485 44.3011 19.1744ZM29.3004 7.84139L36.4704 3.06116C36.8441 2.81228 37.2201 2.56655 37.5892 2.31221C37.6411 2.26058 37.7101 2.22961 37.7832 2.22516C37.8563 2.22071 37.9285 2.24308 37.9863 2.28802C40.7302 4.12536 43.478 5.95487 46.3055 7.84215L29.3004 7.84139Z" fill="#04E2AF"/>
<path d="M22.1449 31.785C19.0803 29.7565 16.0214 27.7174 12.9683 25.6676C12.7473 25.4914 12.4725 25.3963 12.1899 25.3985C11.9073 25.4006 11.634 25.4997 11.4157 25.6792C8.65772 27.5384 5.88337 29.3727 3.11838 31.2187C1.36763 32.3889 1.61105 31.9856 1.59935 34.0882C1.59545 34.8824 1.96838 35.2772 2.75169 35.2538C3.13788 35.2421 3.2081 35.356 3.20654 35.7219C3.19041 38.5035 3.19041 41.2862 3.20654 44.0699C3.20654 44.4834 3.11526 44.5966 2.69629 44.5833C2.53827 44.5661 2.37842 44.587 2.23017 44.6444C2.08191 44.7017 1.94958 44.7939 1.84426 44.9129C1.73895 45.032 1.66373 45.1746 1.62491 45.3287C1.5861 45.4829 1.58483 45.6441 1.62119 45.7988C1.68476 46.0433 1.83502 46.2564 2.044 46.3984C2.25298 46.5403 2.50643 46.6015 2.75715 46.5704C5.88935 46.5704 9.02155 46.5704 12.1537 46.5704C15.3192 46.5704 18.4845 46.5704 21.6494 46.5704C21.7904 46.5879 21.9335 46.5757 22.0696 46.5346C22.2056 46.4936 22.3315 46.4245 22.4393 46.332C22.5472 46.2394 22.6345 46.1254 22.6957 45.9972C22.7569 45.869 22.7906 45.7294 22.7948 45.5874C22.7988 45.445 22.7719 45.3033 22.7159 45.1724C22.6598 45.0414 22.576 44.9241 22.4702 44.8287C22.3644 44.7333 22.2392 44.662 22.1031 44.6198C21.967 44.5775 21.8234 44.5654 21.6822 44.5841C21.2352 44.6083 21.186 44.4429 21.1883 44.0559C21.205 41.3065 21.205 38.5576 21.1883 35.8092C21.1883 35.4066 21.2313 35.2265 21.708 35.2546C21.8541 35.2722 22.0024 35.2564 22.1416 35.2087C22.2809 35.1609 22.4076 35.0823 22.5121 34.9787C22.6167 34.875 22.6965 34.7492 22.7456 34.6104C22.7947 34.4716 22.8118 34.3235 22.7955 34.1771C22.8033 33.7941 22.7745 33.4102 22.8026 33.0279C22.8264 32.7791 22.7768 32.5289 22.6599 32.308C22.543 32.0871 22.3639 31.9053 22.1449 31.785ZM5.99494 44.5802C5.19602 44.5638 5.19524 44.5802 5.19524 43.7704C5.19524 41.1372 5.20616 38.5041 5.18432 35.8709C5.18432 35.4559 5.2795 35.2936 5.69612 35.3669C5.81169 35.3848 5.92931 35.3848 6.04487 35.3669C6.32964 35.3264 6.40453 35.4403 6.40141 35.7211C6.38737 37.1543 6.39517 38.5875 6.39517 40.0207C6.39517 41.4032 6.38425 42.7873 6.40297 44.1705C6.41 44.4967 6.32417 44.5863 5.99727 44.5785L5.99494 44.5802ZM15.617 44.5802C13.3337 44.5677 11.0506 44.5677 8.76773 44.5802C8.45019 44.5802 8.38778 44.4936 8.38934 44.1901C8.4013 41.3725 8.4013 38.5561 8.38934 35.7407C8.38934 35.4223 8.47672 35.3591 8.77943 35.3614C11.0628 35.3749 13.3459 35.3749 15.6287 35.3614C15.9455 35.3614 16.011 35.448 16.0079 35.7515C15.9915 37.1683 16.0009 38.5844 16.0009 40.0012C16.0009 41.4009 15.9899 42.8014 16.0094 44.201C16.0118 44.517 15.9205 44.5793 15.6194 44.5778L15.617 44.5802ZM18.6964 44.5802C18.5809 44.5613 18.4632 44.5613 18.3477 44.5802C18.0637 44.62 17.988 44.5084 17.9903 44.226C18.0044 42.8091 17.9966 41.3931 17.9966 39.9763C17.9966 38.5938 18.0114 37.2097 17.9864 35.8272C17.9794 35.4543 18.0699 35.3505 18.4468 35.3661C19.1957 35.3973 19.1965 35.3723 19.1965 36.126C19.1965 38.7786 19.1864 41.4267 19.2074 44.0754C19.2137 44.4834 19.1162 44.6449 18.6964 44.5739V44.5802ZM3.7004 33.244C5.83578 31.8201 7.89236 30.4478 9.94894 29.077C10.6129 28.6339 11.2807 28.1977 11.94 27.7507C12.0021 27.6873 12.0855 27.6491 12.1741 27.6435C12.2626 27.6379 12.3502 27.6653 12.4198 27.7203C15.1505 29.5514 17.885 31.3716 20.6984 33.2464L3.7004 33.244Z" fill="#04E2AF"/>
</g>
<defs>
<clipPath id="clip0_1112_4074">
<rect width="50" height="49.7776" fill="white"/>
</clipPath>
</defs>
</svg>
