<svg width="50" height="50" viewBox="0 0 50 50" fill="none" xmlns="http://www.w3.org/2000/svg">
<g clip-path="url(#clip0_1112_4139)">
<path d="M23.4222 12.5773C22.8097 12.4597 22.189 12.3882 21.5765 12.269C21.349 12.2185 21.1118 12.2345 20.8931 12.3151C20.6745 12.3957 20.4836 12.5375 20.3434 12.7236C18.8373 14.4023 17.3017 16.0547 15.7948 17.7326C15.7024 17.8624 15.5728 17.9612 15.4231 18.0158C15.2734 18.0704 15.1106 18.0783 14.9563 18.0384C13.9172 17.8477 12.8674 17.7096 11.8201 17.5739C11.685 17.5675 11.5549 17.5201 11.4474 17.438C11.3399 17.3559 11.2599 17.2431 11.2182 17.1144C10.3443 15.0436 9.44258 12.9842 8.55883 10.9175C8.50713 10.7336 8.40487 10.5679 8.2636 10.4393C8.12233 10.3106 7.94779 10.2243 7.75983 10.19C6.97145 10.0749 6.18457 9.94335 5.39373 9.84224C5.2566 9.80992 5.11347 9.81338 4.97807 9.8523C4.84267 9.89121 4.71966 9.96427 4.62062 10.0645C4.52157 10.1647 4.44983 10.2886 4.41249 10.4245C4.37514 10.5603 4.37336 10.7035 4.40727 10.8402C4.79365 13.6205 5.20141 16.3984 5.58861 19.1795C5.61062 19.359 5.66866 19.5321 5.75921 19.6887C5.84976 19.8452 5.97104 19.9818 6.11566 20.0903C7.10216 20.8861 8.06727 21.7041 9.05377 22.4974C9.16326 22.5775 9.25023 22.6845 9.30626 22.8081C9.36228 22.9317 9.38539 23.0676 9.37349 23.2027C9.33979 25.1281 9.30845 27.0542 9.3175 28.9804C9.36591 29.2486 9.33612 29.5251 9.2316 29.7769C9.12707 30.0287 8.95241 30.245 8.72823 30.4001C8.50873 30.5357 8.42977 30.83 8.07052 30.821C6.89083 30.7914 5.71019 30.7972 4.5305 30.821C4.20989 30.8268 4.17132 30.7034 4.17626 30.4313C4.19105 29.5468 4.1829 28.6614 4.18208 27.7768C4.18208 26.9194 3.91657 26.6497 3.0764 26.6473C2.48614 26.6473 1.89664 26.6473 1.30639 26.6473C-0.0221005 26.6473 -0.00901136 26.6473 0.00743033 27.9626C0.00743033 28.2767 0.119372 28.3309 0.395592 28.3202C0.91515 28.3005 1.43791 28.3424 1.95747 28.3054C2.38742 28.275 2.54522 28.3638 2.53289 28.8497C2.49261 30.3237 2.51804 31.7993 2.51804 33.2741V37.1264C2.51804 38.3118 2.5181 38.3118 1.30799 38.3118C-0.0196728 38.3118 -0.00722429 38.3118 0.0100395 39.6272C0.0100395 39.9429 0.124227 39.9881 0.398804 39.984C1.31789 39.9692 2.23777 39.984 3.15768 39.9774C3.89756 39.9774 4.1812 39.6806 4.18449 38.9251C4.18449 38.0208 4.19593 37.1165 4.17867 36.2188C4.17291 35.9237 4.21325 35.7955 4.56181 35.8029C5.72342 35.8283 6.88662 35.8185 8.04905 35.8078C8.15015 35.8027 8.25106 35.8219 8.34328 35.8636C8.4355 35.9054 8.51639 35.9685 8.57931 36.0478C8.95875 36.4842 9.42555 36.8362 9.94951 37.081C10.4735 37.3257 11.043 37.4578 11.6212 37.4688C12.1994 37.4797 12.7735 37.3692 13.3063 37.1444C13.8391 36.9196 14.319 36.5855 14.7146 36.1637C15.1089 35.7473 15.4121 35.2535 15.6054 34.7136C15.7986 34.1737 15.8776 33.5995 15.8372 33.0275C15.7967 32.4555 15.6378 31.8981 15.3705 31.3907C15.1033 30.8834 14.7334 30.4371 14.2845 30.0803C14.1841 30.022 14.1088 29.9286 14.0732 29.8181C14.0375 29.7076 14.0441 29.5878 14.0914 29.4818C14.6464 27.6798 15.1956 25.8762 15.7242 24.0668C15.7538 23.9518 15.8115 23.846 15.8922 23.7589C15.9728 23.6718 16.0739 23.6061 16.1862 23.5677C17.2623 23.0942 18.3325 22.6059 19.4053 22.125C19.6875 22.0324 19.9278 21.8424 20.0829 21.589C21.4089 19.0035 22.7431 16.4214 24.0584 13.8302C24.1372 13.711 24.1829 13.5732 24.1911 13.4307C24.1992 13.2881 24.1694 13.1459 24.1048 13.0186C24.0401 12.8913 23.9429 12.7834 23.823 12.7059C23.7031 12.6283 23.5648 12.584 23.4222 12.5773ZM7.55592 33.8644C7.61017 34.1307 7.50492 34.1439 7.30022 34.1431C6.36633 34.1373 5.43248 34.1332 4.49859 34.1431C4.26018 34.1431 4.18197 34.0921 4.16963 33.8339C4.11373 32.4718 4.10467 32.4718 5.46357 32.4718H7.59445C7.48788 32.9289 7.47484 33.402 7.55592 33.8644ZM14.1727 33.3793C14.1506 34.0359 13.8718 34.6576 13.3962 35.1108C12.9206 35.564 12.2861 35.8125 11.6292 35.8029C11.2996 35.795 10.9747 35.7222 10.6733 35.5887C10.3718 35.4552 10.0997 35.2637 9.87224 35.0249C9.64481 34.7862 9.46652 34.505 9.3478 34.1974C9.22909 33.8898 9.17213 33.5618 9.18021 33.2322C9.2019 32.5759 9.48053 31.9543 9.95594 31.5014C10.4313 31.0484 11.0656 30.8003 11.7221 30.8103C12.0518 30.8179 12.3769 30.8904 12.6785 31.0236C12.9801 31.1569 13.2525 31.3483 13.4801 31.5869C13.7077 31.8255 13.8859 32.1066 14.0047 32.4141C14.1236 32.7217 14.1807 33.0497 14.1727 33.3793ZM18.8407 20.3518C18.7435 20.5337 18.582 20.6729 18.3877 20.7423C17.2968 21.224 16.2165 21.7287 15.1207 22.1998C14.9033 22.2802 14.709 22.4126 14.5547 22.5854C14.4003 22.7583 14.2908 22.9663 14.2354 23.1913C13.6969 25.0689 13.1098 26.9326 12.5623 28.8069C12.4727 29.1144 12.3716 29.2705 12.037 29.1555C11.9689 29.1419 11.8991 29.1384 11.8299 29.1448C10.9684 29.1193 10.9675 29.1193 10.9765 28.266C10.9946 26.3933 11.0071 24.5197 11.0399 22.647C11.0533 22.4404 11.0146 22.2337 10.9277 22.0458C10.8409 21.8579 10.7084 21.6946 10.5424 21.5709C9.54192 20.7686 8.56128 19.9415 7.56655 19.1318C7.45645 19.0525 7.36399 18.9513 7.2952 18.8343C7.22641 18.7174 7.18274 18.5875 7.16695 18.4527C6.88991 16.3926 6.57915 14.3374 6.29389 12.2789C6.26676 12.0808 6.10984 11.83 6.33262 11.6681C6.50197 11.5456 7.13732 11.8473 7.2368 12.066C8.02052 13.8745 8.8026 15.6831 9.58303 17.4917C10.3451 19.2576 10.032 18.9616 11.9236 19.2551C13.0746 19.4327 14.2206 19.5839 15.3641 19.7821C15.5915 19.8305 15.8277 19.8136 16.0459 19.7334C16.2641 19.6533 16.4553 19.5131 16.5972 19.3291C18.114 17.6389 19.6603 15.9742 21.1803 14.2856C21.4343 14.0036 21.6678 13.8688 22.0468 14.0949C20.9665 16.197 19.8995 18.2727 18.8447 20.3526L18.8407 20.3518Z" fill="#04E2AF"/>
<path d="M50.0016 34.4453C50.0016 33.5682 49.7409 33.3133 48.8506 33.3125C48.0005 33.3125 47.1512 33.3125 46.3022 33.3125C45.2212 33.3125 45.005 33.5057 45.0181 34.5654C45.0222 34.9123 44.9201 34.9912 44.588 34.9863C43.2349 34.9674 41.8809 34.9912 40.5278 34.9715C40.1129 34.9573 39.7042 35.0744 39.3597 35.3061C37.8528 36.2926 36.3286 37.2519 34.8242 38.2434C34.6906 38.3454 34.5338 38.4127 34.3678 38.4393C34.2018 38.4658 34.0318 38.4508 33.873 38.3954C31.5227 37.6819 29.1658 36.9897 26.8088 36.2983C25.1696 35.7436 23.4901 35.316 21.7852 35.0192C21.0771 34.8994 20.3502 35.0617 19.7603 35.4713C19.5263 35.6164 19.3325 35.8178 19.1963 36.0572C19.0602 36.2965 18.986 36.5661 18.9808 36.8414C18.9755 37.1167 19.0392 37.3889 19.1662 37.6332C19.2932 37.8775 19.4794 38.0862 19.7077 38.2401C19.942 38.4185 20.187 38.5829 20.4188 38.7637C25.0324 42.3771 29.6453 45.9915 34.2578 49.607C34.8801 50.0945 35.0692 50.106 35.7376 49.6605C37.6415 48.3945 39.5784 47.1753 41.4289 45.8361C42.2768 45.1812 43.3385 44.8663 44.4064 44.9532C44.8898 44.9869 45.0526 45.0593 45.0213 45.5714C44.9737 46.3532 45.2901 46.6401 46.0678 46.6401C47.0044 46.6434 47.9413 46.6434 48.8785 46.6401C49.7343 46.6401 50.0048 46.3738 50.0056 45.5311C50.0056 43.6919 50.0056 41.8526 50.0056 40.0133C50.0029 38.1559 50.0016 36.3 50.0016 34.4453ZM45.0099 42.9399C45.0099 43.2277 44.9433 43.3625 44.6424 43.3099C44.6251 43.3099 44.6071 43.3099 44.5906 43.3099C43.8127 43.2093 43.0222 43.2745 42.2713 43.5012C41.5203 43.7279 40.8259 44.111 40.2335 44.6252C38.6716 45.8041 36.9887 46.8136 35.3643 47.9053C35.1587 48.0434 35.0223 48.1051 34.7888 47.9209C30.1167 44.2435 25.4396 40.5715 20.7576 36.905C20.7469 36.896 20.746 36.8746 20.7263 36.8228C20.8594 36.7352 21.0099 36.6775 21.1674 36.6537C21.325 36.6298 21.4858 36.6404 21.6389 36.6847C23.3069 36.9904 24.95 37.4187 26.5549 37.9663C28.5148 38.5368 30.472 39.1172 32.4261 39.6927C32.4319 39.8037 32.3547 39.8505 32.2947 39.9106C32.0697 40.1154 31.9011 40.3746 31.8048 40.6632C31.7085 40.9518 31.6877 41.2603 31.7446 41.5593C31.8014 41.8582 31.9341 42.1375 32.1297 42.3706C32.3253 42.6037 32.5774 42.7827 32.8619 42.8906C33.4987 43.1713 34.1878 43.3137 34.8838 43.3084C35.5797 43.3032 36.2667 43.1504 36.8992 42.8602C37.797 42.5034 38.6502 42.034 39.5299 41.6345C39.8053 41.5095 39.834 41.3788 39.6942 41.1272C39.4912 40.7663 39.4081 40.2098 39.113 40.0667C38.8179 39.9237 38.388 40.3389 38.014 40.5C37.126 41.0034 36.1702 41.3763 35.176 41.6073C34.5375 41.7164 33.8818 41.5686 33.3518 41.1963C33.5088 41.0837 33.6346 40.985 33.7695 40.8979C35.8521 39.554 37.9323 38.2113 40.01 36.8697C40.2374 36.7147 40.5075 36.6345 40.7827 36.6403C42.0668 36.6529 43.3509 36.6529 44.635 36.6403C44.9227 36.6403 45.0131 36.7069 45.0115 37.0078C44.9951 38.9824 44.9938 40.959 45.0081 42.9375L45.0099 42.9399ZM47.9183 44.9845C46.6696 44.9762 46.6687 44.9902 46.6687 43.7242C46.6687 40.9653 46.6778 38.2064 46.6589 35.4475C46.6589 35.0586 46.7485 34.96 47.1382 34.9674C48.3343 34.9912 48.3352 34.9723 48.3352 36.1766V40.0289C48.3352 41.5383 48.3245 43.0484 48.3434 44.5578C48.3475 44.8957 48.257 44.9845 47.9175 44.982L47.9183 44.9845Z" fill="#04E2AF"/>
<path d="M34.1618 16.6406C31.7412 16.6477 29.4213 17.6105 27.7069 19.3194C25.9926 21.0284 25.0226 23.3452 25.0079 25.7658C24.9996 28.1947 25.9552 30.5278 27.665 32.253C29.3748 33.9782 31.6991 34.9547 34.1281 34.9682C35.3358 34.974 36.5327 34.7411 37.65 34.2827C38.7674 33.8243 39.7832 33.1496 40.6389 32.2973C41.4946 31.4449 42.1733 30.4319 42.6361 29.3163C43.0989 28.2008 43.3365 27.0047 43.3354 25.797C43.3315 23.3668 42.3632 21.0375 40.6431 19.3207C38.9231 17.6039 36.592 16.64 34.1618 16.6406ZM34.179 33.2985C32.1894 33.2987 30.2811 32.5086 28.874 31.102C27.4669 29.6954 26.6764 27.7874 26.6759 25.7978C26.6792 23.8079 27.4726 21.9008 28.8819 20.4959C30.2911 19.091 32.2006 18.3033 34.1905 18.3062C36.1713 18.3144 38.0688 19.1046 39.4698 20.5049C40.8709 21.9052 41.6622 23.8022 41.6715 25.783C41.6732 26.7688 41.4805 27.7453 41.1045 28.6566C40.7286 29.5679 40.1768 30.3963 39.4806 31.0942C38.7844 31.7922 37.9575 32.3461 37.0471 32.7243C36.1367 33.1025 35.1606 33.2977 34.1748 33.2985H34.179Z" fill="#04E2AF"/>
<path d="M20.842 5.81318C20.842 4.9278 20.8262 4.04243 20.8476 3.15786C20.8706 2.93269 20.8163 2.70639 20.6932 2.51639C20.5702 2.32639 20.3859 2.18409 20.171 2.113C18.609 1.45533 17.0538 0.782033 15.4984 0.109568C15.3502 0.0387118 15.1882 0.00131256 15.0239 3.3933e-05C14.8597 -0.0012447 14.6973 0.0336264 14.5481 0.102167C12.9787 0.787786 11.4061 1.46766 9.82771 2.13109C9.621 2.19899 9.4434 2.33498 9.32394 2.51684C9.20449 2.6987 9.15021 2.91569 9.17 3.13237C9.18151 4.92013 9.18151 6.70763 9.17 8.49484C9.15032 8.71115 9.20416 8.92777 9.32274 9.10975C9.44132 9.29172 9.61766 9.42843 9.8235 9.49778C11.4019 10.162 12.9745 10.8419 14.5447 11.5242C14.6853 11.5923 14.8392 11.6286 14.9954 11.6307C15.1517 11.6329 15.3066 11.6007 15.449 11.5365C17.0384 10.8493 18.6278 10.1661 20.2172 9.4871C20.4151 9.41981 20.5847 9.28804 20.6989 9.11291C20.813 8.93778 20.8651 8.72939 20.8468 8.52113C20.832 7.61848 20.842 6.71583 20.842 5.81318ZM14.1774 9.53971L10.9908 8.18902C10.8264 8.11914 10.8445 7.97527 10.8445 7.83716C10.8445 6.65747 10.8445 5.4786 10.8445 4.21999C11.9272 4.68282 12.9393 5.11936 13.957 5.54602C14.0297 5.56801 14.092 5.6152 14.133 5.67909C14.174 5.74298 14.1909 5.81939 14.1806 5.89459C14.1724 7.08908 14.1764 8.28356 14.1764 9.53971H14.1774ZM15.1349 4.13943C15.0769 4.15724 15.0159 4.16255 14.9557 4.15504C14.8955 4.14753 14.8376 4.12736 14.7857 4.09586C13.9316 3.7251 13.0758 3.35599 12.1312 2.95234C13.0815 2.54706 13.9398 2.18615 14.7939 1.81375C14.8629 1.77993 14.9385 1.76234 15.0153 1.76234C15.0921 1.76234 15.1679 1.77993 15.2369 1.81375C16.0902 2.18862 16.9469 2.55363 17.8874 2.95892C16.9231 3.3716 16.0294 3.75799 15.1341 4.14026L15.1349 4.13943ZM18.9535 8.21697C17.9407 8.64938 16.9296 9.08427 15.8428 9.55039C15.8428 8.29754 15.8502 7.12195 15.8362 5.94637C15.8229 5.85516 15.8431 5.76222 15.8932 5.68481C15.9432 5.6074 16.0197 5.55079 16.1083 5.52547C17.1088 5.1095 18.1027 4.68036 19.1739 4.22411C19.1739 5.50574 19.1739 6.73805 19.1739 7.97035C19.1747 8.12572 19.0687 8.16764 18.9511 8.21697H18.9535Z" fill="#04E2AF"/>
<path d="M36.0113 25.0646C35.6776 24.9692 35.1958 25.1698 35.0363 24.8319C34.9553 24.4779 34.9453 24.1113 35.0068 23.7533C35.0068 23.4064 35.0134 23.0595 35.0068 22.7126C35.0027 22.5408 35.0471 22.4536 35.2378 22.484C35.7524 22.5662 36.3065 22.7183 36.4824 23.2116C36.6805 23.7805 37.0349 23.7484 37.4624 23.7254C37.6354 23.7123 37.8089 23.7123 37.9818 23.7254C38.2778 23.755 38.3749 23.6777 38.2959 23.3555C38.1759 22.7388 37.875 22.1718 37.4317 21.7266C36.9884 21.2814 36.4228 20.9782 35.8066 20.8555C35.5427 20.7905 35.1655 20.955 35.0413 20.7116C34.97 20.4268 34.959 20.1303 35.0092 19.841C35.0092 19.1406 35.0093 19.1406 34.3031 19.1406C33.3429 19.1406 33.3241 19.1406 33.3512 20.1057C33.3635 20.562 33.3742 20.9278 32.7437 20.8292C32.5873 20.8291 32.4323 20.8601 32.2881 20.9204C31.5438 21.1129 30.9036 21.5873 30.503 22.2434C30.1024 22.8995 29.9729 23.6857 30.1417 24.4357C30.3361 25.0417 30.7076 25.5755 31.2083 25.9683C31.709 26.3612 32.3159 26.595 32.9508 26.6397C33.107 26.6504 33.3528 26.5246 33.3462 26.8699C33.333 27.5456 33.3388 28.2222 33.3462 28.8988C33.3462 29.0689 33.31 29.1602 33.1168 29.1281C32.8546 29.1256 32.598 29.0531 32.3734 28.9179C32.1487 28.7827 31.9643 28.5899 31.8393 28.3595C31.6601 27.8786 31.3798 27.8662 30.9959 27.8868C30.7709 27.9022 30.5451 27.9022 30.3202 27.8868C30.0628 27.8654 29.9854 27.9468 30.0438 28.2066C30.1512 28.7988 30.4247 29.3484 30.8322 29.7914C31.2396 30.2344 31.7644 30.5526 32.3457 30.709C32.6745 30.8109 33.1563 30.6539 33.3034 30.9096C33.4138 31.2557 33.4258 31.6257 33.3379 31.9783C33.2952 32.3893 33.4415 32.4905 33.8435 32.4814C35.0084 32.4551 35.0298 32.4732 35.001 31.2984C34.9911 30.8874 35.1136 30.8101 35.505 30.7846C36.2278 30.7193 36.9054 30.4047 37.4219 29.8949C37.9384 29.385 38.2616 28.7114 38.3363 27.9895C38.3067 27.3191 38.0658 26.6753 37.6483 26.1499C37.2307 25.6246 36.6577 25.2447 36.0113 25.0646ZM33.3379 23.7583C33.3379 23.9827 33.3379 24.2071 33.3379 24.4316C33.3379 25.0456 33.3084 25.0654 32.7041 24.8714C32.4058 24.8112 32.1389 24.646 31.9519 24.4059C31.7649 24.1658 31.6701 23.8666 31.6847 23.5626C31.7914 23.2608 31.9846 22.997 32.2403 22.8045C32.496 22.6119 32.803 22.499 33.1226 22.4799C33.3265 22.4799 33.3428 22.5671 33.3404 22.7266C33.3338 23.0677 33.3379 23.413 33.3379 23.7583ZM36.6558 28.0586C36.5468 28.3594 36.3522 28.6217 36.0958 28.8131C35.8394 29.0045 35.5325 29.1166 35.2131 29.1355C35.0002 29.1355 35.0009 29.0328 35.0026 28.8848C35.0026 28.5395 35.0026 28.1942 35.0026 27.8498V27.2283C35.0026 26.5616 35.0215 26.5476 35.6438 26.7441C35.9414 26.8067 36.2069 26.9736 36.3925 27.2146C36.578 27.4556 36.6713 27.7549 36.6558 28.0586Z" fill="#04E2AF"/>
</g>
<defs>
<clipPath id="clip0_1112_4139">
<rect width="50" height="49.9778" fill="white"/>
</clipPath>
</defs>
</svg>
