<svg width="50" height="40" viewBox="0 0 50 40" fill="none" xmlns="http://www.w3.org/2000/svg">
<g clip-path="url(#clip0_1112_4088)">
<path d="M49.386 20.2188C48.3523 19.6251 47.3192 19.0275 46.2371 18.4033C46.4259 18.2863 46.5571 18.1981 46.6937 18.1193C47.6353 17.5732 48.5831 17.0427 49.5201 16.4911C50.1568 16.1166 50.1568 15.5494 49.5201 15.1694C48.9217 14.8105 48.3116 14.4719 47.707 14.124L46.2247 13.2658C47.3014 12.6416 48.3117 12.0557 49.3236 11.4713C49.6356 11.2919 49.9765 11.1358 49.9836 10.7044C49.9906 10.273 49.6513 10.1091 49.3384 9.92967C43.695 6.6898 38.0538 3.44682 32.4146 0.20071C32.2252 0.0670516 31.9994 -0.00567517 31.7676 -0.00776611C31.5358 -0.00985706 31.3089 0.0587877 31.1171 0.189007C20.9908 6.05031 10.8587 11.9017 0.720951 17.7433C0.454997 17.8887 0.212004 18.0728 0 18.2894V18.7778C0.0357503 18.901 0.0964169 19.0156 0.178285 19.1143C0.260154 19.2131 0.361561 19.294 0.475999 19.352C1.07206 19.6789 1.65564 20.0284 2.24 20.3764C2.65916 20.5832 3.05955 20.826 3.43676 21.102C3.38195 21.1912 3.29985 21.2604 3.20266 21.2994C2.37176 21.8042 1.52365 22.2777 0.677142 22.7544C0.519342 22.8157 0.377157 22.9111 0.260381 23.0337C0.143605 23.1562 0.0551326 23.303 0.00152381 23.4636V23.952C0.150583 24.244 0.394634 24.4765 0.693523 24.6113C1.47371 25.0497 2.24382 25.5023 3.02323 25.9376C3.16211 26.0156 3.37736 26.0624 3.39219 26.2239C3.40779 26.4042 3.18084 26.4463 3.04742 26.5204C2.1978 26.9987 1.36622 27.5089 0.515809 27.9856C0.281281 28.0998 0.0975844 28.2973 0.000761904 28.5395V29.0279C0.148814 29.2387 0.345942 29.4103 0.575047 29.528C6.26263 32.7892 11.9468 36.0556 17.6276 39.3272C17.805 39.4512 18.0159 39.5184 18.2324 39.5201C18.4488 39.5218 18.6606 39.4578 18.84 39.3366C29.0235 33.4451 39.2113 27.5604 49.4032 21.6824C50.2076 21.2221 50.1967 20.6869 49.386 20.2188ZM2.29619 18.7029C2.22753 18.6631 2.16278 18.6171 2.052 18.5469L6.3539 16.0612C8.68666 14.7138 11.0234 13.3734 13.3484 12.0128C13.4552 11.9316 13.5858 11.8881 13.72 11.889C13.8542 11.8898 13.9844 11.935 14.0903 12.0175C14.5787 12.3295 15.0942 12.6026 15.6724 12.9334L9.27961 16.6299C8.62659 17.0076 8.56729 17.1886 8.88951 17.8829C8.9649 18.0275 9.00984 18.186 9.02151 18.3487C9.03319 18.5113 9.01128 18.6746 8.95732 18.8285C8.91824 18.9097 8.8959 18.9978 8.89142 19.0878C8.88694 19.1778 8.9004 19.2677 8.93123 19.3523C8.96206 19.437 9.00955 19.5146 9.07085 19.5806C9.13214 19.6466 9.20605 19.6997 9.28818 19.7367C11.6371 21.089 13.9872 22.4385 16.3386 23.7851C16.4501 23.8512 16.5749 23.8916 16.704 23.9034C16.833 23.9151 16.963 23.8979 17.0846 23.8529C18.0381 23.549 19.0676 23.5846 19.9979 23.9536C20.1701 24.022 20.3563 24.0474 20.5405 24.0274C20.7248 24.0074 20.9015 23.9427 21.055 23.8389C23.1865 22.5968 25.3289 21.3743 27.4581 20.1283C27.5633 20.0449 27.6933 19.9988 27.8276 19.9972C27.9619 19.9957 28.0928 20.0388 28.2 20.1197C28.7313 20.4615 29.2922 20.7548 29.8438 21.0692C29.7853 21.2619 29.6052 21.2939 29.4725 21.3704C25.8499 23.4691 22.2253 25.5652 18.599 27.6587C18.5099 27.7353 18.3987 27.7815 18.2815 27.7905C18.1643 27.7995 18.0471 27.7708 17.9474 27.7086C12.7373 24.6976 7.5199 21.6957 2.29524 18.7029H2.29619ZM16.703 13.8969C16.7874 13.8277 16.8916 13.787 17.0006 13.7807C17.1095 13.7744 17.2175 13.8028 17.3093 13.8618C20.338 15.618 23.3769 17.3571 26.4821 19.1398L22.0124 21.7207C21.984 21.7361 21.9566 21.7533 21.9304 21.7722C21.5397 22.1189 21.0638 22.3557 20.5516 22.4583C20.0394 22.561 19.509 22.5259 19.0148 22.3565C18.4089 22.2109 17.7743 22.2366 17.1821 22.4306C17.0671 22.4618 16.9469 22.4681 16.8293 22.4492C16.7117 22.4302 16.5995 22.3864 16.5002 22.3206C14.5757 21.2086 12.6492 20.1039 10.7206 19.0064C10.4639 18.8613 10.4273 18.6803 10.3524 18.415C10.1448 17.6777 10.5543 17.4226 11.0958 17.1207C12.9776 16.0705 14.8368 14.9783 16.7023 13.8993L16.703 13.8969ZM2.03562 23.6852C3.06235 23.0915 4.05237 22.5149 5.04399 21.9469C5.20939 21.8517 5.31628 22.0047 5.43409 22.0718C9.4466 24.3718 13.4629 26.6655 17.4598 28.9913C17.6873 29.1521 17.9591 29.2385 18.2377 29.2385C18.5163 29.2385 18.7881 29.1521 19.0156 28.9913C22.7121 26.8255 26.4274 24.6948 30.1396 22.5531C30.2644 22.4814 30.39 22.4111 30.6131 22.2848C30.6131 23.455 30.6068 24.5231 30.6177 25.5951C30.6205 25.6829 30.5961 25.7694 30.5478 25.8428C30.4994 25.9161 30.4296 25.9727 30.3478 26.0047C26.3948 28.2813 22.4464 30.5628 18.5023 32.8493C18.2198 33.0131 18.0529 32.8813 17.8445 32.7619L3.61619 24.5879L2.03562 23.6852ZM30.2588 31.175C26.4952 33.3541 22.7206 35.516 18.971 37.7185C18.7582 37.8739 18.5016 37.9576 18.2381 37.9576C17.9746 37.9576 17.7179 37.8739 17.5051 37.7185C12.5119 34.8154 7.49605 31.9451 2.48724 29.0685C2.34914 28.9905 2.21269 28.9054 2.04495 28.8056C3.01004 28.2477 3.94148 27.7242 4.85352 27.1726C4.94732 27.113 5.05764 27.0847 5.16857 27.0919C5.27949 27.099 5.3853 27.1412 5.47066 27.2124C9.42232 29.4875 13.3866 31.7422 17.3226 34.0438C17.5867 34.2348 17.9038 34.3383 18.2297 34.3398C18.5556 34.3414 18.8738 34.2408 19.1396 34.0523C22.8182 31.8881 26.5248 29.7715 30.2182 27.64C30.3308 27.542 30.4764 27.4904 30.6255 27.4956C30.6255 28.5926 30.6255 29.6911 30.6255 30.7896C30.6341 31.0533 30.4127 31.0853 30.2613 31.1758L30.2588 31.175ZM35.2521 28.3008C34.2855 28.8337 33.3273 29.3821 32.3864 29.9579C31.9846 30.2037 31.9613 30.0656 31.9613 29.6895C31.9613 26.9729 31.9355 24.2563 31.9558 21.5397C31.9798 21.2849 31.9243 21.029 31.7969 20.8071C31.6695 20.5853 31.4765 20.4083 31.2443 20.3007C26.0004 17.3116 20.7643 14.3089 15.536 11.2927C15.3963 11.2146 15.2589 11.1296 15.0756 11.0212C16.267 10.3346 17.4162 9.67689 18.5623 9.00593C18.7776 8.87954 18.8986 9.03323 19.039 9.11359C22.9098 11.3335 26.779 13.556 30.6466 15.7811C32.1805 16.6619 33.7143 17.542 35.2567 18.408C35.3718 18.46 35.4678 18.5469 35.5308 18.6564C35.5938 18.7659 35.6206 18.8924 35.6078 19.0181C35.6026 21.8975 35.6097 24.7769 35.6289 27.6564C35.6443 27.7899 35.6162 27.9248 35.5487 28.0411C35.4812 28.1573 35.378 28.2487 35.2544 28.3016L35.2521 28.3008ZM23.5188 10.131C25.5216 8.97394 27.4604 7.85593 29.3944 6.73167C29.4728 6.69022 29.5592 6.66675 29.6478 6.66297C29.7363 6.65919 29.8247 6.6752 29.9062 6.70983C30.8887 7.01613 31.936 7.04904 32.9358 6.80501C33.0216 6.78563 33.1104 6.78486 33.1965 6.80275C33.2827 6.82065 33.364 6.85681 33.435 6.90878C35.4026 8.04161 37.3679 9.17913 39.3457 10.2948C39.6148 10.4469 39.5798 10.6529 39.6438 10.8799C39.8521 11.5821 39.4651 11.8435 38.9299 12.1415C37.0449 13.1893 35.1851 14.287 33.3173 15.3637C33.1441 15.4636 32.9997 15.5977 32.7523 15.4542C29.6948 13.6808 26.6279 11.9207 23.5188 10.1317V10.131ZM35.8872 17.2463C35.4113 16.9389 34.9058 16.6768 34.4135 16.3959C34.4135 16.2133 34.5742 16.204 34.6741 16.1462C36.6687 14.9915 38.6646 13.8395 40.6619 12.69C41.3773 12.2773 41.435 12.108 41.1011 11.3699C41.0309 11.2231 40.9905 11.0638 40.982 10.9012C40.9736 10.7387 40.9973 10.5761 41.0519 10.4228C41.1231 10.2555 41.1252 10.0669 41.0577 9.89817C40.9901 9.72945 40.8585 9.59434 40.6916 9.52241C38.3562 8.17945 36.0206 6.83648 33.6847 5.49352C33.5742 5.42481 33.4498 5.38147 33.3205 5.36663C33.1913 5.35179 33.0605 5.36581 32.9373 5.40769C31.9518 5.71942 30.8886 5.67888 29.9297 5.29301C29.7711 5.2336 29.6003 5.21392 29.4323 5.23568C29.2644 5.25744 29.1043 5.31998 28.9661 5.41784C26.8182 6.66614 24.6641 7.9004 22.5194 9.15182C22.4192 9.22953 22.2963 9.27228 22.1695 9.27355C22.0427 9.27482 21.919 9.23453 21.8173 9.15884C21.2712 8.81244 20.7 8.50739 20.0642 8.1446L26.2089 4.6002C27.9519 3.59479 29.6942 2.58861 31.4362 1.58164C31.5119 1.51326 31.6076 1.47098 31.7091 1.46101C31.8106 1.45103 31.9128 1.4739 32.0003 1.52625C37.2432 4.55234 42.4905 7.57064 47.7422 10.5811C47.8057 10.6239 47.8666 10.6702 47.9247 10.72C45.9415 11.8661 43.9825 12.9989 42.0219 14.131C40.2227 15.1694 38.4181 16.1993 36.6268 17.2518C36.5201 17.3322 36.3898 17.3753 36.2561 17.3745C36.1225 17.3736 35.9929 17.3281 35.8872 17.2463ZM36.9264 20.1899C36.7275 18.9814 37.2291 18.3526 38.2918 17.8041C40.4069 16.7119 42.4407 15.4589 44.498 14.2558C44.6055 14.1763 44.7358 14.1333 44.8695 14.1333C45.0032 14.1333 45.1334 14.1763 45.2409 14.2558C46.1131 14.7856 47.0073 15.2794 47.963 15.8279L36.9443 22.1896C36.9901 21.5238 36.9841 20.8548 36.9264 20.1899ZM36.9592 27.3084C36.9592 26.1381 36.9638 25.0458 36.9552 23.9614C36.9547 23.8812 36.9791 23.8029 37.0247 23.737C37.0704 23.6711 37.1352 23.6209 37.2104 23.5931C39.6836 22.1685 42.1559 20.7423 44.6276 19.3146C44.7516 19.2428 44.8554 19.1656 45.0177 19.2615C45.9804 19.8256 46.951 20.378 47.9582 20.9569L36.9592 27.3084Z" fill="#04E2AF"/>
<path d="M30.9383 12.0671C30.794 12.0782 30.6503 12.0394 30.5312 11.9572C30.4122 11.8749 30.325 11.7542 30.2844 11.6153C30.2287 11.4853 30.2212 11.3397 30.2631 11.2046C30.3049 11.0695 30.3935 10.9537 30.513 10.878C31.432 10.3319 32.3582 9.79436 33.2983 9.28334C33.3679 9.24722 33.4441 9.22573 33.5223 9.22019C33.6005 9.21465 33.679 9.22517 33.753 9.25112C33.8269 9.27707 33.8948 9.31789 33.9524 9.37106C34.01 9.42423 34.0561 9.48864 34.0878 9.5603C34.1345 9.61839 34.1692 9.68514 34.1899 9.7567C34.2107 9.82826 34.2171 9.90322 34.2088 9.97726C34.2004 10.0513 34.1775 10.123 34.1413 10.1881C34.1052 10.2533 34.0565 10.3106 33.9981 10.3569C33.0686 10.9779 32.1017 11.5409 31.1029 12.0429C31.0499 12.061 30.9942 12.0692 30.9383 12.0671Z" fill="#04E2AF"/>
<path d="M20.491 17.8647C20.4776 17.9824 20.4357 18.0951 20.3689 18.193C20.3022 18.2909 20.2127 18.371 20.108 18.4264C19.1522 18.9772 18.202 19.5358 17.24 20.0757C17.163 20.1295 17.0756 20.1665 16.9834 20.1844C16.8912 20.2022 16.7962 20.2004 16.7047 20.1791C16.6133 20.1579 16.5274 20.1176 16.4525 20.0609C16.3777 20.0043 16.3156 19.9325 16.2703 19.8503C16.2241 19.7683 16.1956 19.6775 16.1866 19.5838C16.1777 19.4901 16.1884 19.3956 16.2183 19.3064C16.2481 19.2171 16.2965 19.1351 16.36 19.0657C16.4235 18.9962 16.5006 18.9408 16.5868 18.9031C17.5231 18.3523 18.4594 17.807 19.4112 17.2764C19.5155 17.2016 19.6389 17.1577 19.767 17.1497C19.8952 17.1418 20.023 17.1702 20.1358 17.2316C20.2485 17.2931 20.3417 17.385 20.4045 17.497C20.4674 17.609 20.4973 17.7364 20.491 17.8647Z" fill="#04E2AF"/>
</g>
<defs>
<clipPath id="clip0_1112_4088">
<rect width="50" height="39.5267" fill="white"/>
</clipPath>
</defs>
</svg>
