<svg width="50" height="48" viewBox="0 0 50 48" fill="none" xmlns="http://www.w3.org/2000/svg">
<g clip-path="url(#clip0_1112_4151)">
<path d="M0 36.8299C0.222607 36.7882 0.339945 36.5996 0.492032 36.4645C3.07156 34.1495 5.64849 31.8323 8.22348 29.5127C8.31779 29.4278 8.41565 29.3428 8.51845 29.2578C8.64675 29.3972 8.58481 29.5484 8.58566 29.6826C8.59076 31.0497 8.61524 32.4177 8.57446 33.783C8.56002 34.2767 8.71705 34.3472 9.16482 34.3464C15.0727 34.3322 20.9809 34.3302 26.8887 34.3404H27.4708C27.0026 34.925 26.5896 35.4356 26.1851 35.9547C26.0696 36.1017 25.92 36.0542 25.7815 36.0542C19.6453 36.0542 13.5094 36.0573 7.37384 36.0635C7.06796 36.0635 6.99407 35.9785 7.00087 35.6854C7.02126 34.8357 7.00875 33.9937 7.00875 33.1509C6.85412 33.0659 6.79725 33.2036 6.72333 33.269C5.43866 34.3956 4.15973 35.5291 2.87337 36.6523C2.6754 36.8222 2.56659 36.9225 2.84018 37.1621C4.15968 38.2981 5.45642 39.4604 6.76232 40.6116C6.81755 40.6601 6.86429 40.745 7.00958 40.6915C7.00958 39.8852 7.02891 39.0619 7.00087 38.2403C6.98813 37.8817 7.07593 37.7798 7.44893 37.7832C9.71154 37.8027 11.9731 37.7934 14.2357 37.7934C22.5362 37.7934 30.8368 37.7965 39.1373 37.8027C39.5621 37.8027 39.72 37.722 39.7098 37.2538C39.6758 35.761 39.6969 34.2665 39.6969 32.7839C39.8532 32.6989 39.9001 32.8246 39.9595 32.879C42.5821 35.292 45.2029 37.7067 47.8221 40.1231C47.9742 40.2633 48.1068 40.3474 47.8698 40.5649C45.1923 43.0142 42.5209 45.4705 39.8558 47.9339C39.8271 47.9524 39.796 47.9667 39.7633 47.9764C39.6316 47.8404 39.7015 47.6705 39.7006 47.5201C39.6947 46.1692 39.6741 44.8182 39.7089 43.4682C39.7208 42.9983 39.5638 42.9176 39.1348 42.9184C33.1782 42.932 27.2214 42.9352 21.2648 42.9278H20.6106C21.0898 42.333 21.5088 41.8105 21.9336 41.2914C22.0304 41.1741 22.1783 41.2242 22.3032 41.2242C28.5204 41.2242 34.7372 41.2209 40.9544 41.2141C41.3002 41.2141 41.3453 41.3364 41.3402 41.6312C41.3224 42.4681 41.3344 43.3059 41.3344 44.2566C41.8697 43.7587 42.3184 43.3441 42.7644 42.9261C43.5948 42.1467 44.4239 41.3659 45.252 40.5836C45.3582 40.4834 45.5486 40.4052 45.337 40.2072C44.0303 38.9888 42.7312 37.7628 41.3352 36.4501C41.3352 37.3669 41.309 38.1706 41.3464 38.9718C41.366 39.3967 41.2554 39.5029 40.822 39.502C30.2598 39.4878 19.6973 39.4808 9.13453 39.4808C8.69356 39.4808 8.56754 39.5836 8.57944 40.0322C8.61173 41.3823 8.59064 42.7341 8.59064 44.0842V44.6432L0.0024892 36.9378L0 36.8299Z" fill="#04E2AF"/>
<path d="M46.184 6.85819C43.0403 6.85819 39.9023 6.85055 36.762 6.86669C36.3703 6.86669 36.2285 6.79447 36.2455 6.37134C36.2811 5.47752 36.2601 4.58201 36.2558 3.68648C36.2931 3.19286 36.223 2.69698 36.0509 2.23284C35.8787 1.76871 35.6083 1.34728 35.2581 0.997397C34.9079 0.647515 34.4865 0.377463 34.0222 0.205728C33.5579 0.0339934 33.0617 -0.0353825 32.5681 0.00239168C23.0152 0.00239168 13.4626 0.00239168 3.91035 0.00239168C3.41239 -0.0359722 2.91204 0.0341265 2.44379 0.207828C1.97555 0.38153 1.55083 0.654712 1.19836 1.00855C0.845902 1.36238 0.574115 1.78845 0.402235 2.25737C0.230355 2.72629 0.162385 3.2269 0.202685 3.7247C0.199852 9.2576 0.199852 14.7905 0.202685 20.3234C0.194531 20.7143 0.239867 21.1045 0.337101 21.4832C0.538625 22.2452 0.996096 22.9146 1.63314 23.3788C2.27019 23.843 3.0477 24.0737 3.83484 24.0321C7.0567 24.0378 10.2785 24.0355 13.5004 24.0253C13.8539 24.0253 13.9753 24.0899 13.9617 24.4714C13.9303 25.4145 13.9552 26.3584 13.9509 27.3024C13.9278 27.8733 14.0461 28.441 14.2957 28.955C14.5968 29.5732 15.0749 30.0879 15.6693 30.4336C16.2638 30.7793 16.9479 30.9404 17.6341 30.8964C22.4185 30.8854 27.2029 30.8964 31.9873 30.8964C36.7232 30.8964 41.4586 30.8964 46.194 30.8964C46.5842 30.9153 46.9753 30.8833 47.3572 30.8012C48.1491 30.6157 48.8493 30.1553 49.3337 29.5018C49.818 28.8484 50.0548 28.0444 50.002 27.2327C50.0048 21.7157 50.0048 16.1989 50.002 10.6825C50.0542 10.1679 49.9916 9.64817 49.8182 9.16088C49.6449 8.67359 49.3651 8.23092 48.9997 7.86491C48.6343 7.49891 48.1923 7.21873 47.7053 7.04462C47.2183 6.87051 46.6986 6.80681 46.184 6.85819ZM14.3069 8.78265C14.0446 9.32631 13.9209 9.92648 13.9472 10.5295C13.9472 12.5959 13.9389 14.663 13.9584 16.7319C13.9584 17.1075 13.8532 17.1992 13.4938 17.1874C13.0808 17.1738 12.5261 16.9945 12.2873 17.2723C12.0834 17.5102 12.2463 18.0481 12.2097 18.4491C12.18 18.7889 12.2769 18.9062 12.6346 18.885C13.0517 18.8595 13.6142 18.7405 13.8564 18.9538C14.1401 19.2036 13.9353 19.7788 13.948 20.2112C13.9642 20.7966 13.9432 21.3829 13.9559 21.9683C13.961 22.2045 13.9184 22.3184 13.6423 22.3175C10.3066 22.3082 6.971 22.3235 3.63529 22.2997C3.39743 22.3071 3.16061 22.2632 2.94122 22.171C2.72182 22.0788 2.52492 21.9405 2.36372 21.7654C2.20252 21.5903 2.08075 21.3826 2.00694 21.1564C1.93312 20.9302 1.90906 20.6907 1.936 20.4542C1.9275 17.6878 1.936 14.9213 1.936 12.1557C1.936 9.35701 1.936 6.55829 1.936 3.75955C1.936 2.34574 2.57478 1.70933 3.99539 1.70933C8.74662 1.70933 13.4977 1.70933 18.249 1.70933H32.4059C33.9352 1.70933 34.5607 2.33808 34.5607 3.87424C34.5607 4.70434 34.5362 5.53529 34.5711 6.36369C34.588 6.77068 34.4748 6.87349 34.0686 6.87349C28.6009 6.85933 23.1337 6.85593 17.6665 6.8633C16.9795 6.81533 16.2934 6.97207 15.6955 7.31369C15.0975 7.65531 14.6144 8.16648 14.3069 8.78265ZM48.2749 27.1197C48.2749 28.5641 47.6427 29.1929 46.189 29.1929H17.7275C16.3009 29.1929 15.6494 28.5344 15.6494 27.0976C15.6494 21.614 15.6494 16.1307 15.6494 10.6476C15.6494 9.22787 16.2867 8.58978 17.7013 8.58893C22.4526 8.58893 27.2037 8.58893 31.9549 8.58893H46.2085C47.6614 8.58893 48.2724 9.20408 48.2724 10.6697C48.2741 16.1528 48.2755 21.6361 48.2749 27.1197Z" fill="#04E2AF"/>
<path d="M21.6951 24.0355C22.4411 24.0355 23.1869 24.0431 23.9338 24.0312C24.1572 24.0312 24.2527 24.0771 24.2399 24.3227C24.2192 24.6954 24.2192 25.069 24.2399 25.4417C24.2535 25.7093 24.1436 25.7645 23.8997 25.7628C22.4072 25.7538 20.9146 25.7538 19.4221 25.7628C19.1714 25.7628 19.0942 25.6915 19.0823 25.434C19.022 24.0355 19.0138 24.0364 20.38 24.0364L21.6951 24.0355Z" fill="#04E2AF"/>
<path d="M28.5347 24.0385C29.2815 24.0385 30.0291 24.0512 30.776 24.0317C31.0598 24.024 31.1211 24.1226 31.1253 24.3902C31.1508 25.7598 31.1584 25.7598 29.782 25.7598C28.629 25.7598 27.476 25.7531 26.323 25.7649C26.0579 25.7649 25.9409 25.7089 25.9612 25.4183C25.9857 25.0616 25.9857 24.7036 25.9612 24.3469C25.9426 24.0741 26.0535 24.0283 26.294 24.0325C27.04 24.047 27.7878 24.0385 28.5347 24.0385Z" fill="#04E2AF"/>
<path d="M35.4479 24.0376C36.1777 24.0376 36.9083 24.0495 37.6373 24.0316C37.9109 24.0248 38.0139 24.1013 37.985 24.38C37.9391 24.8252 38.177 25.4217 37.8873 25.6782C37.6375 25.9 37.0553 25.7556 36.6203 25.7581C35.4851 25.7632 34.3502 25.7487 33.215 25.7666C32.8947 25.7717 32.7792 25.6816 32.8157 25.3571C32.8642 24.9322 32.6322 24.3519 32.9134 24.1064C33.1547 23.8948 33.7155 24.0427 34.1352 24.0393C34.5728 24.0325 35.0103 24.0376 35.4479 24.0376Z" fill="#04E2AF"/>
<path d="M42.2651 25.7586C41.5191 25.7586 40.7731 25.7501 40.0271 25.7637C39.7722 25.7679 39.7001 25.6898 39.6873 25.434C39.6279 24.0363 39.6203 24.0372 40.9857 24.0372C42.1539 24.0372 43.3212 24.0448 44.4894 24.0312C44.7554 24.0312 44.8658 24.0873 44.8437 24.3711C44.8177 24.7105 44.8177 25.0513 44.8437 25.3907C44.8692 25.7068 44.7401 25.7688 44.4537 25.7611C43.7256 25.7467 42.995 25.7586 42.2651 25.7586Z" fill="#04E2AF"/>
<path d="M7.86005 18.8709C7.14464 18.8709 6.42932 18.8599 5.71477 18.876C5.45138 18.882 5.33426 18.8276 5.3555 18.5362C5.38778 18.1011 5.21766 17.5336 5.43432 17.2617C5.66203 16.9787 6.25269 17.1767 6.68431 17.1767C7.82199 17.1631 8.96059 17.1767 10.0974 17.1665C10.3931 17.1665 10.5579 17.2065 10.5222 17.5582C10.4764 17.9745 10.692 18.5166 10.443 18.7825C10.1941 19.0485 9.64628 18.8539 9.22911 18.8675C8.77115 18.8853 8.31716 18.8709 7.86005 18.8709Z" fill="#04E2AF"/>
<path d="M24.2405 16.7168C24.2158 16.0022 24.233 15.286 24.233 14.5697C24.233 13.8382 24.2218 13.1058 24.2388 12.3743C24.2448 12.1092 24.1862 12.0123 23.899 12.0157C22.419 12.0304 20.9388 12.0304 19.4587 12.0157C19.1503 12.0157 19.0807 12.1058 19.0841 12.3997C19.0985 13.8637 19.1011 15.3276 19.0841 16.7916C19.0799 17.1314 19.2048 17.1884 19.5089 17.1858C20.9406 17.1714 22.3724 17.1637 23.8024 17.1901C24.1898 17.196 24.2549 17.0609 24.2405 16.7168ZM21.6745 15.4491C20.8036 15.4491 20.8037 15.4491 20.8037 14.5697C20.8037 13.7303 20.8039 13.7303 21.6289 13.7303H21.6774C22.5322 13.7303 22.5321 13.7303 22.5321 14.5961C22.5321 15.4491 22.5318 15.4491 21.6745 15.4491Z" fill="#04E2AF"/>
<path d="M10.5186 5.50231C10.5186 5.21598 10.4208 5.14463 10.1523 5.14972C9.42163 5.16417 8.6892 5.15481 7.95851 5.15481C7.21082 5.15481 6.46341 5.16586 5.71657 5.14887C5.45403 5.14292 5.35101 5.19559 5.35356 5.48872C5.36886 6.98325 5.36631 8.47862 5.35356 9.974C5.35356 10.2289 5.42181 10.302 5.6784 10.2994C7.17321 10.2875 8.66815 10.2875 10.1635 10.2994C10.4456 10.2994 10.5187 10.2145 10.517 9.93832C10.5062 8.45994 10.5068 6.98126 10.5186 5.50231ZM7.90167 8.59249C7.06307 8.59249 7.06323 8.59249 7.06323 7.75643C7.06323 6.86176 7.06306 6.86175 7.93735 6.86175C8.787 6.86175 8.787 6.86174 8.787 7.71819C8.7887 8.59248 8.7887 8.59249 7.90167 8.59249Z" fill="#04E2AF"/>
</g>
<defs>
<clipPath id="clip0_1112_4151">
<rect width="50" height="47.9651" fill="white"/>
</clipPath>
</defs>
</svg>
