<svg width="50" height="52" viewBox="0 0 50 52" fill="none" xmlns="http://www.w3.org/2000/svg">
<g clip-path="url(#clip0_1112_4121)">
<path d="M41.4293 25.5867C44.0122 23.7167 45.8888 21.0301 46.7558 17.9613C47.6228 14.8925 47.4293 11.6211 46.2066 8.6759C45.0557 5.94107 43.0749 3.63684 40.5438 2.08856C38.0126 0.540293 35.0591 -0.173784 32.1002 0.0471263C28.9515 0.302909 25.9785 1.60288 23.6527 3.74079C21.327 5.8787 19.7819 8.73207 19.2625 11.8481C17.559 10.9879 15.69 10.5046 13.7831 10.431C11.8761 10.3575 9.9756 10.6954 8.21087 11.4218C6.44613 12.1483 4.85846 13.2462 3.5559 14.6409C2.25333 16.0357 1.26639 17.6946 0.662125 19.5048C-0.431302 22.8338 -0.158408 26.4607 1.42084 29.5886C3.00008 32.7165 5.7566 35.0895 9.08452 36.1862C10.8531 36.7748 12.7262 36.9823 14.5808 36.7951C16.4353 36.608 18.2291 36.0304 19.8445 35.1003C21.4598 34.1703 22.86 32.9088 23.9529 31.3988C25.0459 29.8889 25.8069 28.1647 26.1857 26.3397C27.008 26.7939 27.864 27.1842 28.7461 27.5072C26.4074 29.3147 24.739 31.8513 24.0056 34.7146C23.2723 37.5779 23.5159 40.6042 24.6978 43.3134C25.8431 45.9107 27.7927 48.0711 30.2594 49.4759C32.726 50.8806 35.5789 51.4554 38.3971 51.1153C41.1324 50.7666 43.692 49.5771 45.722 47.7109C47.752 45.8447 49.152 43.3941 49.729 40.6977C50.358 37.6041 49.8692 34.3877 48.3494 31.6207C46.8296 28.8537 44.3775 26.7155 41.4293 25.5867ZM24.5855 25.7423C24.0593 28.5731 22.496 31.1058 20.2015 32.8452C17.907 34.5846 15.0462 35.4057 12.1785 35.1477C9.62673 34.9219 7.22267 33.8536 5.3449 32.1111C3.46712 30.3685 2.22248 28.0508 1.80694 25.523C1.3238 22.5398 2.02661 19.486 3.76544 17.0143C5.50427 14.5426 8.14112 12.8492 11.1121 12.296C11.8042 12.1633 12.5072 12.0967 13.2119 12.0972C15.1592 12.0972 17.0751 12.5876 18.783 13.5231C18.8915 13.5667 18.983 13.644 19.0442 13.7436C19.1054 13.8432 19.1332 13.9598 19.1231 14.0763C19.1005 16.1881 19.5608 18.2772 20.4687 20.184C21.3767 22.0908 22.7084 23.7649 24.3621 25.0786C24.4632 25.1527 24.5389 25.2562 24.5789 25.375C24.6189 25.4938 24.6212 25.6221 24.5855 25.7423ZM20.7675 14.129C20.7666 12.4286 21.114 10.746 21.7886 9.18508C22.4633 7.62418 23.4506 6.21811 24.6897 5.0536C25.9288 3.88909 27.3935 2.99085 28.9932 2.41434C30.5929 1.83784 32.2938 1.59528 33.9909 1.70164C37.2616 1.91068 40.3174 3.40308 42.4932 5.85401C44.6689 8.30495 45.7886 11.516 45.6085 14.7884C45.5234 16.8346 44.9236 18.8262 43.8645 20.5789C42.8054 22.3317 41.3212 23.789 39.5494 24.816C39.355 24.9562 39.1131 25.0139 38.8764 24.9766C36.249 24.5354 33.5496 24.9171 31.1475 26.0694C30.8296 26.2328 30.4618 26.2698 30.1177 26.1731C27.442 25.4906 25.0699 23.936 23.3766 21.7548C21.6833 19.5736 20.7653 16.8903 20.7675 14.129ZM36.8973 49.5653C35.3732 49.5786 33.8615 49.2907 32.449 48.718C31.0365 48.1454 29.7511 47.2993 28.6666 46.2284C27.5821 45.1575 26.7199 43.8828 26.1295 42.4777C25.5391 41.0725 25.2321 39.5646 25.2262 38.0404C25.2263 34.981 26.4363 32.0458 28.5922 29.875C30.748 27.7042 33.6747 26.474 36.734 26.4527C38.2576 26.4464 39.7674 26.7414 41.1766 27.3208C42.5857 27.9002 43.8663 28.7525 44.9448 29.8286C46.0233 30.9048 46.8785 32.1835 47.461 33.5914C48.0435 34.9992 48.3417 36.5083 48.3388 38.0319C48.3318 41.0724 47.127 43.9877 44.9853 46.146C42.8436 48.3042 39.9377 49.5315 36.8973 49.5619V49.5653Z" fill="#04E2AF"/>
<path d="M47.2893 38.3531C47.2286 40.022 46.7735 41.6529 45.9611 43.112C45.9193 43.2251 45.8537 43.3279 45.7687 43.4135C45.6838 43.4991 45.5815 43.5654 45.4687 43.608C45.356 43.6507 45.2353 43.6686 45.115 43.6605C44.9947 43.6525 44.8774 43.6187 44.7712 43.5615C44.6663 43.5007 44.5756 43.4181 44.5053 43.3193C44.4349 43.2205 44.3865 43.1078 44.3634 42.9887C44.3402 42.8696 44.3427 42.747 44.3708 42.629C44.399 42.511 44.4522 42.4004 44.5266 42.3047C45.2303 41.0215 45.6121 39.5869 45.6397 38.1237C45.6533 37.5144 45.9695 37.1685 46.4845 37.1719C46.9995 37.1753 47.2893 37.5306 47.2885 38.1484C47.2893 38.2155 47.2893 38.2843 47.2893 38.3531Z" fill="#04E2AF"/>
<path d="M31.993 47.2158C31.7856 47.2162 31.5832 47.1523 31.4135 47.033C29.9056 46.1323 28.647 44.8685 27.7526 43.3569C27.6791 43.2665 27.6258 43.1616 27.5959 43.0491C27.5661 42.9366 27.5604 42.819 27.5793 42.7041C27.5983 42.5892 27.6414 42.4798 27.7059 42.3828C27.7703 42.2858 27.8546 42.2036 27.9532 42.1417C28.0504 42.0776 28.1603 42.0352 28.2754 42.0174C28.3904 41.9996 28.5079 42.0067 28.62 42.0383C28.732 42.0699 28.836 42.1252 28.9248 42.2005C29.0135 42.2758 29.0849 42.3694 29.1343 42.4748C29.921 43.7901 31.0241 44.8879 32.3432 45.6683C32.5144 45.7543 32.649 45.8988 32.7225 46.0757C32.7959 46.2526 32.8033 46.45 32.7434 46.632C32.7049 46.8009 32.6092 46.9513 32.4725 47.0577C32.3357 47.1641 32.1662 47.2199 31.993 47.2158Z" fill="#04E2AF"/>
<path d="M37.1745 48.5042C37.0121 48.517 36.8489 48.5156 36.6868 48.4999C36.4881 48.4742 36.306 48.376 36.1754 48.2242C36.0447 48.0723 35.9747 47.8776 35.9789 47.6773C35.9756 47.5736 35.9931 47.4703 36.0306 47.3735C36.068 47.2768 36.1245 47.1885 36.1968 47.1139C36.269 47.0394 36.3553 46.9802 36.4509 46.9397C36.5465 46.8993 36.6492 46.8785 36.753 46.8785C38.3341 46.8484 39.8836 46.4296 41.2646 45.6591C41.361 45.6022 41.468 45.566 41.5791 45.5526C41.6902 45.5393 41.8029 45.5492 41.91 45.5816C42.0171 45.614 42.1163 45.6683 42.2013 45.741C42.2863 45.8138 42.3555 45.9033 42.4042 46.0041C42.4983 46.2089 42.5071 46.4426 42.4289 46.6539C42.3507 46.8652 42.1915 47.0368 41.9868 47.131C40.5178 47.9722 38.8663 48.4435 37.1745 48.5042Z" fill="#04E2AF"/>
<path d="M36.4349 27.5184C36.5884 27.5027 36.7432 27.5044 36.8963 27.5235C37.096 27.5495 37.2782 27.6514 37.4048 27.8081C37.5314 27.9647 37.5927 28.1641 37.5762 28.3648C37.5807 28.4651 37.5647 28.5652 37.5293 28.6591C37.4938 28.753 37.4396 28.8387 37.3699 28.911C37.3003 28.9833 37.2166 29.0406 37.1241 29.0795C37.0316 29.1184 36.9321 29.1381 36.8318 29.1373C35.2469 29.1703 33.694 29.5901 32.3083 30.3601C32.2149 30.4149 32.1111 30.4498 32.0036 30.4626C31.896 30.4754 31.7869 30.4659 31.6832 30.4346C31.5795 30.4033 31.4834 30.351 31.4009 30.2809C31.3183 30.2107 31.2512 30.1243 31.2036 30.027C31.1489 29.9289 31.1154 29.8205 31.105 29.7086C31.0947 29.5968 31.1076 29.484 31.1434 29.3775C31.1792 29.271 31.2369 29.1732 31.3127 29.0903C31.3885 29.0073 31.4806 28.9412 31.5834 28.896C33.0636 28.0469 34.7294 27.5738 36.4349 27.5184Z" fill="#04E2AF"/>
<path d="M45.9668 33.0599C45.9824 33.2269 45.9457 33.3946 45.8618 33.5398C45.778 33.6851 45.651 33.8006 45.4986 33.8705C45.3536 33.9491 45.1869 33.9777 45.0241 33.9519C44.8612 33.9261 44.7115 33.8474 44.5979 33.7278C44.4814 33.6025 44.38 33.4639 44.2961 33.3148C43.5746 32.1612 42.5975 31.1892 41.4401 30.4739C41.3363 30.414 41.2358 30.3486 41.1392 30.2777C40.9651 30.1628 40.8427 29.9845 40.798 29.7807C40.7532 29.577 40.7897 29.3638 40.8996 29.1865C40.9529 29.0927 41.0246 29.0105 41.1104 28.9451C41.1962 28.8797 41.2944 28.8323 41.399 28.8058C41.5036 28.7793 41.6125 28.7742 41.7191 28.7908C41.8258 28.8075 41.928 28.8455 42.0195 28.9027C43.6092 29.8046 44.9312 31.1122 45.8504 32.6919C45.9201 32.8026 45.9601 32.9293 45.9668 33.0599Z" fill="#04E2AF"/>
<path d="M26.3245 37.4428C26.3918 35.8632 26.8264 34.321 27.594 32.9389C27.8855 32.4044 28.3326 32.2284 28.7753 32.4579C28.8812 32.5148 28.9737 32.5938 29.0465 32.6894C29.1193 32.785 29.1709 32.8951 29.1977 33.0123C29.2245 33.1294 29.2259 33.251 29.2019 33.3688C29.1779 33.4866 29.1289 33.5978 29.0583 33.6952C28.3611 34.9602 27.98 36.3751 27.9475 37.8192C27.9638 37.982 27.9392 38.1463 27.876 38.2972C27.8128 38.4481 27.7129 38.5809 27.5855 38.6835C27.4785 38.7628 27.3533 38.814 27.2214 38.8323C27.0895 38.8507 26.9551 38.8356 26.8305 38.7885C26.7059 38.7414 26.5951 38.6637 26.5083 38.5627C26.4216 38.4616 26.3616 38.3404 26.3338 38.2101C26.3063 37.9552 26.3032 37.6983 26.3245 37.4428Z" fill="#04E2AF"/>
<path d="M37.0703 12.2856C36.0461 9.45296 35.0203 6.62032 33.9932 3.78769C33.946 3.61159 33.8394 3.4573 33.6913 3.35102C33.5432 3.24474 33.3626 3.19305 33.1807 3.20475C32.999 3.20559 32.8228 3.2673 32.6803 3.38006C32.5378 3.49283 32.4374 3.65014 32.3948 3.8268C31.3779 6.64357 30.3581 9.45948 29.3355 12.2746C29.2443 12.4722 29.233 12.6974 29.3038 12.9032C29.3745 13.109 29.5219 13.2795 29.7154 13.3793C30.7085 14.0217 31.6999 14.665 32.6896 15.3091C32.8351 15.4181 33.0117 15.4775 33.1934 15.4787C33.3751 15.48 33.5523 15.4229 33.6992 15.316C34.7053 14.6628 35.7123 14.0112 36.7201 13.3614C36.8466 13.2812 36.9517 13.1711 37.0257 13.0409C37.0998 12.9107 37.1407 12.7642 37.145 12.6145C37.1264 12.5035 37.1015 12.3937 37.0703 12.2856ZM35.1276 12.4309C35.0689 12.4639 35.0122 12.5002 34.9577 12.5397C34.3628 12.9 33.79 13.6274 33.1884 13.5688C32.5366 13.5051 31.946 12.8431 31.3189 12.4564C31.2801 12.4425 31.2449 12.4201 31.2158 12.3909C31.1867 12.3617 31.1644 12.3263 31.1506 12.2874C31.1369 12.2485 31.1318 12.2071 31.1361 12.166C31.1404 12.125 31.1539 12.0855 31.1753 12.0502C31.8467 10.2223 32.5026 8.38929 33.2054 6.44157C33.9107 8.39609 34.5652 10.2291 35.2357 12.0596C35.296 12.2253 35.3146 12.3451 35.1276 12.43V12.4309Z" fill="#04E2AF"/>
<path d="M36.7452 14.9294C36.5691 14.8173 36.3576 14.7745 36.1518 14.8094C35.946 14.8442 35.7605 14.9542 35.6311 15.118C34.9181 15.7638 34.1866 16.3851 33.4838 17.0437C33.2501 17.2638 33.1251 17.2315 32.9101 17.0335C32.2031 16.3817 31.4715 15.7588 30.7585 15.1121C30.6282 14.9489 30.4417 14.8402 30.2355 14.8073C30.0292 14.7745 29.8181 14.8198 29.6436 14.9344C29.4598 15.0521 29.3282 15.2361 29.2763 15.4481C29.2244 15.6601 29.2561 15.8839 29.3647 16.0732C29.5721 16.6171 29.7643 17.166 29.9597 17.7133C30.7529 19.9023 31.5437 22.0919 32.3323 24.2821C32.4811 24.6968 32.6799 25.0325 33.2357 25.0589C33.4243 25.0478 33.6039 24.9754 33.7475 24.8527C33.8911 24.7299 33.9908 24.5636 34.0311 24.379C35.0254 21.6076 36.024 18.8381 37.0274 16.0706C37.134 15.8801 37.1642 15.6562 37.1118 15.4442C37.0594 15.2323 36.9283 15.0482 36.7452 14.9294ZM33.2033 21.8059L31.9983 18.484C33.2093 19.3279 33.2093 19.3279 34.405 18.4917L33.2033 21.8059Z" fill="#04E2AF"/>
<path d="M38.7452 38.2239C38.2695 38.0509 37.877 37.704 37.6469 37.2532C37.4168 36.8023 37.3663 36.281 37.5054 35.7943C37.5127 35.657 37.5127 35.5195 37.5054 35.3822C37.5122 35.1604 37.4093 34.8919 37.8274 34.908C38.1741 34.9208 38.4002 34.993 38.401 35.3847C38.401 35.7977 38.4009 36.2099 38.4077 36.6229C38.3964 36.7343 38.4083 36.8467 38.4425 36.9533C38.4768 37.0599 38.5328 37.1582 38.6068 37.2421C38.6809 37.3261 38.7714 37.3938 38.8728 37.4411C38.9743 37.4883 39.0846 37.5141 39.1965 37.5168C39.313 37.5226 39.4294 37.5033 39.538 37.4604C39.6465 37.4175 39.7446 37.3518 39.8257 37.2679C39.9068 37.184 39.9691 37.0837 40.0083 36.9738C40.0475 36.8639 40.0626 36.7468 40.0529 36.6305C40.0665 36.2014 40.0605 35.7705 40.0529 35.3414C40.064 35.0653 40.0174 34.7899 39.9162 34.5329C39.8149 34.2758 39.6613 34.0426 39.4649 33.8483C39.2686 33.6539 39.0338 33.5026 38.7757 33.404C38.5176 33.3054 38.2419 33.2616 37.966 33.2756C37.6482 33.2756 37.4696 33.2603 37.4815 32.8507C37.4852 32.7471 37.4681 32.6439 37.4315 32.5469C37.3949 32.45 37.3394 32.3612 37.2683 32.2859C37.1971 32.2105 37.1117 32.1501 37.017 32.108C36.9223 32.066 36.8202 32.0431 36.7166 32.0408C36.6083 32.0336 36.4998 32.0487 36.3975 32.0849C36.2952 32.1212 36.2014 32.1781 36.1218 32.2519C36.0422 32.3257 35.9785 32.415 35.9347 32.5144C35.8908 32.6137 35.8677 32.7208 35.8668 32.8294C35.877 33.2543 35.7062 33.2807 35.362 33.2841C34.8671 33.2679 34.3846 33.4407 34.0125 33.7674C33.6403 34.0941 33.4064 34.5503 33.3583 35.0431C33.2732 35.6112 33.3691 36.1916 33.6324 36.7021C33.8956 37.2126 34.313 37.6273 34.8251 37.8874C35.6825 38.3123 36.1236 38.8111 35.8865 39.7765C35.8865 40.0688 35.8865 40.3611 35.8865 40.6534C35.8908 40.8999 35.9323 41.1327 35.538 41.1064C35.2151 41.0843 35.0034 41.0214 35.0077 40.6475C35.0136 40.2175 35.0221 39.7867 34.9992 39.3584C34.995 39.1408 34.9064 38.9334 34.7519 38.7802C34.5974 38.6269 34.3892 38.5399 34.1716 38.5375C33.954 38.5404 33.7465 38.6294 33.5944 38.785C33.4423 38.9406 33.3579 39.1501 33.36 39.3677C33.3438 39.7799 33.3557 40.1929 33.36 40.605C33.334 40.8893 33.3704 41.1757 33.4666 41.4445C33.5628 41.7132 33.7164 41.9578 33.9168 42.161C34.1172 42.3643 34.3596 42.5213 34.627 42.6213C34.8943 42.7212 35.1804 42.7616 35.4649 42.7397C35.7751 42.7397 35.9197 42.7754 35.9214 43.1433C35.9161 43.2513 35.933 43.3591 35.9712 43.4602C36.0094 43.5613 36.068 43.6534 36.1434 43.7309C36.2187 43.8084 36.309 43.8695 36.4089 43.9105C36.5089 43.9515 36.6162 43.9715 36.7243 43.9693C36.8284 43.9715 36.9318 43.9529 37.0286 43.9147C37.1255 43.8766 37.214 43.8195 37.2886 43.747C37.3632 43.6744 37.4226 43.5877 37.4635 43.492C37.5043 43.3962 37.5258 43.2933 37.5266 43.1892C37.5164 42.7091 37.7578 42.738 38.09 42.732C38.5768 42.74 39.0488 42.5652 39.4131 42.2423C39.7774 41.9193 40.0076 41.4716 40.0581 40.9874C40.157 40.4473 40.0834 39.8897 39.8477 39.3936C39.6121 38.8976 39.2265 38.4884 38.7452 38.2239ZM35.8558 36.6093C35.6263 36.5165 35.4258 36.3639 35.2753 36.1674C35.1248 35.9709 35.0299 35.7376 35.0002 35.4918C34.9526 35.0669 35.1258 34.8969 35.5558 34.9182C35.7674 34.9301 35.8661 34.97 35.8593 35.2037C35.8457 35.6482 35.855 36.0901 35.855 36.6127L35.8558 36.6093ZM38.2726 41.0282C38.1833 41.0802 38.0835 41.1114 37.9805 41.1195C37.8775 41.1276 37.7741 41.1123 37.6778 41.0749C37.4152 40.995 37.5732 40.7257 37.5376 40.5421C37.5277 40.4401 37.5277 40.3374 37.5376 40.2353H37.5334C37.5268 40.1505 37.5268 40.0653 37.5334 39.9804C37.5614 39.8037 37.422 39.5376 37.6073 39.4705C37.7925 39.4034 37.9524 39.6405 38.0909 39.7824C38.256 39.958 38.3639 40.1797 38.4002 40.418C38.4342 40.6279 38.491 40.8727 38.2718 41.0291L38.2726 41.0282Z" fill="#04E2AF"/>
<path d="M16.8357 23.5882C16.5059 23.4829 16.4745 23.4353 16.6589 23.1395C17.009 22.6069 17.2294 21.9997 17.3025 21.3666C17.3755 20.7334 17.299 20.0919 17.0794 19.4935C16.8598 18.8952 16.5031 18.3567 16.0377 17.9211C15.5724 17.4855 15.0115 17.1651 14.4 16.9854C14.0983 16.8911 14.0321 16.7661 14.0448 16.4874C14.0635 16.0625 14.0652 15.6274 14.0448 15.1991C14.051 15.0867 14.0338 14.9743 13.9942 14.869C13.9545 14.7636 13.8935 14.6677 13.8147 14.5873C13.736 14.5069 13.6414 14.4437 13.5369 14.4019C13.4324 14.36 13.3204 14.3404 13.2079 14.3442C13.0959 14.343 12.9848 14.3654 12.8819 14.4098C12.7791 14.4542 12.6869 14.5197 12.611 14.602C12.5351 14.6843 12.4772 14.7817 12.4413 14.8878C12.4053 14.9939 12.392 15.1063 12.4023 15.2178C12.3912 15.647 12.4023 16.0769 12.4023 16.5069C12.4023 16.6463 12.4091 16.7619 12.2153 16.8086C11.6205 16.9463 11.4113 16.7959 11.407 16.1976C11.407 16.0948 11.4072 15.9911 11.4012 15.8883C11.4035 15.6869 11.3261 15.4927 11.1861 15.348C11.0461 15.2032 10.8547 15.1194 10.6533 15.115C10.4534 15.09 10.2515 15.1436 10.0905 15.2646C9.92936 15.3856 9.82176 15.5644 9.79004 15.7634C9.74889 15.913 9.73917 16.0696 9.76182 16.2231C9.8468 16.7423 9.61917 16.8808 9.13734 16.8248C8.81209 16.7936 8.48429 16.7979 8.15996 16.8375C7.97656 16.8477 7.80388 16.9267 7.67614 17.0587C7.5484 17.1907 7.47516 17.366 7.47095 17.5496C7.43781 17.739 7.47909 17.934 7.58631 18.0936C7.69352 18.2532 7.85838 18.3653 8.04626 18.4062C8.2444 18.4627 8.45144 18.4811 8.65643 18.4606C9.02949 18.4207 9.11005 18.5728 9.1058 18.9229C9.08796 20.5213 9.09813 22.1198 9.09813 23.7183V28.1525C9.09813 29.0227 9.09815 29.0227 8.20332 29.0244C8.09964 29.0244 7.99681 29.0244 7.89398 29.0244C7.67684 29.0191 7.46662 29.1003 7.30934 29.2501C7.15205 29.3999 7.06074 29.606 7.05539 29.8232C7.05071 29.936 7.06932 30.0486 7.11037 30.1538C7.15142 30.2591 7.21391 30.3546 7.29378 30.4345C7.37364 30.5144 7.46926 30.5767 7.57448 30.6178C7.6797 30.6588 7.79234 30.6777 7.90518 30.673C8.28249 30.6891 8.66064 30.673 9.03879 30.673C9.71863 30.673 9.72362 30.673 9.76016 31.346C9.74431 31.5455 9.80135 31.744 9.92074 31.9047C10.0401 32.0653 10.2139 32.1772 10.4095 32.2195C10.5944 32.2732 10.7928 32.2551 10.9649 32.169C11.1371 32.0828 11.2705 31.9349 11.3384 31.7547C11.4104 31.5614 11.4328 31.3531 11.4037 31.1489C11.3621 30.7707 11.4776 30.6551 11.8745 30.6551C12.2883 30.6551 12.4694 30.7358 12.4124 31.1845C12.3871 31.4757 12.3853 31.7684 12.4073 32.0598C12.3953 32.1711 12.4068 32.2837 12.4407 32.3904C12.4745 32.4971 12.53 32.5957 12.6039 32.6798C12.6778 32.7639 12.7684 32.8317 12.8699 32.879C12.9714 32.9264 13.0814 32.9521 13.1933 32.9547C13.31 32.9599 13.4265 32.9403 13.535 32.8972C13.6436 32.8541 13.7416 32.7885 13.8228 32.7046C13.904 32.6207 13.9666 32.5206 14.0062 32.4107C14.0458 32.3009 14.0615 32.1839 14.0525 32.0675C14.0686 31.7072 14.0703 31.3452 14.0525 30.9849C14.0389 30.7393 14.1155 30.656 14.367 30.6653C14.8471 30.6831 15.3289 30.6806 15.8116 30.6653C16.6691 30.6426 17.4913 30.319 18.1342 29.7512C18.7771 29.1833 19.1996 28.4074 19.328 27.5593C19.4497 26.7095 19.2661 25.8441 18.8097 25.1169C18.3533 24.3898 17.6539 23.8481 16.8357 23.5882ZM11.0834 18.4623C11.906 18.4844 12.7303 18.4623 13.5521 18.4946C14.1459 18.5584 14.695 18.8395 15.094 19.284C15.4929 19.7285 15.7135 20.3048 15.7131 20.902C15.7176 21.5173 15.489 22.1115 15.0732 22.5651C14.6575 23.0186 14.0855 23.298 13.4722 23.3469C12.6674 23.3834 11.8574 23.3469 11.0535 23.3579C10.7986 23.363 10.7383 23.273 10.7425 23.0359C10.7578 22.3323 10.7477 21.6286 10.7477 20.9258C10.7477 20.2222 10.7587 19.5186 10.7417 18.8158C10.734 18.5507 10.8081 18.4564 11.0834 18.464V18.4623ZM15.7658 29.0218C15.7309 29.0218 15.6969 29.0218 15.662 29.0218H13.4458C12.6725 29.0218 11.8992 29.0116 11.1268 29.0277C10.8531 29.0337 10.7374 28.981 10.7417 28.67C10.7604 27.5534 10.7561 26.4359 10.7417 25.3192C10.7417 25.0754 10.8047 24.9946 11.057 24.9997C12.6368 25.0337 14.2181 25.0303 15.7979 25.0847C16.3017 25.1106 16.7759 25.3313 17.1201 25.7001C17.4643 26.0688 17.6517 26.557 17.6429 27.0614C17.6357 27.5654 17.4382 28.048 17.09 28.4126C16.7419 28.7771 16.2689 28.9965 15.7658 29.0269V29.0218Z" fill="#04E2AF"/>
</g>
<defs>
<clipPath id="clip0_1112_4121">
<rect width="50" height="51.2135" fill="white"/>
</clipPath>
</defs>
</svg>
