<svg width="50" height="50" viewBox="0 0 50 50" fill="none" xmlns="http://www.w3.org/2000/svg">
<g clip-path="url(#clip0_1112_4107)">
<path d="M50 42.1489V20.0996C49.9225 19.5632 49.6422 19.0768 49.2169 18.7408C48.7917 18.4048 48.2537 18.2447 47.7139 18.2934C46.95 18.2856 46.1862 18.2895 45.4224 18.2934C45.1779 18.2758 44.9329 18.3185 44.7087 18.4175C44.5495 18.4844 44.4161 18.6008 44.3283 18.7495C44.2405 18.8982 44.2029 19.0712 44.221 19.2429C44.2326 19.4234 44.3018 19.5953 44.4186 19.7334C44.5353 19.8715 44.6932 19.9685 44.8692 20.0099C45.0437 20.0508 45.2234 20.0652 45.4022 20.0528C46.1177 20.0528 46.8331 20.045 47.5478 20.0567C48.193 20.0676 48.3747 20.2361 48.3817 20.8611C48.3965 21.9986 48.3819 23.1369 48.3904 24.2744C48.3904 24.6645 48.2553 24.8315 47.8512 24.8307C44.5026 24.8245 41.154 24.8245 37.8053 24.8307C37.4028 24.8307 37.2639 24.6677 37.2678 24.2768C37.2803 23.0582 37.2678 21.8386 37.2749 20.6192C37.2749 20.1206 37.3388 20.0614 37.8436 20.0567C38.9492 20.0465 40.0547 20.0567 41.1602 20.0528C41.3879 20.0659 41.6163 20.0476 41.8389 19.9982C42.0219 19.9522 42.1843 19.8465 42.3004 19.6978C42.4166 19.5492 42.4799 19.3661 42.4803 19.1774C42.4724 18.9897 42.4068 18.8089 42.2923 18.6599C42.1777 18.5109 42.02 18.4009 41.8406 18.3449C41.6343 18.2978 41.4222 18.28 41.2109 18.2919C40.0898 18.2919 38.9678 18.2966 37.8459 18.2919C37.3357 18.2919 37.2772 18.2349 37.2756 17.7348C37.2686 15.8623 37.2756 13.9961 37.2701 12.1267C37.2701 11.7827 37.3677 11.6 37.7531 11.5532C37.9335 11.5472 38.1106 11.5044 38.2737 11.4272C38.4369 11.3501 38.5825 11.2403 38.7015 11.1046C38.8206 10.969 38.9106 10.8104 38.9659 10.6386C39.0213 10.4669 39.0407 10.2856 39.0233 10.106C39.0383 9.06569 39.0383 8.02542 39.0233 6.98515C39.0489 6.77265 39.0255 6.55716 38.9551 6.35505C38.8846 6.15293 38.7689 5.96959 38.6168 5.81904C38.4646 5.66848 38.2802 5.5547 38.0773 5.48637C37.8745 5.41804 37.6587 5.39693 37.4465 5.42475C36.6499 5.41226 35.8533 5.41382 35.0567 5.42475C34.6807 5.43021 34.5308 5.27419 34.5379 4.9036C34.5488 4.35121 34.5433 3.79805 34.5379 3.24567C34.6091 2.46086 34.3665 1.67982 33.8632 1.07345C33.3599 0.46707 32.637 0.084761 31.8525 0.0101935H30.9748C30.3352 0.104021 29.7104 0.280502 29.1163 0.535249C28.4921 0.769309 27.868 0.993246 27.2439 1.23745C27.0969 1.30166 26.9364 1.32919 26.7764 1.31764C26.6164 1.30609 26.4618 1.25573 26.3256 1.17107C25.9292 0.941843 25.4792 0.821157 25.0213 0.821157C24.5634 0.821157 24.1137 0.941843 23.7173 1.17107C23.5728 1.2569 23.41 1.30736 23.2423 1.31821C23.0745 1.32906 22.9065 1.30004 22.7522 1.23354C21.5699 0.701935 20.3369 0.291244 19.0719 0.0078125H18.1934C17.5323 0.0570388 16.9085 0.333814 16.4283 0.790967C15.9481 1.24812 15.6411 1.85742 15.5595 2.51537C15.5189 2.73929 15.5001 2.9666 15.5033 3.19414C15.5033 3.73092 15.508 4.26693 15.5033 4.80293C15.4963 5.36311 15.4534 5.40527 14.8839 5.41151C14.0709 5.42087 13.2579 5.39044 12.4457 5.42399C12.2612 5.4152 12.0768 5.44443 11.904 5.5098C11.7312 5.57516 11.5737 5.67526 11.4412 5.80399C11.3086 5.93272 11.2039 6.08726 11.1335 6.25809C11.0632 6.42892 11.0286 6.61242 11.032 6.79715C10.993 7.95029 10.9977 9.10499 11.032 10.2589C11.0366 10.5804 11.1577 10.8893 11.373 11.1281C11.5882 11.3669 11.883 11.5193 12.2023 11.5571C12.7672 11.6546 12.7741 11.6547 12.7756 12.2336C12.7808 13.9891 12.7808 15.7445 12.7756 17.5C12.7756 18.2802 12.7616 18.2911 11.9876 18.2911C8.78881 18.2911 5.58373 18.2857 2.38178 18.2911C2.05959 18.2508 1.73247 18.2846 1.42539 18.3902C1.11831 18.4957 0.839476 18.6701 0.610139 18.9C0.380802 19.1299 0.207148 19.4091 0.102322 19.7164C-0.00250315 20.0237 -0.0356955 20.351 0.00536854 20.6731C0.00536854 29.6938 0.00536854 38.7144 0.00536854 47.7351C0.000396371 48.0111 0.0220886 48.2871 0.0701314 48.559C0.149834 48.8919 0.319787 49.1965 0.561186 49.4393C0.802585 49.6821 1.10603 49.8537 1.43853 49.9353C1.71016 49.9857 1.98632 50.0085 2.26254 50.0032C17.4432 50.0032 32.6241 50.0032 47.8053 50.0032C49.1605 50.0032 49.6878 49.5936 50.0061 48.2976V45.0786C49.7666 44.7509 49.4944 44.4739 49.0404 44.6369C48.5863 44.8 48.5293 45.1682 48.5394 45.588C48.5534 46.1895 48.5394 46.791 48.5394 47.3926C48.5394 48.3632 48.4114 48.4935 47.4603 48.4935H19.2435C19.7054 47.8966 20.1228 47.3513 20.5457 46.8098C24.3021 41.9954 28.0573 37.1795 31.8112 32.362C31.8851 32.2505 31.9871 32.1604 32.107 32.1008C32.2268 32.0413 32.3603 32.0143 32.4938 32.0227C37.6791 32.0331 42.8643 32.0331 48.0495 32.0227C48.4606 32.0227 48.5518 32.1311 48.5495 32.5298C48.5315 35.5726 48.5432 38.6083 48.5354 41.6479C48.5354 42.0685 48.5924 42.4398 49.0371 42.599C49.4818 42.7582 49.7643 42.4843 50.0023 42.1543L50 42.1489ZM37.0705 7.01877C37.3279 7.01877 37.441 7.06003 37.4324 7.35573C37.4105 8.11954 37.416 8.88423 37.4324 9.64805C37.4371 9.89537 37.3763 9.98039 37.1126 9.97805C35.2104 9.96713 33.3083 9.96947 31.4062 9.97805C31.3193 9.98699 31.2318 9.97084 31.1538 9.93157C31.0758 9.89231 31.0107 9.83152 30.9662 9.75643C30.3709 8.86778 29.76 7.98927 29.0984 7.02572H33.4144C34.6315 7.02416 35.8509 7.03047 37.068 7.01877H37.0705ZM27.9608 15.945L28.0442 15.9005C28.4999 16.5642 28.9557 17.2277 29.4119 17.8908C29.9362 18.6507 30.5244 18.6078 30.9403 17.7816C31.1222 17.2137 31.4083 16.6845 31.7837 16.2212C32.2089 15.8654 32.9307 16.0488 33.5182 15.9575C33.5962 15.945 33.6796 15.9372 33.7599 15.9263C34.4972 15.8335 34.7548 15.2982 34.3398 14.6779C33.7156 13.7479 33.0743 12.8312 32.4454 11.9044C32.3194 11.7767 32.2359 11.6132 32.2066 11.4363C33.2778 11.4363 34.3405 11.4363 35.4055 11.4363C35.6169 11.4363 35.6396 11.5533 35.6396 11.7179C35.6357 12.1244 35.6396 12.5309 35.6396 12.9366C35.6396 16.7713 35.6309 20.6052 35.652 24.4399C35.652 24.8862 35.5279 24.9711 35.1097 24.9672C32.8682 24.9462 30.6252 24.9524 28.3837 24.9625C28.0911 24.9625 27.9569 24.9235 27.9593 24.5724C27.9679 21.6958 27.9616 18.8201 27.9616 15.9442L27.9608 15.945ZM27.324 3.20195C27.3106 3.10747 27.3339 3.01147 27.389 2.93357C27.4441 2.85567 27.5271 2.80177 27.6206 2.78299C28.7168 2.38743 29.8051 1.95756 30.8974 1.57136C31.1215 1.48247 31.3642 1.45017 31.6037 1.47736C31.8433 1.50454 32.0723 1.59032 32.2708 1.72717C32.4693 1.86402 32.6311 2.04771 32.7416 2.26194C32.8522 2.47617 32.9083 2.71441 32.9049 2.95547C32.9299 3.71851 32.8987 4.48304 32.9175 5.24608C32.9237 5.51525 32.8245 5.56913 32.5803 5.56523C31.7681 5.55274 30.9551 5.56056 30.1429 5.56056C29.3308 5.56056 28.5178 5.54802 27.7056 5.56675C27.4192 5.57377 27.3053 5.51686 27.3155 5.19932C27.3475 4.53458 27.339 3.87138 27.325 3.20119L27.324 3.20195ZM24.1869 3.09119C24.2134 2.60512 24.4271 2.45063 25.0162 2.44985C25.6053 2.44907 25.8433 2.60046 25.8581 3.07405C25.8815 3.81836 25.8581 4.56422 25.869 5.30932C25.869 5.49813 25.8035 5.58157 25.6139 5.55894C25.5978 5.55751 25.5816 5.55751 25.5655 5.55894C24.1815 5.63696 24.1815 5.63702 24.1838 4.15463C24.1838 3.80354 24.1683 3.44618 24.1878 3.09119H24.1869ZM27.1799 7.02182C27.3468 7.02182 27.3967 7.13653 27.4677 7.2403C29.0733 9.5809 30.6805 11.9184 32.2893 14.2528C32.5101 14.5711 32.3885 14.6491 32.0881 14.621C31.6763 14.5462 31.2515 14.637 30.9062 14.8735C30.5609 15.11 30.3229 15.4731 30.2437 15.8841C30.1911 16.0082 30.1278 16.1275 30.0547 16.2407L23.7352 7.02496C24.9305 7.02496 26.0548 7.02806 27.1799 7.02182ZM23.5495 22.7773C23.5448 22.2093 23.2718 21.8715 22.8232 21.8636C22.3746 21.8558 22.0921 22.1968 22.0882 22.757C22.0843 23.3585 22.0758 23.96 22.0922 24.5607C22.1 24.8354 22.0577 24.9641 21.7301 24.9618C19.4061 24.9472 17.0821 24.9472 14.7582 24.9618C14.4695 24.9618 14.4086 24.8604 14.4094 24.5944C14.4161 20.3204 14.4161 16.0464 14.4094 11.7725C14.4094 11.5275 14.4671 11.4284 14.734 11.4315C15.7701 11.4455 16.807 11.437 17.9437 11.437C17.1854 12.5293 16.4833 13.5436 15.785 14.5578C15.2654 15.3115 15.4908 15.828 16.3881 15.9325C16.9046 15.9926 17.4211 16.062 17.9391 16.0823C18.0501 16.0785 18.1594 16.1108 18.2504 16.1744C18.3414 16.238 18.4093 16.3295 18.4439 16.435C18.678 16.9343 18.9214 17.4274 19.1773 17.9174C19.2223 18.0597 19.3093 18.185 19.427 18.2769C19.5446 18.3688 19.6873 18.423 19.8363 18.4323C19.9853 18.4416 20.1337 18.4055 20.2618 18.3289C20.39 18.2523 20.4918 18.1388 20.5542 18.0032C21.0434 17.3198 21.5163 16.6238 22.0851 15.8061C22.0851 16.7978 22.0851 17.6474 22.0851 18.497C22.0851 18.7248 22.0773 18.9527 22.0851 19.1797C22.0813 19.3682 22.1518 19.5506 22.2815 19.6874C22.4112 19.8242 22.5895 19.9044 22.7779 19.9108C22.9673 19.9214 23.1531 19.8565 23.2947 19.7303C23.4362 19.6041 23.5221 19.4268 23.5331 19.2374C23.562 18.948 23.5448 18.6531 23.5448 18.3605C23.5448 16.9304 23.5519 15.5003 23.5394 14.0694C23.5318 13.8115 23.6121 13.5586 23.7672 13.3524C24.1917 12.7641 24.5996 12.1634 25.0404 11.5322C25.514 12.2219 25.9494 12.864 26.3956 13.4983C26.478 13.6379 26.5118 13.8009 26.4917 13.9617C26.4917 17.4882 26.487 21.0148 26.5002 24.5413C26.5002 24.8916 26.398 24.9766 26.0633 24.9649C25.3322 24.94 24.6004 24.947 23.8693 24.9649C23.6119 24.9704 23.5332 24.8869 23.5402 24.6349C23.562 24.0123 23.5542 23.3944 23.5495 22.7773ZM24.0449 10.06C24.0874 10.1067 24.1109 10.1676 24.1109 10.2308C24.1109 10.294 24.0874 10.3549 24.0449 10.4017C22.7038 12.3311 21.3674 14.2637 19.9544 16.3055C19.6423 15.0252 18.9151 14.3948 17.4951 14.6632L22.3684 7.61944C22.9465 8.46596 23.4925 9.26731 24.0457 10.0623L24.0449 10.06ZM17.137 3.00852C17.1259 2.75923 17.1781 2.51115 17.2887 2.28746C17.3993 2.06378 17.5648 1.87174 17.7696 1.72927C17.9745 1.58679 18.2121 1.49853 18.4603 1.47269C18.7085 1.44685 18.9591 1.48424 19.1889 1.58145C20.2702 1.97155 21.3377 2.39444 22.4175 2.78766C22.6328 2.86568 22.7294 2.96015 22.724 3.19967C22.7092 3.88156 22.7068 4.5642 22.724 5.24532C22.731 5.51293 22.6327 5.56751 22.3885 5.56361C21.5608 5.55034 20.7321 5.55818 19.9043 5.55818C19.1085 5.55818 18.3129 5.54722 17.517 5.56361C17.2393 5.56907 17.1129 5.52386 17.1269 5.20008C17.1527 4.47293 17.1222 3.74112 17.1378 3.01319L17.137 3.00852ZM12.6181 9.64024C12.6306 8.87772 12.6306 8.11462 12.6181 7.35106C12.6142 7.1092 12.6617 7.01559 12.9301 7.01715C15.5602 7.02885 18.1903 7.025 20.8196 7.02734C20.8675 7.03931 20.9138 7.05687 20.9577 7.07963C20.3265 7.99168 19.7155 8.86781 19.1155 9.751C19.0704 9.82589 19.0053 9.88662 18.9274 9.92634C18.8494 9.96605 18.7619 9.98313 18.6748 9.97567C16.7594 9.96865 14.844 9.96553 12.9286 9.97567C12.6555 9.98035 12.6142 9.87898 12.6181 9.64024ZM1.50025 24.4976C1.53224 23.2641 1.51029 22.0291 1.51263 20.7948C1.51263 20.1207 1.714 19.91 2.37093 19.91C5.76636 19.91 9.15864 19.91 12.5556 19.9022C12.8677 19.9022 12.966 19.9725 12.9621 20.2986C12.9434 21.7113 12.9434 23.1242 12.9621 24.5374C12.9676 24.8901 12.8521 24.9641 12.5221 24.961C10.7518 24.9454 8.98089 24.954 7.21061 24.954C5.47233 24.954 3.73395 24.9454 1.99644 24.9618C1.63755 24.9649 1.4901 24.9088 1.50025 24.4976ZM48.5464 29.9652C48.5636 30.4333 48.473 30.5785 47.9588 30.5777C35.4236 30.5595 22.8884 30.5551 10.3531 30.5644C10.1583 30.5539 9.96297 30.5612 9.76951 30.5862C9.67913 30.5939 9.59128 30.6194 9.51084 30.6613C9.43039 30.7032 9.35899 30.7607 9.30093 30.8303C9.24287 30.9 9.19925 30.9805 9.17255 31.0672C9.14585 31.1539 9.13671 31.245 9.1455 31.3353C9.14423 31.4258 9.16108 31.5155 9.19521 31.5993C9.22935 31.6831 9.28004 31.7592 9.34417 31.823C9.40829 31.8869 9.4846 31.9372 9.56855 31.9709C9.6525 32.0047 9.74228 32.0212 9.83275 32.0195C9.99503 32.0304 10.1581 32.0266 10.3204 32.0266H30.2039C29.7217 32.6507 29.3012 33.1968 28.8776 33.743C25.1326 38.5459 21.3875 43.3501 17.6426 48.1556C17.5696 48.2675 17.4686 48.3583 17.3494 48.4187C17.2303 48.4791 17.0973 48.507 16.9639 48.4997C12.1194 48.4883 7.2747 48.4854 2.43017 48.4911C1.6999 48.4911 1.50958 48.3008 1.50958 47.5736C1.50958 42.5502 1.50673 37.5267 1.50101 32.5032C1.50101 32.1319 1.57911 32.0102 1.96921 32.018C3.39932 32.0445 4.83021 32.0312 6.26031 32.0273C6.86419 32.0273 7.16295 31.7886 7.17309 31.3251C7.18401 30.8398 6.86561 30.5714 6.25003 30.5691C4.85191 30.5644 3.45301 30.541 2.05645 30.5816C1.56336 30.5956 1.4768 30.4427 1.49396 29.9925C1.52985 29.0025 1.53063 28.0085 1.49396 27.0184C1.4768 26.5503 1.5721 26.406 2.08235 26.4075C13.0572 26.4257 24.032 26.4304 35.0068 26.4215C39.3315 26.4215 43.6561 26.4309 47.98 26.4083C48.4691 26.4083 48.5604 26.5441 48.5432 26.9958C48.5112 27.9797 48.5113 28.9743 48.548 29.9652H48.5464Z" fill="#04E2AF"/>
<path d="M35.2788 45.5673C35.1482 45.5774 35.0175 45.5494 34.9026 45.4866C34.7876 45.4239 34.6933 45.3292 34.6312 45.2139C34.5545 45.0968 34.5164 44.9587 34.522 44.8188C34.5276 44.679 34.5767 44.5443 34.6624 44.4337C34.7626 44.3063 34.8723 44.1869 34.9908 44.0763C37.5613 41.5038 40.1326 38.9317 42.7046 36.3601C42.8127 36.2391 42.9337 36.13 43.0652 36.0348C43.1984 35.9374 43.3628 35.8929 43.5269 35.9097C43.691 35.9266 43.8432 36.0037 43.9538 36.1261C44.0775 36.2346 44.1575 36.3843 44.1787 36.5475C44.2 36.7106 44.161 36.8759 44.0692 37.0124C43.982 37.1483 43.8771 37.2718 43.7572 37.3799C41.1633 39.9753 38.5686 42.5701 35.9731 45.164C35.8931 45.2771 35.7897 45.3716 35.6698 45.4412C35.55 45.5108 35.4167 45.5538 35.2788 45.5673Z" fill="#04E2AF"/>
<path d="M14.3761 39.0322C11.8087 39.0322 9.24144 39.0322 6.67406 39.0322C6.52162 39.0569 6.3653 39.04 6.22167 38.9832C6.07804 38.9265 5.95232 38.8321 5.85786 38.7099C5.78899 38.6086 5.74696 38.4915 5.73557 38.3695C5.72418 38.2475 5.7438 38.1247 5.79271 38.0124C5.84163 37.9001 5.91813 37.802 6.01519 37.7272C6.11226 37.6525 6.22668 37.6035 6.34777 37.5849C6.50884 37.5634 6.67165 37.5573 6.83387 37.5669H21.9465C22.044 37.5669 22.1415 37.5669 22.239 37.5669C22.3447 37.5585 22.4508 37.5721 22.5509 37.607C22.6509 37.6419 22.7427 37.6973 22.8202 37.7696C22.8976 37.8419 22.9591 37.9296 23.0008 38.027C23.0424 38.1245 23.0633 38.2295 23.0621 38.3354C23.0557 38.437 23.0285 38.5362 22.9823 38.6269C22.9361 38.7175 22.8718 38.7977 22.7933 38.8626C22.7149 38.9274 22.6238 38.9755 22.5261 39.0039C22.4284 39.0323 22.3259 39.0403 22.2249 39.0275C19.6087 39.0333 16.9924 39.0348 14.3761 39.0322Z" fill="#04E2AF"/>
<path d="M16.4405 42.9406C15.548 42.9406 14.6545 42.9453 13.762 42.9406C13.6613 42.9536 13.5591 42.9455 13.4616 42.9171C13.3641 42.8887 13.2736 42.8406 13.1955 42.7757C13.1175 42.7108 13.0537 42.6305 13.0081 42.5398C12.9625 42.4491 12.936 42.3499 12.9304 42.2485C12.9258 42.1423 12.9442 42.0362 12.9845 41.9378C13.0247 41.8393 13.0857 41.7507 13.1633 41.6781C13.241 41.6054 13.3335 41.5503 13.4344 41.5166C13.5353 41.483 13.6424 41.4716 13.7481 41.4832C15.5498 41.4744 17.3513 41.4744 19.1526 41.4832C19.2542 41.4728 19.3568 41.4839 19.4539 41.5158C19.551 41.5476 19.6402 41.5994 19.716 41.668C19.7917 41.7365 19.8524 41.8202 19.8937 41.9137C19.9351 42.0071 19.9564 42.1082 19.9562 42.2103C19.9601 42.6551 19.644 42.9375 19.1173 42.9414C18.2255 42.9445 17.3331 42.9406 16.4405 42.9406Z" fill="#04E2AF"/>
<path d="M8.29117 42.9343C7.70836 42.9343 7.12462 42.9406 6.54181 42.9343C6.44086 42.9447 6.3389 42.9341 6.24219 42.9034C6.14548 42.8726 6.05616 42.8223 5.97971 42.7556C5.90325 42.6888 5.84135 42.6071 5.7978 42.5155C5.75426 42.4238 5.72999 42.3242 5.72656 42.2228C5.72645 42.1208 5.74723 42.0198 5.78771 41.9262C5.82819 41.8326 5.88761 41.7484 5.96199 41.6786C6.03638 41.6088 6.12428 41.555 6.22028 41.5206C6.31629 41.4862 6.41832 41.4719 6.5201 41.4785C7.73461 41.4655 8.94931 41.4655 10.1643 41.4785C10.2659 41.4687 10.3684 41.4799 10.4653 41.5116C10.5622 41.5434 10.6515 41.5949 10.7276 41.6628C10.8037 41.7307 10.865 41.8137 10.9074 41.9064C10.9498 41.9992 10.9726 42.0997 10.9743 42.2017C10.9813 42.6378 10.6551 42.9312 10.1379 42.9366C9.52307 42.939 8.90753 42.9343 8.29117 42.9343Z" fill="#04E2AF"/>
<path d="M36.512 35.711C36.2236 35.7094 35.9376 35.7647 35.6706 35.8736C35.4036 35.9826 35.1607 36.1432 34.9557 36.346C34.7508 36.5489 34.5878 36.7902 34.4761 37.056C34.3644 37.3219 34.3061 37.6072 34.3047 37.8956C34.3118 38.4695 34.5419 39.0182 34.946 39.4258C35.3501 39.8334 35.8968 40.068 36.4706 40.0801C37.0527 40.0787 37.6109 39.8478 38.0238 39.4375C38.4367 39.0272 38.671 38.4706 38.6762 37.8885C38.6723 37.3145 38.4435 36.7648 38.0388 36.3576C37.6342 35.9505 37.086 35.7183 36.512 35.711ZM36.4994 38.611C36.3038 38.6063 36.1179 38.525 35.9817 38.3846C35.8454 38.2443 35.7697 38.0561 35.7708 37.8604C35.7816 37.6733 35.8643 37.4977 36.0015 37.37C36.1387 37.2424 36.3198 37.1726 36.5072 37.1754C36.694 37.1822 36.871 37.2605 37.0017 37.394C37.1324 37.5276 37.2068 37.7063 37.2095 37.8932C37.2034 38.0805 37.127 38.2587 36.9954 38.3922C36.8638 38.5256 36.6866 38.6046 36.4994 38.6133V38.611Z" fill="#04E2AF"/>
<path d="M42.2124 41.4454C41.9285 41.4437 41.6472 41.4982 41.3844 41.6057C41.1216 41.7131 40.8825 41.8715 40.6811 42.0716C40.4797 42.2717 40.3198 42.5096 40.2107 42.7717C40.1015 43.0338 40.0453 43.3148 40.0451 43.5987C40.0411 43.8869 40.0949 44.1729 40.2032 44.44C40.3116 44.707 40.4722 44.9497 40.6758 45.1537C40.8794 45.3577 41.1217 45.5188 41.3886 45.6276C41.6554 45.7364 41.9414 45.7907 42.2295 45.7872C42.8026 45.7855 43.3521 45.5585 43.7595 45.1554C44.1668 44.7523 44.3993 44.2053 44.4071 43.6323C44.4081 43.3441 44.3522 43.0586 44.2421 42.7923C44.1321 42.526 43.9702 42.2842 43.7661 42.0808C43.562 41.8774 43.3197 41.7165 43.053 41.6075C42.7863 41.4984 42.5005 41.4433 42.2124 41.4454ZM42.228 44.3227C42.1345 44.3248 42.0415 44.3082 41.9545 44.2739C41.8675 44.2395 41.7882 44.1882 41.7213 44.1227C41.6545 44.0573 41.6014 43.9792 41.5651 43.8929C41.5289 43.8067 41.5103 43.7142 41.5103 43.6206C41.5074 43.5271 41.5236 43.434 41.5577 43.3469C41.5919 43.2598 41.6433 43.1805 41.709 43.1139C41.7746 43.0472 41.8529 42.9946 41.9394 42.9591C42.026 42.9236 42.1189 42.9061 42.2124 42.9075C42.3059 42.9051 42.3991 42.9213 42.4863 42.9551C42.5735 42.9889 42.6531 43.0396 42.7206 43.1044C42.7881 43.1692 42.8419 43.2468 42.8793 43.3325C42.9166 43.4183 42.9367 43.5107 42.9381 43.6043C42.9393 43.6982 42.9217 43.7914 42.8865 43.8785C42.8513 43.9657 42.7992 44.0449 42.7332 44.1118C42.6671 44.1786 42.5884 44.2317 42.5017 44.2679C42.415 44.3041 42.322 44.3228 42.228 44.3227Z" fill="#04E2AF"/>
</g>
<defs>
<clipPath id="clip0_1112_4107">
<rect width="50" height="49.9992" fill="white"/>
</clipPath>
</defs>
</svg>
