<svg width="19" height="23" viewBox="0 0 19 23" fill="none" xmlns="http://www.w3.org/2000/svg">
<g clip-path="url(#clip0_10827_12871)">
<path d="M9.49069 0C7.28651 0 5.07604 0 2.87186 0C1.41711 0 0.315018 0.972303 0.0379219 2.49446C0.0253258 2.57493 0.0190296 2.6621 0.0190296 2.74257C0.0190296 3.66122 -0.0124588 4.58659 0.0253277 5.49854C0.0757084 6.61837 0.529137 7.57055 1.23447 8.38192C1.52417 8.7172 1.99019 8.7105 2.29248 8.41545C2.58847 8.12711 2.61996 7.6242 2.33656 7.28222C1.93351 6.79271 1.66271 6.24286 1.54936 5.60583C1.51787 5.4449 1.52417 5.27055 1.52417 5.10962C1.52417 4.40554 1.52417 3.70816 1.52417 3.00408C1.52417 2.23294 2.02798 1.66297 2.7585 1.60933C2.83408 1.60262 2.91595 1.60262 2.99152 1.60262C7.3243 1.60262 11.6634 1.60262 15.9962 1.60262C16.9471 1.60262 17.4635 2.14577 17.4698 3.15831C17.4761 3.84227 17.4509 4.53295 17.4761 5.21691C17.5013 6.00146 17.2242 6.64519 16.7267 7.20175C15.5049 8.57639 14.2706 9.9309 13.0615 11.3122C12.312 12.1706 11.9027 13.2099 11.8901 14.3968C11.8775 16.2475 11.8838 18.0915 11.8901 19.9423C11.8901 20.4921 11.7012 20.9146 11.2477 21.1828C10.7754 21.4644 10.3031 21.451 9.84336 21.1426C9.43401 20.8676 9.02466 20.5793 8.61532 20.3044C8.17448 20.0093 7.96036 19.5802 7.92257 19.0437C7.89109 18.628 7.61399 18.2927 7.25502 18.2525C6.88976 18.2122 6.5308 18.4469 6.43633 18.8157C6.36076 19.1242 6.40484 19.4327 6.48671 19.7344C6.70083 20.5458 7.10388 21.223 7.79662 21.6723C8.22486 21.9472 8.63421 22.2624 9.06245 22.5373C10.7124 23.6102 12.8536 22.6983 13.3197 20.7268C13.3763 20.4921 13.3952 20.2507 13.3952 20.0093C13.3952 18.1586 13.3889 16.3146 13.3952 14.4638C13.3952 13.6726 13.666 12.9752 14.1698 12.3985C15.3916 11.0105 16.6448 9.64257 17.8666 8.25452C18.616 7.42303 19.0127 6.42391 19.0001 5.25714C18.9938 4.53294 19.0064 3.80204 19.0001 3.07784C18.9812 1.50204 18.0303 0.301749 16.5818 0.0268222C16.4181 0 16.2544 0 16.0906 0C13.8927 0 11.6886 0 9.49069 0Z" fill="#1A1C55"/>
<path d="M1.08289 16.3508C1.36628 16.0424 1.65597 15.7272 1.95196 15.4322C2.06532 15.3182 2.09681 15.2444 2.00235 15.0835C1.68117 14.5604 1.50483 13.9704 1.44186 13.3534C1.18365 10.8657 3.03516 8.67969 5.42197 8.67969C5.6046 8.68639 5.81242 8.6931 6.01395 8.72663C8.50152 9.14237 10.0067 11.8715 9.12498 14.3794C8.25591 16.8604 5.49124 17.8998 3.36264 16.5319C3.21149 16.4313 3.12962 16.4514 3.01627 16.5788C2.73917 16.894 2.44318 17.2024 2.15349 17.5042C1.81971 17.8529 1.34739 17.8663 1.03881 17.5377C0.730221 17.2091 0.742817 16.7196 1.08289 16.3508ZM5.40308 15.5126C6.76337 15.5059 7.84656 14.3459 7.84656 12.8975C7.84656 11.4558 6.74447 10.2823 5.39678 10.2823C4.04278 10.2823 2.9281 11.4692 2.9344 12.9176C2.9407 14.3526 4.04908 15.5193 5.40308 15.5126Z" fill="#1A1C55"/>
</g>
<defs>
<clipPath id="clip0_10827_12871">
<rect width="19" height="23" fill="white" transform="matrix(-1 0 0 1 19 0)"/>
</clipPath>
</defs>
</svg>
