<svg width="94" height="94" viewBox="0 0 94 94" fill="none" xmlns="http://www.w3.org/2000/svg">
<g clip-path="url(#clip0_1112_4164)">
<path d="M90.0376 41.9702C87.3686 41.9352 84.6978 41.9482 82.0278 41.9902C81.2016 41.9682 80.3881 42.1961 79.6934 42.6439C78.9986 43.0917 78.455 43.7386 78.1338 44.5002C78.0696 44.6952 77.9381 44.861 77.7627 44.9679C77.5873 45.0747 77.3795 45.1156 77.1768 45.0832C76.0858 45.0512 74.9909 45.0352 73.9009 45.0832C72.5353 45.137 71.181 44.815 69.9858 44.1522C67.5548 42.8652 65.0859 41.6522 62.6089 40.4522C60.6036 39.4273 58.3886 38.8801 56.1367 38.8532C53.8849 38.8263 51.6572 39.3205 49.6279 40.2972C49.4228 40.4067 49.1939 40.464 48.9614 40.464C48.7289 40.464 48.5 40.4067 48.2949 40.2972C46.354 39.3472 44.2234 38.8477 42.0625 38.8361C39.9016 38.8245 37.766 39.301 35.8149 40.2302C32.9899 41.5382 30.2288 42.9842 27.4438 44.3802C26.702 44.7969 25.8721 45.032 25.022 45.0662C21.988 45.0662 18.9539 45.0662 15.9219 45.0832C15.7611 45.1016 15.5989 45.0637 15.4629 44.976C15.3269 44.8883 15.2254 44.7562 15.1758 44.6022C14.835 43.7828 14.2473 43.09 13.4946 42.6199C12.7419 42.1498 11.8614 41.9259 10.9756 41.9792C8.70059 41.9702 6.4219 42.0352 4.1499 41.9382C2.2329 41.8562 0.791953 42.4382 0.00195312 44.2662V70.6782C0.110911 71.4513 0.512698 72.153 1.12451 72.638C1.73633 73.1231 2.51146 73.3544 3.28906 73.2842C4.92421 73.3689 6.56257 73.3605 8.19678 73.2592C10.6398 73.0142 12.6826 74.0482 14.7876 74.9662C14.9722 75.0364 15.1316 75.1606 15.2446 75.3225C15.3577 75.4844 15.4195 75.6767 15.4219 75.8742C15.4946 76.6222 15.714 77.3485 16.0679 78.0115C16.4217 78.6745 16.9029 79.2611 17.4839 79.7378C18.0648 80.2146 18.7343 80.572 19.4536 80.7896C20.1729 81.0073 20.928 81.0808 21.6758 81.0062C21.8688 80.9636 22.0705 80.9895 22.2466 81.0795C22.4226 81.1694 22.562 81.3178 22.6406 81.4992C23.1211 82.694 23.9823 83.697 25.0908 84.3526C26.1993 85.0082 27.4934 85.2798 28.772 85.1252C28.953 85.1026 29.1362 85.1448 29.2891 85.2444C29.4419 85.344 29.5545 85.4945 29.6069 85.6692C30.072 86.8526 30.9163 87.8485 32.0078 88.5008C33.0993 89.1531 34.3761 89.4251 35.6387 89.2742C35.8161 89.2381 36.0006 89.2679 36.1577 89.3579C36.3148 89.4478 36.4339 89.5919 36.4927 89.7632C36.8458 90.7037 37.4523 91.5284 38.2446 92.146C39.037 92.7637 39.9846 93.1503 40.9829 93.2632H42.4409C43.5581 93.2149 44.6309 92.8121 45.5039 92.1132C45.5702 92.0506 45.6481 92.0018 45.7334 91.9696C45.8187 91.9375 45.9099 91.9227 46.001 91.926C46.0921 91.9294 46.1814 91.9508 46.2642 91.9891C46.3469 92.0274 46.4214 92.0818 46.4829 92.1492C47.2003 92.7495 48.0724 93.1356 48.999 93.2632H50.999C51.061 93.2092 51.117 93.1202 51.187 93.1082C52.438 92.9013 53.573 92.2529 54.3867 91.2804C55.2004 90.308 55.6391 89.076 55.6221 87.8082C55.6221 87.1562 55.7379 86.9002 56.3989 86.7322C57.3129 86.5418 58.1525 86.0912 58.8164 85.4347C59.4803 84.7783 59.9399 83.944 60.1406 83.0322C60.179 82.5591 60.3918 82.1172 60.7378 81.7924C61.0837 81.4675 61.5382 81.2828 62.0127 81.2742C63.3958 80.9868 64.6094 80.1638 65.3877 78.9849C66.166 77.806 66.4462 76.367 66.167 74.9822C66.121 74.7102 65.8348 74.2502 66.1108 74.1652C67.0528 73.8782 67.7108 73.0322 68.8188 73.0372C75.8588 73.0742 82.899 73.0612 89.939 73.0532C90.3802 73.0864 90.8235 73.0244 91.2388 72.8714C91.654 72.7184 92.0315 72.478 92.3457 72.1664C92.66 71.8548 92.9035 71.4793 93.0601 71.0654C93.2166 70.6515 93.2824 70.2087 93.2529 69.7672C93.2609 61.6038 93.2609 53.4408 93.2529 45.2782C93.2857 44.8433 93.2259 44.4065 93.0771 43.9965C92.9284 43.5866 92.6941 43.2129 92.3901 42.9002C92.0862 42.5875 91.7195 42.3429 91.314 42.1825C90.9084 42.0222 90.4732 41.9498 90.0376 41.9702ZM12.3848 46.8702C11.8848 51.5402 11.3628 56.2072 10.8428 60.8702C10.5308 63.6702 10.1967 66.4702 9.90869 69.2702C9.85469 69.7942 9.72462 69.9762 9.16162 69.9612C7.40362 69.9152 5.64539 69.9128 3.88672 69.9542C3.25672 69.9702 3.08191 69.8152 3.08691 69.1672C3.12091 65.2862 3.104 61.4042 3.104 57.5232C3.104 53.6722 3.12901 49.8232 3.08301 45.9702C3.07401 45.1832 3.31292 45.0282 4.04492 45.0462C6.28792 45.1022 8.5319 45.0742 10.7749 45.0892C12.1309 45.1082 12.5288 45.5102 12.3848 46.8752V46.8702ZM22.3457 77.3312C21.9217 77.6016 21.4213 77.727 20.9199 77.6884C20.4185 77.6498 19.9435 77.4493 19.5659 77.1172C19.1416 76.7704 18.8443 76.2924 18.7212 75.7584C18.5981 75.2245 18.6561 74.6647 18.8857 74.1672C19.1399 73.6204 19.439 73.0956 19.7798 72.5982C20.0715 72.1518 20.5027 71.8142 21.0059 71.6377C21.5091 71.4613 22.0564 71.4558 22.563 71.6222C23.0987 71.8269 23.5521 72.2021 23.8535 72.6901C24.1549 73.178 24.2876 73.7515 24.231 74.3222C23.9915 75.5221 23.3207 76.5929 22.3457 77.3322V77.3312ZM29.3066 81.4402C28.8888 81.7198 28.3916 81.8557 27.8896 81.8274C27.3877 81.799 26.9086 81.608 26.5249 81.2832C26.0917 80.946 25.7835 80.4739 25.6489 79.9418C25.5143 79.4096 25.5609 78.8477 25.7817 78.3452C26.0446 77.7694 26.3598 77.2191 26.7236 76.7012C27.0052 76.2666 27.4233 75.9379 27.9121 75.7668C28.4009 75.5957 28.9327 75.592 29.4238 75.7562C29.9637 75.9467 30.4255 76.3101 30.7378 76.7899C31.0501 77.2698 31.1954 77.8394 31.1509 78.4102C30.9345 79.6155 30.2769 80.6971 29.3066 81.4442V81.4402ZM37.958 83.0512C37.6836 83.8211 37.2713 84.5346 36.7417 85.1572C36.4217 85.5251 35.9948 85.7837 35.5205 85.8967C35.0462 86.0096 34.5482 85.9713 34.0967 85.7872C33.6083 85.6101 33.1906 85.2793 32.9062 84.8446C32.6219 84.4098 32.4865 83.8946 32.52 83.3762C32.6769 82.1044 33.3316 80.9467 34.3408 80.1572C34.7024 79.8733 35.1575 79.7359 35.6157 79.7722C36.0101 79.7725 36.3989 79.8669 36.7495 80.0476C37.1001 80.2283 37.4027 80.49 37.6318 80.8111C37.861 81.1321 38.01 81.5032 38.0669 81.8935C38.1238 82.2838 38.0869 82.6821 37.959 83.0552L37.958 83.0512ZM43.1396 89.7132C42.7046 89.9965 42.1877 90.1266 41.6704 90.0827C41.1531 90.0389 40.6649 89.8237 40.2837 89.4712C39.8753 89.1285 39.5907 88.6612 39.4736 88.1411C39.3566 87.621 39.4135 87.0768 39.6357 86.5922C39.8885 86.0439 40.184 85.5164 40.519 85.0142C40.8052 84.5625 41.2329 84.2185 41.7354 84.0359C42.2378 83.8534 42.7866 83.8426 43.2959 84.0052C43.8329 84.2048 44.2899 84.574 44.5981 85.0569C44.9064 85.5398 45.0489 86.1101 45.0039 86.6812C44.7709 87.8853 44.1087 88.964 43.1406 89.7172L43.1396 89.7132ZM66.106 70.5742C65.7625 70.9025 65.3261 71.117 64.8564 71.1886C64.3868 71.2602 63.9066 71.1853 63.481 70.9742C63.2406 70.8465 63.0068 70.7067 62.7808 70.5552C62.4475 70.3355 62.042 70.2544 61.6499 70.3291C61.2578 70.4038 60.9099 70.6284 60.6807 70.9552C60.4534 71.2819 60.3591 71.6828 60.4165 72.0767C60.4739 72.4706 60.6787 72.8279 60.9897 73.0762C61.3987 73.4362 61.8556 73.7422 62.2646 74.1022C62.7542 74.4989 63.0669 75.0734 63.1338 75.6999C63.2007 76.3265 63.0168 76.954 62.6221 77.4452C62.4323 77.6921 62.1946 77.8986 61.9238 78.0524C61.653 78.2062 61.3542 78.3043 61.0449 78.3408C60.7356 78.3774 60.4222 78.3516 60.123 78.2651C59.8238 78.1786 59.5448 78.0331 59.3027 77.8372C58.9807 77.6102 58.6838 77.3472 58.3618 77.1212C58.209 76.9829 58.0298 76.8769 57.835 76.8097C57.6402 76.7425 57.4341 76.7154 57.2285 76.7301C57.023 76.7447 56.8224 76.8008 56.6392 76.895C56.4559 76.9892 56.2932 77.1196 56.1616 77.2782C56.022 77.4303 55.9157 77.6097 55.8491 77.8052C55.7825 78.0006 55.7572 78.2078 55.7749 78.4135C55.7926 78.6192 55.8527 78.8191 55.9517 79.0003C56.0507 79.1815 56.1861 79.3401 56.3496 79.4662C56.6543 79.7176 56.8995 80.0338 57.0669 80.3916C57.2343 80.7495 57.3201 81.1401 57.3179 81.5352C57.3073 81.9467 57.1893 82.3484 56.9756 82.7003C56.7619 83.0522 56.4599 83.342 56.0996 83.5412C55.7393 83.7403 55.333 83.8417 54.9214 83.8354C54.5097 83.8291 54.107 83.7153 53.7529 83.5052C53.6209 83.4322 53.5007 83.3352 53.3677 83.2642C53.0409 83.0627 52.6498 82.9928 52.2734 83.0687C51.8971 83.1446 51.5639 83.3607 51.3408 83.6732C51.1002 83.9552 50.9779 84.3194 50.9995 84.6895C51.0211 85.0596 51.1852 85.407 51.457 85.6592C51.8895 86.041 52.2235 86.5211 52.4316 87.0592C52.5725 87.5439 52.5608 88.0603 52.3979 88.5382C52.2351 89.0161 51.9295 89.4322 51.522 89.7302C51.1222 90.0122 50.644 90.1622 50.1548 90.1589C49.6656 90.1557 49.1899 89.9995 48.7939 89.7122C48.0439 89.2232 47.584 88.7912 47.894 87.6562C48.1217 86.7884 48.1321 85.878 47.9248 85.0052C47.7175 84.1324 47.2987 83.324 46.7051 82.6513C46.1115 81.9787 45.3613 81.4624 44.521 81.1482C43.6807 80.8339 42.776 80.7312 41.8867 80.8492C41.3197 80.9182 41.0169 80.9032 40.7749 80.2382C40.3484 79.0396 39.5129 78.0299 38.4155 77.3864C37.3181 76.743 36.0291 76.507 34.7749 76.7202C34.3269 76.7792 34.124 76.7812 33.938 76.2842C33.5307 75.0141 32.6675 73.9396 31.5151 73.2679C30.3628 72.5962 29.0027 72.3747 27.6968 72.6462C27.3278 72.6942 27.1971 72.6262 27.0601 72.2592C26.7477 71.1856 26.1051 70.2375 25.2241 69.5491C24.3431 68.8607 23.2681 68.4668 22.1509 68.4232C21.0677 68.3219 19.9796 68.5552 19.0332 69.0917C18.0868 69.6281 17.3275 70.4419 16.8579 71.4232C16.5699 71.9442 16.2877 72.0362 15.8037 71.7512C15.5901 71.6362 15.3689 71.5359 15.1416 71.4512C12.8576 70.4962 12.8759 70.4982 13.1499 68.0842C13.8739 61.6962 14.5829 55.3068 15.2769 48.9162C15.3419 48.3032 15.5518 48.1782 16.1118 48.1832C18.8428 48.2082 21.5737 48.1772 24.3057 48.2012C25.9174 48.2318 27.5117 47.8624 28.9458 47.1262C31.4738 45.8262 34.0248 44.5662 36.5688 43.2942C39.2491 41.9366 42.3434 41.6416 45.2319 42.4682C44.4159 42.8862 43.8047 43.2152 43.1807 43.5152C40.6534 44.7311 38.4933 46.5942 36.9189 48.9152C34.6579 52.1792 32.3608 55.4152 30.0908 58.6752C29.6581 59.2184 29.3517 59.8511 29.1938 60.5274C29.036 61.2038 29.0306 61.9068 29.1782 62.5854C29.3259 63.2641 29.6228 63.9013 30.0474 64.451C30.4719 65.0006 31.0135 65.4489 31.6328 65.7632C33.0549 66.6083 34.7326 66.9156 36.3618 66.6294C37.9911 66.3432 39.4638 65.4824 40.5127 64.2032C42.7727 61.5462 44.992 58.8542 47.231 56.1782C48.402 54.7782 48.877 54.7102 50.356 55.7422C55.2746 59.1788 60.1931 62.6155 65.1118 66.0522C65.8913 66.5348 66.4668 67.2867 66.729 68.1652C66.8741 68.584 66.8924 69.0363 66.7817 69.4654C66.6711 69.8946 66.4364 70.2817 66.1069 70.5782L66.106 70.5742ZM75.7388 69.9442C73.9788 69.9442 72.219 69.9442 70.46 69.9442C70.074 69.9442 69.8346 69.9872 69.8896 69.3922C70.0128 68.2976 69.8293 67.1904 69.3594 66.1942C68.8895 65.1981 68.152 64.3522 67.229 63.7512C62.0417 60.0678 56.8288 56.4198 51.5908 52.8072C50.6437 52.0931 49.4535 51.7807 48.2778 51.9376C47.1022 52.0944 46.0354 52.7078 45.3086 53.6452C42.9086 56.4602 40.5639 59.3242 38.1719 62.1452C37.6091 62.8734 36.8002 63.3715 35.8965 63.546C34.9928 63.7206 34.0562 63.5595 33.2627 63.0932C33.0098 63.0007 32.7838 62.8469 32.605 62.6457C32.4261 62.4444 32.2999 62.2019 32.2378 61.9399C32.1757 61.6779 32.1796 61.4046 32.249 61.1444C32.3185 60.8842 32.4513 60.6454 32.6357 60.4492C34.9924 57.0692 37.3576 53.6945 39.731 50.3252C40.8686 48.7028 42.3891 47.3865 44.1577 46.4932C46.3677 45.3672 48.575 44.2332 50.814 43.1672C52.4044 42.3654 54.1603 41.947 55.9414 41.9454C57.7225 41.9438 59.479 42.3592 61.0708 43.1582C63.6081 44.3695 66.1221 45.6295 68.6128 46.9382C70.2443 47.8232 72.0831 48.2555 73.938 48.1902C75.029 48.1502 76.1229 48.1982 77.2139 48.1762C77.6749 48.1662 77.9058 48.2512 77.9648 48.7972C78.7218 55.8192 79.5069 62.8372 80.2949 69.9382L75.7388 69.9442ZM90.1509 57.4872C90.1509 61.3682 90.1299 65.2492 90.1699 69.1302C90.1769 69.8302 89.9848 69.9812 89.3198 69.9612C87.6838 69.9122 86.0436 69.8912 84.4106 69.9752C83.5756 70.0182 83.371 69.7102 83.293 68.9602C82.81 64.3202 82.2869 59.6842 81.7749 55.0472C81.5019 52.5782 81.2208 50.1102 80.9468 47.6412C80.9008 47.2202 80.8467 46.7962 80.8467 46.3732C80.8243 46.213 80.8379 46.0498 80.8857 45.8953C80.9336 45.7408 81.015 45.5988 81.124 45.4793C81.2331 45.3598 81.3671 45.2659 81.5166 45.2042C81.6661 45.1424 81.8272 45.1145 81.9888 45.1222C84.5648 45.0782 87.1418 45.0882 89.7178 45.0692C90.3598 45.0692 90.144 45.5402 90.145 45.8462C90.157 49.7322 90.1528 53.6112 90.1528 57.4922L90.1509 57.4872Z" fill="white"/>
<path d="M60.624 8.28954C60.635 5.00754 58.7238 3.11055 55.4238 3.11055C47.5638 3.11055 39.7038 3.11055 31.8438 3.11055C26.1384 3.11055 20.4337 3.11055 14.729 3.11055C14.363 3.11055 14.0196 3.22155 13.8286 2.64055C13.6834 2.04648 13.384 1.50129 12.9604 1.06011C12.5369 0.618922 12.0046 0.297369 11.417 0.128008C10.8294 -0.0413541 10.2071 -0.0525193 9.61377 0.0955979C9.02042 0.243715 8.4767 0.545878 8.0376 0.971544C6.0446 2.60754 4.08801 4.28655 2.08301 5.90755C1.14777 6.5772 0.424716 7.50156 0 8.57054V10.2096C0.365 10.7466 0.520016 11.4195 1.04102 11.8545C3.51102 13.9125 5.93068 16.0345 8.47168 18.0005C8.90676 18.323 9.41242 18.537 9.94678 18.6248C10.4811 18.7126 11.029 18.6717 11.5444 18.5055C12.0598 18.3393 12.5278 18.0525 12.9102 17.669C13.2925 17.2855 13.578 16.8164 13.7427 16.3005C13.9697 15.5915 14.305 15.5315 14.896 15.5325C26.2153 15.5425 37.5347 15.5449 48.854 15.5395C51.254 15.5395 53.6539 15.5685 56.0459 15.5245C57.1338 15.5248 58.1858 15.1342 59.0098 14.4238C59.8338 13.7135 60.3747 12.7306 60.5347 11.6545C60.6647 10.5378 60.6948 9.41161 60.624 8.28954ZM57.5239 10.4495C57.5109 11.8945 56.9899 12.4235 55.5449 12.4245C48.4463 12.4279 41.346 12.4279 34.2446 12.4245C27.2366 12.4245 20.2287 12.4495 13.2217 12.4055C11.6527 12.3955 10.6957 12.9255 10.8857 14.6855C10.9167 14.9745 10.9707 15.3325 10.6147 15.4795C10.2587 15.6265 10.0526 15.3315 9.82764 15.1445C7.75164 13.4195 5.69061 11.6765 3.59961 9.97054C3.02261 9.49954 3.00487 9.17852 3.58887 8.70152C5.70287 6.97552 7.78867 5.21554 9.88867 3.47154C10.0887 3.30354 10.2739 3.02854 10.5889 3.15654C10.9429 3.29954 10.889 3.63752 10.895 3.93852C10.957 5.91152 11.2719 6.21053 13.2769 6.21053H55.2319C57.0799 6.21053 57.521 6.65853 57.522 8.53453C57.524 9.17453 57.5239 9.81254 57.5239 10.4495Z" fill="white"/>
<path d="M92.2075 22.3922C89.7825 20.2402 87.2966 18.1462 84.7236 16.1752C84.2976 15.8657 83.8052 15.6602 83.2856 15.5753C82.766 15.4905 82.2332 15.5285 81.7309 15.6864C81.2286 15.8442 80.7707 16.1176 80.393 16.4845C80.0154 16.8514 79.7289 17.3016 79.5566 17.7992C79.4986 18.0811 79.3324 18.329 79.0937 18.4898C78.855 18.6506 78.5623 18.7114 78.2792 18.6592C64.8699 18.6392 51.461 18.6352 38.0517 18.6472C37.6272 18.6399 37.2027 18.6592 36.7807 18.7052C35.6537 18.8239 34.6093 19.3516 33.8452 20.1884C33.081 21.0252 32.6495 22.1131 32.6332 23.2462C32.6092 23.8822 32.6726 24.5242 32.6186 25.1562C32.2936 29.0292 34.5656 31.2562 38.6186 31.1492C45.0456 30.9862 51.4806 31.1052 57.9116 31.1052C64.7682 31.1052 71.6244 31.1015 78.4804 31.0942C79.0374 31.0942 79.2894 31.1942 79.4804 31.8042C79.6425 32.3283 79.9287 32.8057 80.3144 33.1959C80.7001 33.5861 81.174 33.8775 81.6962 34.0456C82.2185 34.2137 82.7735 34.2534 83.3144 34.1614C83.8553 34.0694 84.3663 33.8484 84.8037 33.5172C87.3197 31.5702 89.7594 29.5172 92.1474 27.4172C92.5072 27.1068 92.797 26.7235 92.9975 26.2927C93.198 25.8619 93.3048 25.3934 93.3105 24.9182C93.3162 24.4431 93.2203 23.9721 93.0302 23.5366C92.8401 23.1012 92.5598 22.711 92.2075 22.3922ZM89.6816 25.4922C87.5716 27.2242 85.4813 28.9802 83.3813 30.7252C83.1813 30.8942 82.9862 31.1492 82.6752 31.0312C82.3092 30.8932 82.3757 30.5542 82.3637 30.2532C82.3027 28.2972 81.9926 27.9932 80.0546 27.9932H59.1103C52.0683 27.9932 45.0266 27.9932 37.9853 27.9932C36.1953 27.9932 35.7382 27.5272 35.7372 25.7142C35.7372 24.9552 35.7146 24.1952 35.7446 23.4382C35.7302 23.2167 35.7628 22.9947 35.8403 22.7867C35.9178 22.5788 36.0384 22.3896 36.1943 22.2316C36.3501 22.0735 36.5377 21.9503 36.7446 21.8699C36.9514 21.7895 37.1728 21.7538 37.3945 21.7652C37.6665 21.7462 37.9403 21.7582 38.2143 21.7582H79.9145C82.0075 21.7582 82.2753 21.5052 82.3583 19.4422C82.3693 19.1702 82.3234 18.8752 82.6274 18.7262C82.9314 18.5772 83.1383 18.8172 83.3403 18.9852C85.4643 20.7492 87.5764 22.5272 89.7114 24.2772C90.2744 24.7412 90.2016 25.0682 89.6806 25.4952L89.6816 25.4922Z" fill="white"/>
</g>
<defs>
<clipPath id="clip0_1112_4164">
<rect width="93.31" height="93.263" fill="white"/>
</clipPath>
</defs>
</svg>
