<svg width="50" height="40" viewBox="0 0 50 40" fill="none" xmlns="http://www.w3.org/2000/svg">
<g clip-path="url(#clip0_1112_4098)">
<path d="M49.2484 23.8999C48.8012 23.9041 48.5289 24.2169 48.5247 24.753C48.5184 25.4528 48.5325 26.1526 48.5206 26.8524C48.5334 27.0282 48.5085 27.2048 48.4478 27.3702C48.3871 27.5357 48.2917 27.6864 48.1683 27.8122C48.0448 27.9379 47.896 28.036 47.7317 28.0998C47.5674 28.1636 47.3914 28.1916 47.2154 28.1821C44.5141 28.1926 41.8127 28.2101 39.1113 28.1751C38.2962 28.1651 37.517 27.838 36.9389 27.2632C36.3608 26.6884 36.0292 25.911 36.0146 25.0959C35.9796 23.9908 35.9762 22.8817 36.0231 21.7773C36.0638 20.997 36.3971 20.2607 36.9565 19.7152C37.5159 19.1696 38.2604 18.8549 39.0415 18.8338C41.775 18.8044 44.5092 18.8177 47.2427 18.8254C47.4103 18.8174 47.5775 18.844 47.7343 18.9037C47.8911 18.9633 48.0338 19.0547 48.1536 19.1721C48.2734 19.2895 48.3676 19.4305 48.4304 19.586C48.4931 19.7415 48.5233 19.9083 48.5185 20.076C48.5339 20.4329 48.5143 20.7919 48.5255 21.1495C48.5193 21.2512 48.5339 21.3531 48.5688 21.4488C48.6036 21.5446 48.6577 21.6322 48.7278 21.7061C48.7979 21.78 48.8825 21.8386 48.9763 21.8785C49.07 21.9183 49.171 21.9384 49.2729 21.9376C49.47 21.9299 49.6561 21.8447 49.7907 21.7005C49.9253 21.5564 49.9975 21.3649 49.9917 21.1677C50.0057 20.794 50.0001 20.4189 49.9917 20.048C49.9952 19.4908 49.8236 18.9465 49.5011 18.4921C49.1787 18.0376 48.7216 17.6959 48.1944 17.5153C47.8711 17.4054 47.8229 17.2543 47.8257 16.961C47.839 15.5782 47.834 14.1946 47.8312 12.8118C47.8654 12.1551 47.7612 11.4986 47.5252 10.8848C47.2891 10.271 46.9267 9.71372 46.4613 9.24916C45.9958 8.7846 45.4378 8.42313 44.8236 8.18823C44.2094 7.95333 43.5526 7.8502 42.896 7.88564C40.4876 7.88331 38.0793 7.88331 35.671 7.88564C35.433 7.88564 35.2769 7.89901 35.2272 7.55819C35.0882 6.40891 34.7187 5.29947 34.1409 4.29628C33.5632 3.2931 32.7891 2.41674 31.8648 1.71968C30.9405 1.02262 29.8851 0.519189 28.7617 0.239461C27.6383 -0.0402673 26.47 -0.0905534 25.3268 0.0916699C24.5381 0.204522 23.7712 0.437507 23.053 0.782444C22.9513 0.814543 22.8577 0.867896 22.7781 0.938949C22.6986 1.01 22.635 1.09709 22.5917 1.19455C22.5484 1.29201 22.5261 1.39757 22.5266 1.50423C22.5271 1.61089 22.5503 1.71628 22.5946 1.81331C22.6402 1.90412 22.7036 1.98485 22.781 2.05071C22.8584 2.11657 22.9482 2.16614 23.0452 2.19662C23.1421 2.22711 23.2442 2.23787 23.3454 2.22815C23.4465 2.21843 23.5446 2.18846 23.6339 2.14007C23.7396 2.09808 23.8439 2.05192 23.9481 2.00783C24.9516 1.59755 26.0351 1.42008 27.117 1.48885C28.1989 1.55762 29.2512 1.87087 30.1947 2.4049C31.1381 2.93893 31.9481 3.67991 32.5639 4.57213C33.1797 5.46435 33.5853 6.48454 33.75 7.55606C33.7885 7.8164 33.7401 7.89054 33.47 7.88914C30.9149 7.88005 28.3613 7.88919 25.8055 7.88009C25.6344 7.89379 25.4623 7.87193 25.3 7.81593C25.1376 7.75994 24.9885 7.67101 24.8622 7.55469C24.7359 7.43837 24.6351 7.29719 24.566 7.14002C24.4968 6.98286 24.4608 6.81308 24.4604 6.64138C24.4612 6.46997 24.4977 6.30059 24.5675 6.14401C24.6372 5.98744 24.7388 5.8471 24.8656 5.73182C24.9925 5.61655 25.1419 5.52883 25.3044 5.47434C25.4669 5.41985 25.6389 5.3998 25.8096 5.41531C26.3625 5.40271 26.9161 5.40621 27.4697 5.41531C27.6489 5.38967 27.8316 5.40321 28.0051 5.45503C28.1787 5.50686 28.339 5.59575 28.4748 5.7155C28.6107 5.83526 28.7189 5.98306 28.7921 6.14871C28.8653 6.31436 28.9016 6.49387 28.8987 6.67495C28.9087 6.87154 28.9954 7.05638 29.1401 7.18983C29.2848 7.32328 29.4759 7.39472 29.6727 7.38879C29.7743 7.38036 29.8734 7.35161 29.9637 7.30422C30.054 7.25682 30.1337 7.19179 30.1984 7.11294C30.2631 7.03409 30.3114 6.94304 30.3402 6.84521C30.3691 6.74738 30.378 6.64472 30.3664 6.54339C30.3443 5.87862 30.0757 5.24589 29.6129 4.76819C29.1501 4.29049 28.526 4.002 27.8623 3.95893C27.5166 3.92603 27.3927 3.85743 27.4095 3.48582C27.4368 2.90007 27.112 2.54035 26.655 2.55295C26.2127 2.56554 25.9259 2.89944 25.9504 3.4754C25.9658 3.84071 25.8496 3.92398 25.4983 3.95688C24.8499 3.99527 24.2373 4.26729 23.774 4.72266C23.3108 5.17803 23.0283 5.78585 22.9789 6.43353C22.963 6.93131 23.0515 7.42691 23.2386 7.88846C22.1188 7.88846 21.0313 7.87585 19.9451 7.89615C19.6267 7.90245 19.5623 7.81639 19.612 7.51266C19.8054 6.3045 20.3016 5.16496 21.0543 4.20035C21.3994 3.75316 21.3895 3.3095 21.0487 3.03237C20.6855 2.73704 20.2467 2.83503 19.8821 3.30531C18.9368 4.49396 18.3361 5.91924 18.1452 7.42587C18.1025 7.76738 17.9996 7.90175 17.614 7.89965C14.7013 7.87936 11.7887 7.88774 8.87601 7.88914C8.11739 7.88914 7.89614 8.11241 7.89614 8.87593C7.89614 11.0566 7.89614 13.2371 7.89614 15.4173C7.89614 16.2662 7.89615 16.2479 7.06476 16.2745C6.91163 16.3059 6.75238 16.2757 6.62138 16.1904C6.49039 16.1051 6.3982 15.9717 6.36493 15.8189C6.13313 15.1887 5.71144 14.6459 5.15799 14.2656C4.60455 13.8853 3.94662 13.6861 3.27515 13.6956C2.58741 13.706 1.91974 13.9291 1.36378 14.334C0.807819 14.739 0.390817 15.3061 0.170002 15.9575C0.118915 16.1038 0.151863 16.2886 0 16.397V17.656C0.160261 17.7547 0.132909 17.9359 0.184696 18.0829C0.404005 18.6993 0.800239 19.2374 1.3238 19.6297C1.84736 20.0221 2.47503 20.2513 3.12822 20.2887C3.79059 20.3341 4.4507 20.1718 5.01653 19.8245C5.58235 19.4772 6.02574 18.9621 6.28514 18.351C6.49509 17.8219 6.75902 17.6567 7.265 17.7393C7.34564 17.7525 7.42783 17.7525 7.50847 17.7393C7.84929 17.6805 7.90045 17.8513 7.89905 18.1501C7.88879 20.9 7.88879 23.65 7.89905 26.4004C7.91671 26.516 7.88823 26.6339 7.81994 26.7289C7.75165 26.8239 7.64883 26.8883 7.53359 26.9084C6.88895 27.1248 6.32891 27.5388 5.93283 28.0915C5.53675 28.6442 5.32487 29.3077 5.32714 29.9877C5.31588 30.6757 5.52422 31.3494 5.9219 31.9109C6.31957 32.4725 6.88582 32.8926 7.53854 33.1103C7.65383 33.1315 7.75623 33.1972 7.82353 33.2932C7.89083 33.3891 7.91758 33.5077 7.8982 33.6233C7.8856 35.1203 7.89133 36.6172 7.89273 38.1148C7.89273 38.9063 8.11876 39.1359 8.89907 39.1359C20.241 39.1359 31.5828 39.1359 42.9247 39.1359C43.5775 39.164 44.229 39.0558 44.8378 38.8183C45.4465 38.5808 45.9991 38.2191 46.4604 37.7563C46.9217 37.2935 47.2816 36.7397 47.5171 36.1302C47.7527 35.5207 47.8587 34.8688 47.8284 34.216C47.8326 32.8332 47.8389 31.4496 47.8214 30.0668C47.796 29.9374 47.8228 29.8032 47.8958 29.6934C47.9688 29.5836 48.082 29.507 48.2112 29.4803C48.7302 29.3017 49.1805 28.9653 49.4991 28.5182C49.8177 28.0712 49.9886 27.5358 49.9881 26.9868C50 26.2387 49.9972 25.4899 49.9881 24.7411C50.0023 24.6358 49.9938 24.5288 49.9631 24.4271C49.9324 24.3255 49.8802 24.2316 49.81 24.1518C49.7399 24.0721 49.6536 24.0083 49.5567 23.9648C49.4598 23.9213 49.3546 23.8992 49.2484 23.8999ZM3.34452 18.8171C2.8596 18.8222 2.39201 18.6367 2.04242 18.3006C1.69283 17.9645 1.48909 17.5046 1.47518 17.0198C1.47222 16.7795 1.5168 16.541 1.60622 16.3179C1.69565 16.0949 1.82815 15.8916 1.99629 15.7199C2.16443 15.5482 2.36496 15.4114 2.58609 15.3173C2.80722 15.2232 3.04475 15.1737 3.28506 15.1716C3.52524 15.1683 3.7636 15.2129 3.98643 15.3025C4.20926 15.3922 4.41208 15.5253 4.58306 15.694C4.75404 15.8627 4.8897 16.0636 4.98235 16.2852C5.07501 16.5068 5.12282 16.7447 5.1228 16.9849C5.12336 17.4617 4.93789 17.92 4.60579 18.2621C4.27369 18.6043 3.82115 18.8034 3.34452 18.8171ZM9.36295 11.235C9.39282 10.699 9.39495 10.1618 9.36927 9.62548C9.36437 9.41973 9.41548 9.31893 9.63803 9.34553C9.73544 9.3519 9.83313 9.3519 9.93054 9.34553H42.8225C45.0522 9.34553 46.3573 10.6556 46.3587 12.8936C46.3587 14.2275 46.3442 15.5614 46.3686 16.8946C46.3756 17.2732 46.2588 17.3677 45.9012 17.3453C45.3978 17.313 44.8928 17.313 44.3894 17.3453C43.9961 17.3719 43.8569 17.269 43.8695 16.8477C43.9017 15.8077 43.8842 14.7657 43.8786 13.7251C43.9081 13.4642 43.8782 13.1999 43.7911 12.9521C43.704 12.7044 43.5619 12.4795 43.3756 12.2945C43.1892 12.1095 42.9634 11.9691 42.715 11.8838C42.4667 11.7985 42.2021 11.7705 41.9414 11.8019C31.2709 11.8019 20.6006 11.8061 9.93054 11.8145C9.43926 11.8208 9.32446 11.692 9.36295 11.235ZM8.60503 31.8219C8.12863 31.8195 7.67273 31.628 7.33744 31.2896C7.00216 30.9512 6.81497 30.4935 6.81701 30.0171C6.81317 29.7771 6.85743 29.5387 6.94721 29.3161C7.03699 29.0935 7.17056 28.8911 7.33984 28.7209C7.50911 28.5507 7.71075 28.4162 7.93288 28.3252C8.15501 28.2343 8.39302 28.1886 8.63305 28.1912C8.87319 28.1899 9.11123 28.2364 9.33322 28.328C9.55521 28.4196 9.75674 28.5544 9.92609 28.7247C10.0954 28.895 10.2292 29.0972 10.3196 29.3197C10.41 29.5422 10.4553 29.7804 10.4527 30.0206C10.4515 30.2608 10.4026 30.4984 10.3086 30.7195C10.2147 30.9406 10.0777 31.1408 9.90559 31.3084C9.73349 31.476 9.52974 31.6077 9.30623 31.6957C9.08271 31.7838 8.84384 31.8264 8.60366 31.8212L8.60503 31.8219ZM9.36791 18.0619C9.36791 17.8127 9.426 17.7323 9.68843 17.7337C11.9006 17.7442 14.1135 17.7406 16.3257 17.7378C16.3973 17.7299 16.4696 17.7396 16.5365 17.7661C16.6035 17.7926 16.663 17.835 16.7098 17.8897C18.0584 19.4867 19.4125 21.0788 20.8303 22.7493C19.8471 22.7493 18.9598 22.7437 18.0724 22.7493C17.7749 22.7493 17.8099 22.515 17.7462 22.3491C17.5064 21.7138 17.0783 21.1668 16.5191 20.7815C15.9599 20.3961 15.2964 20.1908 14.6173 20.1929C13.9382 20.2017 13.2781 20.4184 12.7259 20.8138C12.1737 21.2092 11.7562 21.7643 11.5291 22.4044C11.2452 23.2193 11.2913 24.1129 11.6574 24.8943C12.0235 25.6758 12.6806 26.2831 13.4885 26.5865C13.892 26.7398 14.322 26.8117 14.7535 26.7979C15.185 26.7842 15.6094 26.6852 16.0024 26.5066C16.3955 26.328 16.7493 26.0734 17.0435 25.7574C17.3376 25.4414 17.5662 25.0703 17.7161 24.6655C17.7445 24.5205 17.8286 24.3924 17.9502 24.3086C18.0718 24.2247 18.2215 24.1918 18.3671 24.2169C20.3966 24.2358 22.426 24.226 24.4457 24.226C24.5373 24.3722 24.4184 24.4262 24.3645 24.4898C23.1048 25.9805 21.8382 27.4648 20.5855 28.9589C20.5109 29.0615 20.4121 29.144 20.298 29.1992C20.1838 29.2544 20.0578 29.2805 19.9311 29.2753C17.3772 29.2622 14.8231 29.2622 12.2687 29.2753C12.1467 29.2956 12.0216 29.2671 11.9205 29.1958C11.8194 29.1246 11.7503 29.0163 11.7285 28.8945C11.5722 28.4216 11.3058 27.9926 10.9512 27.6427C10.5967 27.2929 10.1641 27.0324 9.68912 26.8825C9.45257 26.8013 9.36651 26.7104 9.36791 26.4514C9.37677 23.6563 9.37508 20.8598 9.36295 18.0619H9.36791ZM16.4747 23.4961C16.4706 23.9813 16.275 24.4453 15.9303 24.7869C15.5857 25.1285 15.1201 25.3201 14.6349 25.3199C14.1577 25.3149 13.701 25.1246 13.3615 24.7893C13.022 24.4539 12.8262 23.9998 12.8153 23.5227C12.8152 23.0376 13.0054 22.5717 13.3449 22.2252C13.6845 21.8787 14.1463 21.6792 14.6313 21.6695C15.1163 21.6717 15.5812 21.8642 15.9256 22.2057C16.27 22.5473 16.4664 23.0104 16.4726 23.4954L16.4747 23.4961ZM46.3483 34.4344C46.3514 34.8676 46.2665 35.297 46.0987 35.6964C45.9309 36.0958 45.6838 36.457 45.3722 36.758C45.0606 37.0591 44.6912 37.2937 44.2862 37.4476C43.8813 37.6016 43.4493 37.6716 43.0164 37.6536C37.4994 37.6583 31.9824 37.6583 26.4654 37.6536C20.9321 37.6536 15.3988 37.6571 9.86544 37.6641C9.45534 37.6641 9.33578 37.5612 9.36517 37.1567C9.40029 36.6369 9.40029 36.1153 9.36517 35.5954C9.34278 35.2371 9.47421 35.1756 9.80103 35.1798C12.5024 35.193 15.2037 35.1881 17.9058 35.186C18.1007 35.1929 18.2957 35.1803 18.4881 35.1482C18.6516 35.1248 18.8003 35.0408 18.9048 34.9129C19.0093 34.7849 19.062 34.6224 19.0522 34.4575C19.0683 34.293 19.0218 34.1284 18.9222 33.9965C18.8227 33.8645 18.6773 33.7748 18.5147 33.7451C18.3398 33.7096 18.1612 33.6952 17.9828 33.7024C15.2647 33.7024 12.5472 33.7023 9.82905 33.6918C9.67998 33.6918 9.42596 33.8563 9.36927 33.5162C9.31888 33.2125 9.53234 33.1832 9.72619 33.1125C10.1923 32.9605 10.6158 32.7005 10.9622 32.3536C11.3086 32.0067 11.5681 31.5828 11.7194 31.1165C11.8342 30.7736 12.007 30.7351 12.3101 30.7358C14.9302 30.7456 17.5503 30.7211 20.1705 30.7561C20.4424 30.7708 20.7136 30.7173 20.9595 30.6004C21.2054 30.4836 21.4182 30.3071 21.5785 30.087C23.1063 28.2472 24.6683 26.4361 26.2045 24.6032C26.2976 24.4741 26.4222 24.3709 26.5665 24.3035C26.7108 24.2362 26.87 24.2068 27.0289 24.2183C27.9715 24.247 28.9183 24.2281 29.8603 24.2281C30.6301 24.2281 30.9542 24.0132 30.9584 23.5031C30.9626 22.9929 30.6175 22.7486 29.8757 22.7486C27.6789 22.7486 25.4815 22.7382 23.2847 22.7585C23.1189 22.7675 22.9536 22.735 22.8036 22.664C22.6535 22.593 22.5235 22.4857 22.4253 22.3518C20.8794 20.5064 19.3076 18.6819 17.7665 16.8323C17.6233 16.6387 17.4344 16.4836 17.2167 16.3806C16.999 16.2777 16.7593 16.2302 16.5188 16.2423C14.2891 16.2675 12.0595 16.2423 9.83059 16.2605C9.48067 16.2605 9.34054 16.2045 9.36363 15.8161C9.39947 15.1168 9.39947 14.416 9.36363 13.7166C9.34404 13.3289 9.48347 13.2723 9.83059 13.2737C14.0762 13.2854 18.3235 13.2879 22.5729 13.2814H41.6629C42.397 13.2814 42.3971 13.2814 42.3971 14.0365C42.3971 15.0162 42.3859 15.9897 42.4041 16.966C42.4097 17.2641 42.3299 17.3551 42.0248 17.3481C41.115 17.3271 40.2052 17.3327 39.2912 17.3425C38.6835 17.3226 38.0779 17.4235 37.5094 17.6393C36.9409 17.8552 36.4208 18.1817 35.9794 18.5999C35.5379 19.0181 35.1839 19.5197 34.9376 20.0757C34.6914 20.6317 34.558 21.231 34.545 21.8389C34.3935 23.2485 34.4341 24.6722 34.666 26.0708C34.8943 27.07 35.4492 27.9645 36.2428 28.613C37.0365 29.2616 38.0238 29.6271 39.0485 29.6518C40.0401 29.6791 41.0338 29.6728 42.0261 29.6518C42.3229 29.6462 42.4118 29.7154 42.4055 30.0241C42.3838 31.0654 42.3782 32.1074 42.4055 33.1481C42.4173 33.5813 42.2753 33.708 41.8491 33.7031C37.8461 33.6898 33.8423 33.6953 29.8386 33.6953C27.2348 33.6953 24.6308 33.6953 22.0265 33.6953C21.8488 33.6648 21.6661 33.6917 21.5047 33.7721C21.3434 33.8526 21.2117 33.9823 21.1292 34.1426C21.0839 34.2387 21.0608 34.3438 21.0615 34.45C21.0622 34.5563 21.0867 34.661 21.1331 34.7566C21.1795 34.8522 21.2468 34.9362 21.3299 35.0024C21.4131 35.0686 21.51 35.1153 21.6136 35.1392C21.8051 35.1762 22.0002 35.191 22.1951 35.1833C28.7213 35.1833 35.2473 35.1833 41.7735 35.1833C43.2606 35.1833 43.873 34.5666 43.8765 33.0788C43.8765 32.0697 43.8905 31.0605 43.8688 30.0521C43.8618 29.7232 43.9633 29.6392 44.2789 29.6525C44.8633 29.6776 45.4504 29.672 46.0362 29.6525C46.2972 29.6448 46.3637 29.7329 46.3616 29.9849C46.349 31.472 46.3841 32.9543 46.3463 34.4337L46.3483 34.4344Z" fill="#04E2AF"/>
<path d="M40.7895 20.7813C40.4318 20.7812 40.0777 20.8519 39.7474 20.9892C39.4171 21.1265 39.1172 21.3278 38.8651 21.5815C38.6129 21.8351 38.4134 22.1362 38.278 22.4673C38.1426 22.7984 38.074 23.1529 38.0762 23.5106C38.0784 24.2246 38.3622 24.909 38.8658 25.4151C39.3695 25.9213 40.0524 26.2084 40.7664 26.2141C41.1241 26.2143 41.4784 26.1437 41.8087 26.0064C42.139 25.8691 42.4389 25.6678 42.6911 25.4141C42.9433 25.1604 43.1428 24.8594 43.2781 24.5282C43.4135 24.1971 43.482 23.8424 43.4797 23.4847C43.4784 22.7704 43.1949 22.0856 42.6911 21.5792C42.1872 21.0729 41.5038 20.786 40.7895 20.7813ZM40.7993 24.7178C40.6372 24.7212 40.4762 24.6924 40.3254 24.633C40.1746 24.5737 40.0371 24.485 39.921 24.372C39.8048 24.259 39.7123 24.1241 39.6487 23.975C39.5852 23.8259 39.5519 23.6656 39.5508 23.5036C39.5513 23.1764 39.6806 22.8625 39.9107 22.6297C40.1408 22.397 40.4532 22.2642 40.7804 22.26C41.0993 22.2642 41.4044 22.3915 41.6317 22.6153C41.859 22.8391 41.991 23.1421 42.0002 23.461C42.0064 23.6232 41.9799 23.785 41.9223 23.9368C41.8647 24.0886 41.7771 24.2273 41.6648 24.3446C41.5525 24.4618 41.4178 24.5552 41.2686 24.6194C41.1194 24.6835 40.9589 24.717 40.7965 24.7178H40.7993Z" fill="#04E2AF"/>
</g>
<defs>
<clipPath id="clip0_1112_4098">
<rect width="50" height="39.1359" fill="white"/>
</clipPath>
</defs>
</svg>
