<svg width="189" height="189" viewBox="0 0 189 189" fill="none" xmlns="http://www.w3.org/2000/svg">
<path d="M94.5 189C146.691 189 189 146.691 189 94.5C189 42.3091 146.691 0 94.5 0C42.3091 0 0 42.3091 0 94.5C0 146.691 42.3091 189 94.5 189Z" fill="#1A1C55"/>
<path d="M89.6394 51.299C85.7074 51.2161 81.9119 51.6064 78.2188 52.3515L77.8556 75.5204C82.0537 73.8608 85.4625 74.3509 89.5549 74.3235C101.511 74.4618 111.869 84.159 111.63 96.6568L110.773 148.094L135.811 148.494L136.592 97.0154C137.195 65.1283 119.642 52.2535 89.6394 51.299Z" fill="#F5FAFF"/>
<path d="M156.576 52.3533L123.362 51.813L123.338 52.3965C133.329 57.7146 141.08 66.37 144.777 76.9636L156.107 77.1544L156.576 52.3533Z" fill="#01E2AF"/>
<path d="M89.4769 147.76C93.4089 147.843 97.2044 147.452 100.897 146.707L101.261 123.538C97.0626 125.198 93.6538 124.708 89.5614 124.735C77.605 124.597 67.2475 114.9 67.486 102.402L68.2668 50.923L43.2292 50.5224L42.4483 102.001C41.9216 133.93 59.4744 146.805 89.4769 147.76Z" fill="#9D6AFC"/>
</svg>
