<svg width="675" height="399" viewBox="0 0 675 399" fill="none" xmlns="http://www.w3.org/2000/svg">
<g clip-path="url(#clip0_5409_25685)">
<g opacity="0.25">
<path opacity="0.17" d="M626.813 180.719C607.329 146.288 583.188 114.71 555.435 86.8421C525.401 56.7863 494.797 36.4321 455.354 23.3064C428.647 14.3658 400.799 9.32479 372.761 8.37366C320.677 6.56651 277.718 19.0263 234.948 50.3186C189.137 83.8936 146.272 121.844 101.602 157.131C96.9445 160.84 92.2874 164.454 87.5352 168.069C9.59943 227.895 -28.2279 334.327 24.4262 360.293H630.9C630.9 360.293 686.025 357.344 672.434 298.089C662.929 256.429 647.437 217.052 626.813 180.719Z" fill="#263238"/>
</g>
<path d="M13.8762 293.899C15.9672 294.85 21.0045 294.659 21.0045 294.659C21.0995 294.659 19.959 291.331 19.8639 291.14C18.7234 288.858 15.2068 284.958 12.3555 285.338C10.2645 285.624 9.12402 287.716 9.59923 289.619C10.0745 291.616 12.1654 293.138 13.8762 293.899Z" fill="#263238"/>
<path d="M15.6829 308.644C17.8689 308.929 22.3359 307.597 22.7161 307.502C23.4764 310.07 24.3318 312.543 25.4723 315.111C26.1377 316.538 26.803 317.965 27.4683 319.391C27.0881 318.821 26.7079 318.25 26.6129 318.155C24.9021 316.158 20.5301 313.399 17.8689 314.541C15.968 315.397 15.3977 317.679 16.3482 319.391C17.2986 321.199 19.6747 322.055 21.5756 322.34C23.4764 322.625 27.3732 321.579 28.4187 321.294C28.7038 321.864 28.989 322.34 29.2741 322.911C30.6047 325.479 31.9353 328.142 33.0758 330.71C33.5511 331.661 33.9312 332.517 34.3114 333.468C33.9312 332.897 33.6461 332.517 33.5511 332.422C31.8403 330.425 27.4683 327.666 24.807 328.808C22.9062 329.664 22.3359 331.946 23.2863 333.658C24.2368 335.466 26.6129 336.322 28.5137 336.607C30.3196 336.892 33.9312 335.941 35.1668 335.656C35.547 336.607 35.9271 337.558 36.2123 338.509C36.4024 339.175 36.6875 339.746 36.7825 340.411C36.9726 341.077 37.1627 341.743 37.3528 342.314C37.6379 343.55 37.9231 344.787 38.2082 346.023C38.3983 346.879 38.5884 347.64 38.6834 348.496C38.3032 347.545 37.4478 345.833 37.3528 345.643C36.0222 343.455 32.0304 340.031 29.2741 340.792C27.2782 341.267 26.3277 343.455 27.0881 345.357C27.7534 347.26 29.9394 348.496 31.8403 349.067C33.8362 349.733 38.3983 349.162 38.8735 349.067C39.1586 350.398 39.3487 351.73 39.6339 352.966C40.1091 355.725 40.4892 358.103 40.7744 360.195H42.6752C42.3901 358.007 41.9149 355.534 41.3446 352.586C41.0595 351.254 40.7744 349.733 40.3942 348.306C40.7744 348.211 42.6752 347.355 44.386 346.404C45.9067 348.021 49.6134 349.923 50.1837 350.113C49.7085 351.349 49.1382 352.586 48.663 353.727C47.6175 356.105 46.6671 358.293 45.7166 360.1H47.8076C48.568 358.388 49.4233 356.486 50.2787 354.393C50.849 353.062 51.3242 351.73 51.8945 350.303C52.4647 350.398 56.8368 351.349 58.9277 350.874C60.8286 350.493 63.1096 349.352 63.965 347.545C64.8204 345.738 64.0601 343.455 62.0642 342.789C59.3079 341.838 55.126 344.977 53.6053 347.069C53.5102 347.164 52.6548 348.591 52.1796 349.542C52.3697 348.972 52.6548 348.401 52.8449 347.83C53.3201 346.594 53.7003 345.452 54.0805 344.121C54.2706 343.455 54.4607 342.884 54.6507 342.219C54.8408 341.553 55.0309 340.887 55.126 340.221C55.5061 338.699 55.7913 337.082 56.0764 335.466C57.1219 335.846 60.8286 337.178 62.7295 336.987C64.6303 336.892 67.1015 336.131 68.1469 334.419C69.1924 332.707 68.8122 330.425 67.0064 329.473C64.4402 328.142 59.8781 330.615 57.9773 332.422C57.8822 332.517 56.7417 333.944 56.0764 334.8C56.2665 333.849 56.3615 332.897 56.5516 331.851C56.9318 328.998 57.2169 326.049 57.5021 323.196C57.5971 322.34 57.6921 321.389 57.7872 320.533C58.1674 320.628 62.5394 322.34 64.7254 322.15C66.6262 322.055 69.0974 321.294 70.1429 319.582C71.1883 317.87 70.8082 315.587 69.0023 314.636C66.4362 313.304 61.8741 315.777 59.9732 317.584C59.8781 317.679 58.1674 319.772 57.7872 320.343C57.9773 318.345 58.2624 316.443 58.5475 314.541C58.9277 311.877 59.498 309.309 60.2583 306.932C60.4484 307.027 65.0105 308.739 67.1965 308.549C69.0974 308.453 71.5685 307.692 72.614 305.98C73.6595 304.268 73.2793 301.986 71.4735 301.035C68.9073 299.703 64.3452 302.176 62.4443 303.983C62.2542 304.173 60.5435 306.361 60.1633 306.836C60.1633 306.646 60.2583 306.551 60.2583 306.361C61.0187 303.793 62.1592 301.32 63.2997 299.132C63.965 297.801 64.6303 296.659 65.3907 295.518C66.2461 295.898 69.9528 297.801 71.9487 297.801C73.8496 297.896 76.3207 297.42 77.6513 295.898C78.8869 294.377 78.7918 291.999 77.081 290.857C74.705 289.241 69.8577 291.143 67.8618 292.76C67.7668 292.855 66.7213 293.901 65.9609 294.567C66.2461 294.091 66.6262 293.521 66.9114 293.045C68.1469 291.238 69.3825 289.621 70.428 288.194C71.0933 287.433 71.6636 286.672 72.2338 286.007C73.2793 286.007 77.3662 285.912 79.077 285.056C80.7878 284.2 82.7837 282.678 83.2589 280.68C83.6391 278.683 82.4985 276.686 80.4076 276.495C77.5563 276.21 74.1347 280.11 73.0892 282.487C72.9942 282.678 71.9487 286.007 72.0437 286.007H72.1388C71.5685 286.577 70.9983 287.338 70.428 288.004C69.2875 289.431 68.0519 290.953 66.8163 292.76C65.5808 294.567 64.2502 296.564 63.0146 298.752C61.779 300.939 60.6385 303.412 59.7831 305.98V306.076C59.7831 305.22 59.7831 302.842 59.7831 302.651C59.498 300.083 57.312 295.328 54.4607 294.852C52.3697 294.472 50.6589 296.089 50.5639 298.086C50.3738 300.083 51.8945 302.176 53.3201 303.412C54.9359 304.839 59.4029 306.266 59.7831 306.361C59.0228 308.834 58.3574 311.497 57.8822 314.255C57.5971 315.777 57.407 317.394 57.1219 318.916C57.1219 318.155 57.1219 317.489 57.1219 317.394C56.8368 314.826 54.6507 310.07 51.7994 309.595C49.7085 309.214 47.9977 310.831 47.9026 312.829C47.7126 314.826 49.2333 316.918 50.6589 318.155C52.0846 319.487 55.8863 320.723 56.9318 321.008C56.8368 321.579 56.7417 322.245 56.7417 322.815C56.3615 325.669 56.0764 328.617 55.6012 331.471C55.4111 332.422 55.3161 333.468 55.126 334.419C55.126 333.754 55.126 333.183 55.126 333.183C54.8408 330.615 52.6548 325.859 49.8035 325.384C47.7126 325.003 46.0018 326.62 45.9067 328.617C45.7166 330.615 47.2373 332.707 48.663 333.944C50.0887 335.18 53.6053 336.417 54.7458 336.797C54.5557 337.748 54.3656 338.795 54.0805 339.746C53.8904 340.411 53.7954 341.077 53.5102 341.648C53.3201 342.314 53.1301 342.884 52.94 343.55C52.4647 344.787 52.0846 346.023 51.6093 347.164C51.3242 347.925 50.944 348.686 50.6589 349.542C50.849 348.591 51.0391 346.594 51.0391 346.404C51.0391 344.692 50.4688 341.933 49.2333 339.936C49.2333 339.651 49.2333 339.46 49.2333 339.175C48.9481 337.178 47.0473 335.751 45.0513 336.226C42.2951 336.987 40.4892 341.838 40.3942 344.406C40.3942 344.596 40.4892 346.213 40.5843 347.26C40.4892 346.689 40.2992 346.023 40.2041 345.452C39.919 344.216 39.5388 342.98 39.2537 341.648C39.0636 340.982 38.8735 340.411 38.6834 339.746C38.4933 339.08 38.2082 338.414 38.0181 337.748C37.4478 336.226 36.8776 334.705 36.1172 333.278C37.1627 332.993 41.0595 332.041 42.5802 330.9C44.1009 329.759 45.7166 327.761 45.7166 325.764C45.7166 323.767 44.1009 322.055 42.0099 322.245C39.1586 322.53 36.6875 327.096 36.1172 329.664C36.1172 329.854 35.9272 331.661 35.8321 332.707C35.4519 331.851 34.9767 330.9 34.5965 330.044C33.361 327.476 31.9353 324.908 30.6047 322.34C30.2245 321.579 29.7493 320.723 29.3691 319.962C29.7493 319.867 34.3114 318.821 36.0222 317.489C37.5429 316.348 39.1586 314.35 39.1586 312.353C39.1586 310.356 37.5429 308.644 35.4519 308.834C32.6006 309.119 30.1295 313.685 29.5592 316.253C29.5592 316.443 29.2741 319.106 29.2741 319.772C28.3237 318.06 27.4683 316.253 26.7079 314.541C25.5674 312.163 24.617 309.69 23.8566 307.217C24.0467 307.217 28.7989 306.076 30.6047 304.744C32.1254 303.603 33.7411 301.605 33.7411 299.608C33.7411 297.61 32.1254 295.898 30.0344 296.089C27.1831 296.374 24.712 300.939 24.1417 303.508C24.1417 303.698 23.8566 306.551 23.8566 307.122C23.8566 306.932 23.7616 306.836 23.6665 306.646C22.9062 304.078 22.431 301.415 22.2409 298.942C22.0508 297.515 22.0508 296.089 21.9557 294.757C22.9062 294.662 26.993 294.091 28.7038 293.045C30.3196 292.094 32.2204 290.287 32.4105 288.289C32.6006 286.292 31.175 284.39 29.084 284.39C26.2327 284.39 23.1913 288.67 22.431 291.143C22.431 291.238 22.0508 292.665 21.8607 293.711C21.8607 293.14 21.8607 292.474 21.8607 291.904C21.8607 289.716 21.9557 287.719 22.1458 285.912C22.2409 284.865 22.3359 284.009 22.431 283.153C23.2863 282.583 26.6129 280.205 27.6584 278.493C28.7038 276.876 29.4642 274.498 28.7038 272.596C27.9435 270.693 25.8525 269.742 24.0467 270.693C21.4805 272.025 20.8152 277.161 21.1954 279.729C21.1954 279.919 22.2409 283.343 22.2409 283.248C22.2409 283.248 22.2409 283.248 22.3359 283.248C22.2409 284.104 22.1458 284.96 22.0508 285.912C21.8607 287.719 21.6706 289.716 21.6706 291.904C21.5756 294.091 21.5756 296.469 21.8607 299.037C22.0508 301.51 22.431 304.173 23.1913 306.836V306.932C22.7161 306.171 21.3855 304.268 21.2904 304.078C19.5796 302.081 15.2076 299.323 12.5464 300.464C10.6455 301.32 10.0753 303.603 11.0257 305.315C11.4059 307.407 13.782 308.358 15.6829 308.644Z" fill="#263238"/>
<path d="M65.1996 295.045C65.1996 295.045 66.1501 291.716 66.1501 291.431C66.5302 288.863 65.6748 283.727 63.1087 282.49C61.2078 281.539 59.1168 282.681 58.4515 284.583C57.7862 286.485 58.6416 288.863 59.6871 290.48C60.9227 292.287 65.1996 295.045 65.1996 295.045Z" fill="#263238"/>
<path d="M604.573 293.899C606.664 294.85 611.702 294.659 611.702 294.659C611.797 294.659 610.656 291.331 610.561 291.14C609.421 288.858 605.904 284.958 603.053 285.338C600.962 285.624 599.821 287.716 600.296 289.619C600.867 291.616 602.863 293.138 604.573 293.899Z" fill="#263238"/>
<path d="M606.38 308.644C608.566 308.929 613.033 307.597 613.413 307.502C614.174 310.07 615.029 312.543 616.17 315.111C616.835 316.538 617.5 317.965 618.166 319.391C617.785 318.821 617.405 318.25 617.31 318.155C615.599 316.158 611.227 313.399 608.566 314.541C606.665 315.397 606.095 317.679 607.045 319.391C607.996 321.199 610.372 322.055 612.273 322.34C614.174 322.625 618.071 321.579 619.116 321.294C619.401 321.864 619.686 322.34 619.971 322.911C621.302 325.479 622.633 328.142 623.773 330.71C624.248 331.661 624.628 332.517 625.009 333.468C624.628 332.897 624.343 332.517 624.248 332.422C622.538 330.425 618.166 327.666 615.504 328.808C613.603 329.664 613.033 331.946 613.984 333.658C614.934 335.466 617.31 336.322 619.211 336.607C621.017 336.892 624.629 335.941 625.864 335.656C626.244 336.607 626.624 337.558 626.91 338.509C627.1 339.175 627.385 339.746 627.48 340.411C627.67 341.077 627.86 341.743 628.05 342.314C628.335 343.55 628.62 344.787 628.905 346.023C629.096 346.879 629.286 347.64 629.381 348.496C629.001 347.545 628.145 345.833 628.05 345.643C626.719 343.455 622.728 340.031 619.971 340.792C617.975 341.267 617.025 343.455 617.785 345.357C618.451 347.26 620.637 348.496 622.538 349.067C624.533 349.733 629.096 349.162 629.571 349.067C629.856 350.398 630.046 351.73 630.331 352.966C630.806 355.725 631.187 358.103 631.472 360.195H633.373C633.087 358.007 632.612 355.534 632.042 352.586C631.757 351.254 631.472 349.733 631.091 348.306C631.472 348.211 633.373 347.355 635.083 346.404C636.604 348.021 640.311 349.923 640.881 350.113C640.406 351.349 639.836 352.586 639.36 353.727C638.315 356.105 637.364 358.293 636.414 360.1H638.505C639.265 358.388 640.121 356.486 640.976 354.393C641.546 353.062 642.021 351.73 642.592 350.303C643.162 350.398 647.534 351.349 649.625 350.874C651.526 350.493 653.807 349.352 654.662 347.545C655.518 345.738 654.757 343.455 652.761 342.789C650.005 341.838 645.823 344.977 644.303 347.069C644.208 347.164 643.352 348.591 642.877 349.542C643.067 348.972 643.352 348.401 643.542 347.83C644.017 346.594 644.398 345.452 644.778 344.121C644.968 343.455 645.158 342.884 645.348 342.219C645.538 341.553 645.728 340.887 645.823 340.221C646.203 338.699 646.489 337.082 646.774 335.466C647.819 335.846 651.526 337.178 653.427 336.987C655.328 336.892 657.799 336.131 658.844 334.419C659.89 332.707 659.51 330.425 657.704 329.473C655.138 328.142 650.575 330.615 648.675 332.422C648.58 332.517 647.439 333.944 646.774 334.8C646.964 333.849 647.059 332.897 647.249 331.851C647.629 328.998 647.914 326.049 648.199 323.196C648.294 322.34 648.389 321.389 648.484 320.533C648.865 320.628 653.237 322.34 655.423 322.15C657.324 322.055 659.795 321.294 660.84 319.582C661.886 317.87 661.505 315.587 659.7 314.636C657.133 313.304 652.571 315.777 650.67 317.584C650.575 317.679 648.865 319.772 648.484 320.343C648.675 318.345 648.96 316.443 649.245 314.541C649.625 311.877 650.195 309.309 650.956 306.932C651.146 307.027 655.708 308.739 657.894 308.549C659.795 308.453 662.266 307.692 663.311 305.98C664.357 304.268 663.977 301.986 662.171 301.035C659.605 299.703 655.042 302.176 653.142 303.983C652.952 304.173 651.241 306.361 650.861 306.836C650.861 306.646 650.956 306.551 650.956 306.361C651.716 303.793 652.856 301.32 653.997 299.132C654.662 297.801 655.328 296.659 656.088 295.518C656.943 295.898 660.65 297.801 662.646 297.801C664.547 297.896 667.018 297.42 668.349 295.898C669.584 294.377 669.489 291.999 667.778 290.857C665.402 289.241 660.555 291.143 658.559 292.76C658.464 292.855 657.419 293.901 656.658 294.567C656.943 294.091 657.324 293.521 657.609 293.045C658.844 291.238 660.08 289.621 661.125 288.194C661.791 287.433 662.361 286.672 662.931 286.007C663.977 286.007 668.063 285.912 669.774 285.056C671.485 284.2 673.481 282.678 673.956 280.68C674.336 278.683 673.196 276.686 671.105 276.495C668.254 276.21 664.832 280.11 663.787 282.487C663.691 282.678 662.646 286.007 662.741 286.007H662.836C662.266 286.577 661.696 287.338 661.125 288.004C659.985 289.431 658.749 290.953 657.514 292.76C656.278 294.567 654.947 296.564 653.712 298.752C652.476 300.939 651.336 303.412 650.48 305.98V306.076C650.48 305.22 650.48 302.842 650.48 302.651C650.195 300.083 648.009 295.328 645.158 294.852C643.067 294.472 641.356 296.089 641.261 298.086C641.071 300.083 642.592 302.176 644.017 303.412C645.633 304.839 650.1 306.266 650.48 306.361C649.72 308.834 649.055 311.497 648.58 314.255C648.294 315.777 648.104 317.394 647.819 318.916C647.819 318.155 647.819 317.489 647.819 317.394C647.534 314.826 645.348 310.07 642.497 309.595C640.406 309.214 638.695 310.831 638.6 312.829C638.41 314.826 639.931 316.918 641.356 318.155C642.782 319.487 646.584 320.723 647.629 321.008C647.534 321.579 647.439 322.245 647.439 322.815C647.059 325.669 646.774 328.617 646.298 331.471C646.108 332.422 646.013 333.468 645.823 334.419C645.823 333.754 645.823 333.183 645.823 333.183C645.538 330.615 643.352 325.859 640.501 325.384C638.41 325.003 636.699 326.62 636.604 328.617C636.414 330.615 637.935 332.707 639.36 333.944C640.786 335.18 644.303 336.417 645.443 336.797C645.253 337.748 645.063 338.795 644.778 339.746C644.588 340.411 644.493 341.077 644.207 341.648C644.017 342.314 643.827 342.884 643.637 343.55C643.162 344.787 642.782 346.023 642.307 347.164C642.021 347.925 641.641 348.686 641.356 349.542C641.546 348.591 641.736 346.594 641.736 346.404C641.736 344.692 641.166 341.933 639.931 339.936C639.931 339.651 639.931 339.46 639.931 339.175C639.645 337.178 637.745 335.751 635.749 336.226C632.992 336.987 631.187 341.838 631.091 344.406C631.091 344.596 631.187 346.213 631.282 347.26C631.187 346.689 630.996 346.023 630.901 345.452C630.616 344.216 630.236 342.98 629.951 341.648C629.761 340.982 629.571 340.411 629.381 339.746C629.191 339.08 628.905 338.414 628.715 337.748C628.145 336.226 627.575 334.705 626.815 333.278C627.86 332.993 631.757 332.041 633.277 330.9C634.798 329.759 636.414 327.761 636.414 325.764C636.414 323.767 634.798 322.055 632.707 322.245C629.856 322.53 627.385 327.096 626.815 329.664C626.815 329.854 626.624 331.661 626.529 332.707C626.149 331.851 625.674 330.9 625.294 330.044C624.058 327.476 622.633 324.908 621.302 322.34C620.922 321.579 620.447 320.723 620.066 319.962C620.447 319.867 625.009 318.821 626.719 317.489C628.24 316.348 629.856 314.35 629.856 312.353C629.856 310.356 628.24 308.644 626.149 308.834C623.298 309.119 620.827 313.685 620.256 316.253C620.256 316.443 619.971 319.106 619.971 319.772C619.021 318.06 618.166 316.253 617.405 314.541C616.265 312.163 615.314 309.69 614.554 307.217C614.744 307.217 619.496 306.076 621.302 304.744C622.823 303.603 624.438 301.605 624.438 299.608C624.438 297.61 622.823 295.898 620.732 296.089C617.88 296.374 615.409 300.939 614.839 303.508C614.839 303.698 614.554 306.551 614.554 307.122C614.554 306.932 614.459 306.836 614.364 306.646C613.603 304.078 613.128 301.415 612.938 298.942C612.748 297.515 612.748 296.089 612.653 294.757C613.603 294.662 617.69 294.091 619.401 293.045C621.017 292.094 622.918 290.287 623.108 288.289C623.298 286.292 621.872 284.39 619.781 284.39C616.93 284.39 613.889 288.67 613.128 291.143C613.128 291.238 612.748 292.665 612.558 293.711C612.558 293.14 612.558 292.474 612.558 291.904C612.558 289.716 612.653 287.719 612.843 285.912C612.938 284.865 613.033 284.009 613.128 283.153C613.984 282.583 617.31 280.205 618.356 278.493C619.401 276.876 620.161 274.498 619.401 272.596C618.641 270.693 616.55 269.742 614.744 270.693C612.178 272.025 611.512 277.161 611.893 279.729C611.893 279.919 612.938 283.343 612.938 283.248C612.938 283.248 612.938 283.248 613.033 283.248C612.938 284.104 612.843 284.96 612.748 285.912C612.558 287.719 612.368 289.716 612.368 291.904C612.273 294.091 612.273 296.469 612.558 299.037C612.748 301.51 613.128 304.173 613.889 306.836V306.932C613.413 306.171 612.083 304.268 611.988 304.078C610.277 302.081 605.905 299.323 603.244 300.464C601.343 301.32 600.773 303.603 601.723 305.315C602.103 307.407 604.479 308.358 606.38 308.644Z" fill="#263238"/>
<path d="M655.897 295.045C655.897 295.045 656.847 291.716 656.847 291.431C657.227 288.863 656.372 283.727 653.806 282.49C651.905 281.539 649.814 282.681 649.149 284.583C648.483 286.485 649.339 288.863 650.384 290.48C651.62 292.287 655.897 295.045 655.897 295.045Z" fill="#263238"/>
<path d="M6.55859 360.195H674.525" stroke="#263238" stroke-miterlimit="10" stroke-linecap="round" stroke-linejoin="round"/>
<path d="M511.524 78.8516C511.143 79.0418 500.118 91.9772 498.122 115.66C497.647 115.946 515.896 107.29 511.524 78.8516Z" stroke="#263238" stroke-miterlimit="10" stroke-linecap="round" stroke-linejoin="round"/>
<path d="M489.188 63.7266C489.283 64.3924 487.382 82.9394 497.362 102.628C497.362 103.484 506.106 81.7981 489.188 63.7266Z" stroke="#263238" stroke-miterlimit="10" stroke-linecap="round" stroke-linejoin="round"/>
<path d="M479.02 87.2188C479.4 87.5992 481.681 104.72 497.078 116.704C497.553 117.084 497.838 93.5913 479.02 87.2188Z" stroke="#263238" stroke-miterlimit="10" stroke-linecap="round" stroke-linejoin="round"/>
<path d="M516.279 103.484C515.804 103.675 502.688 114.232 496.7 137.44C496.13 137.725 515.519 132.113 516.279 103.484Z" stroke="#263238" stroke-miterlimit="10" stroke-linecap="round" stroke-linejoin="round"/>
<path d="M478.926 106.812C479.211 107.098 479.401 124.028 493.372 137.154C493.753 137.534 496.699 114.802 478.926 106.812Z" stroke="#263238" stroke-miterlimit="10" stroke-linecap="round" stroke-linejoin="round"/>
<path d="M514.662 131.352C514.187 131.447 499.36 139.151 489 160.837C488.43 160.932 508.484 159.125 514.662 131.352Z" stroke="#263238" stroke-miterlimit="10" stroke-linecap="round" stroke-linejoin="round"/>
<path d="M477.31 127.453C477.5 127.738 474.459 144.383 485.769 159.887C486.149 160.362 493.372 138.486 477.31 127.453Z" stroke="#263238" stroke-miterlimit="10" stroke-linecap="round" stroke-linejoin="round"/>
<path d="M507.82 158.266C507.345 158.266 491.282 162.926 477.026 182.519C476.361 182.519 496.51 184.327 507.82 158.266Z" stroke="#263238" stroke-miterlimit="10" stroke-linecap="round" stroke-linejoin="round"/>
<path d="M471.893 147.234C472.083 147.615 465.905 163.309 473.984 180.904C474.269 181.38 485.484 161.216 471.893 147.234Z" stroke="#263238" stroke-miterlimit="10" stroke-linecap="round" stroke-linejoin="round"/>
<path d="M496.032 183.379C495.557 183.284 479.019 184.901 460.961 201.64C460.2 201.545 479.875 207.062 496.032 183.379Z" stroke="#263238" stroke-miterlimit="10" stroke-linecap="round" stroke-linejoin="round"/>
<path d="M462.768 165.875C462.863 166.255 453.738 180.713 458.11 199.545C458.396 200.021 473.507 182.139 462.768 165.875Z" stroke="#263238" stroke-miterlimit="10" stroke-linecap="round" stroke-linejoin="round"/>
<path d="M479.401 206.108C478.925 205.917 462.388 204.396 440.908 217.711C440.243 217.426 458.871 226.462 479.401 206.108Z" stroke="#263238" stroke-miterlimit="10" stroke-linecap="round" stroke-linejoin="round"/>
<path d="M450.126 182.523C450.126 182.904 438.246 195.554 438.626 215.052C438.816 215.623 457.54 200.69 450.126 182.523Z" stroke="#263238" stroke-miterlimit="10" stroke-linecap="round" stroke-linejoin="round"/>
<path d="M458.396 225.512C457.921 225.227 441.954 220.756 417.242 229.792C416.672 229.412 433.685 241.871 458.396 225.512Z" stroke="#263238" stroke-miterlimit="10" stroke-linecap="round" stroke-linejoin="round"/>
<path d="M434.16 196.789C434.16 197.17 419.523 207.537 415.531 226.845C415.626 227.416 437.866 216.097 434.16 196.789Z" stroke="#263238" stroke-miterlimit="10" stroke-linecap="round" stroke-linejoin="round"/>
<path d="M162.619 78.8516C162.999 79.0418 174.024 91.9772 176.02 115.66C176.59 115.946 158.342 107.29 162.619 78.8516Z" stroke="#263238" stroke-miterlimit="10" stroke-linecap="round" stroke-linejoin="round"/>
<path d="M185.049 63.7266C184.954 64.3924 186.855 82.9394 176.875 102.628C176.78 103.484 168.036 81.7981 185.049 63.7266Z" stroke="#263238" stroke-miterlimit="10" stroke-linecap="round" stroke-linejoin="round"/>
<path d="M195.123 87.2188C194.743 87.5992 192.462 104.72 177.065 116.704C176.59 117.084 176.305 93.5913 195.123 87.2188Z" stroke="#263238" stroke-miterlimit="10" stroke-linecap="round" stroke-linejoin="round"/>
<path d="M157.867 103.484C158.342 103.675 171.458 114.232 177.446 137.44C178.016 137.725 158.628 132.113 157.867 103.484Z" stroke="#263238" stroke-miterlimit="10" stroke-linecap="round" stroke-linejoin="round"/>
<path d="M195.315 106.812C195.029 107.098 194.839 124.028 180.868 137.154C180.393 137.534 177.446 114.802 195.315 106.812Z" stroke="#263238" stroke-miterlimit="10" stroke-linecap="round" stroke-linejoin="round"/>
<path d="M159.482 131.352C159.958 131.447 174.784 139.151 185.144 160.837C185.714 160.932 165.66 159.125 159.482 131.352Z" stroke="#263238" stroke-miterlimit="10" stroke-linecap="round" stroke-linejoin="round"/>
<path d="M196.835 127.453C196.645 127.738 199.686 144.383 188.376 159.887C187.996 160.362 180.868 138.486 196.835 127.453Z" stroke="#263238" stroke-miterlimit="10" stroke-linecap="round" stroke-linejoin="round"/>
<path d="M166.326 158.266C166.801 158.266 182.864 162.926 197.12 182.519C197.786 182.519 177.636 184.327 166.326 158.266Z" stroke="#263238" stroke-miterlimit="10" stroke-linecap="round" stroke-linejoin="round"/>
<path d="M202.252 147.234C202.062 147.615 208.24 163.309 200.162 180.904C199.876 181.38 188.661 161.216 202.252 147.234Z" stroke="#263238" stroke-miterlimit="10" stroke-linecap="round" stroke-linejoin="round"/>
<path d="M178.207 183.379C178.682 183.284 195.22 184.901 213.278 201.64C213.943 201.545 194.269 207.062 178.207 183.379Z" stroke="#263238" stroke-miterlimit="10" stroke-linecap="round" stroke-linejoin="round"/>
<path d="M211.377 165.875C211.282 166.255 220.406 180.713 216.034 199.545C215.749 200.021 200.637 182.139 211.377 165.875Z" stroke="#263238" stroke-miterlimit="10" stroke-linecap="round" stroke-linejoin="round"/>
<path d="M194.744 206.108C195.219 205.917 211.757 204.396 233.237 217.711C233.902 217.426 215.369 226.462 194.744 206.108Z" stroke="#263238" stroke-miterlimit="10" stroke-linecap="round" stroke-linejoin="round"/>
<path d="M224.018 182.523C224.018 182.904 235.899 195.554 235.518 215.052C235.423 215.623 216.605 200.69 224.018 182.523Z" stroke="#263238" stroke-miterlimit="10" stroke-linecap="round" stroke-linejoin="round"/>
<path d="M215.748 225.512C216.223 225.227 232.191 220.756 256.902 229.792C257.567 229.412 240.459 241.871 215.748 225.512Z" stroke="#263238" stroke-miterlimit="10" stroke-linecap="round" stroke-linejoin="round"/>
<path d="M239.984 196.789C239.984 197.17 254.621 207.537 258.613 226.845C258.518 227.416 236.372 216.097 239.984 196.789Z" stroke="#263238" stroke-miterlimit="10" stroke-linecap="round" stroke-linejoin="round"/>
<path d="M457.159 123.458L424.274 37.0952H434.919C437.675 37.0952 439.861 34.6222 439.291 31.7688C438.911 29.6763 436.915 28.2496 434.824 28.2496H409.637C408.877 28.2496 408.212 28.4399 407.641 28.7252L357.648 13.8875C356.698 11.795 354.607 10.2732 352.136 10.2732L345.673 9.03675V6.75404C345.673 3.32996 342.917 0.476562 339.4 0.476562C335.978 0.476562 333.127 3.23485 333.127 6.75404V8.94164L325.904 10.3683C323.147 10.3683 320.866 12.1755 320.201 14.7435L272.679 28.8203C272.109 28.535 271.349 28.3447 270.683 28.3447H245.497C243.406 28.3447 241.505 29.7714 241.03 31.8639C240.46 34.7173 242.646 37.1903 245.402 37.1903H255.286V38.1414L222.781 123.458H221.546C221.356 123.458 221.166 123.553 221.071 123.743C220.976 123.934 221.071 124.124 221.166 124.314L229.149 131.257C229.244 131.352 229.339 131.352 229.434 131.352C229.434 131.352 282.564 131.352 282.659 131.257C282.659 131.257 294.254 124.029 294.349 123.743C294.444 123.553 291.213 123.838 291.118 123.553L258.328 37.0952H270.588C272.204 37.0952 273.63 36.144 274.39 34.8124L321.817 20.7357C322.862 21.6868 324.288 22.3526 325.809 22.3526L333.032 21.021V25.5865H337.309V192.891H331.606V200.214H288.647V206.492H389.963V200.214H347.003V192.891H341.301V25.4913H345.578V20.9259L352.041 22.2575C353.847 22.2575 355.462 21.4015 356.508 20.165L405.835 34.8124C406.596 36.144 408.021 37.0952 409.637 37.0952H421.138V38.0463L388.728 123.363H387.492C387.302 123.363 387.112 123.458 387.017 123.648C386.922 123.838 387.017 124.029 387.112 124.219L395.096 131.162C395.191 131.257 395.286 131.257 395.381 131.257C395.381 131.257 448.51 131.257 448.605 131.162C448.605 131.162 460.2 123.934 460.295 123.648C460.486 123.363 457.254 123.648 457.159 123.458ZM255.286 123.363H224.872L255.286 43.3726V123.363ZM257.662 123.363V40.6143L289.122 123.363H257.662ZM339.495 14.3631C338.259 14.3631 337.309 13.412 337.309 12.1755C337.309 10.939 338.259 9.98789 339.495 9.98789C340.731 9.98789 341.681 10.939 341.681 12.1755C341.681 13.412 340.731 14.3631 339.495 14.3631ZM421.138 123.363H390.724L421.138 43.3726V123.363ZM423.514 123.363V40.6143L454.973 123.363H423.514Z" stroke="#263238" stroke-miterlimit="10" stroke-linecap="round" stroke-linejoin="round"/>
<path d="M272.205 234.07C272.205 234.07 270.209 256.897 270.209 258.229C270.209 259.561 243.787 322.621 241.696 328.423C239.605 334.225 235.518 345.448 236.944 350.394C238.274 355.34 245.783 360.095 250.155 361.522C254.432 362.949 263.081 362.854 264.697 362.568C266.312 362.283 274.676 362.378 274.676 362.378L282.85 342.785L275.627 339.17L286.557 307.593L282.09 269.548L272.205 234.07Z" fill="#8E6AF7" stroke="#263238" stroke-miterlimit="10" stroke-linecap="round" stroke-linejoin="round"/>
<path d="M275.627 339.268C275.627 339.268 258.614 331.469 249.775 331.849" stroke="white" stroke-miterlimit="10" stroke-linecap="round" stroke-linejoin="round"/>
<path d="M290.073 333.371L287.887 360.193H405.17C400.988 335.844 400.988 316.821 400.988 316.821C400.988 316.821 406.881 269.455 406.881 263.843C406.881 258.232 411.348 242.062 410.303 239.304C409.162 236.546 384.451 229.032 373.806 225.227C363.161 221.423 347.954 218.094 347.954 218.094L320.201 221.137C320.201 221.137 287.601 227.13 280.663 228.271C273.63 229.412 272.775 231.124 272.204 234.168C271.634 237.307 281.994 269.74 281.994 269.74L290.073 333.371Z" fill="#8E6AF7" stroke="#263238" stroke-miterlimit="10" stroke-linecap="round" stroke-linejoin="round"/>
<path d="M316.59 237.969C316.59 237.969 318.776 252.712 321.627 264.886C324.478 277.061 332.272 295.132 332.272 295.132C332.272 295.132 351.281 264.221 354.132 249.954C356.983 235.592 357.839 231.216 357.839 231.216L316.78 230.836L316.59 237.969Z" fill="#7FE0AF" stroke="#263238" stroke-miterlimit="10" stroke-linecap="round" stroke-linejoin="round"/>
<path d="M320.962 211.531C320.962 211.531 317.065 221.328 315.069 225.132C313.073 228.937 301.763 245.106 302.333 246.342C302.999 247.674 308.701 245.867 310.222 245.201C311.743 244.44 318.776 241.777 318.776 241.777C318.776 241.777 317.255 245.106 317.92 246.152C318.586 247.198 329.041 256.9 329.041 256.9L337.309 256.995C337.309 256.995 338.64 255.378 340.161 254.047C341.681 252.715 351.946 246.152 354.607 244.345C357.269 242.538 357.459 237.687 357.459 237.687C357.459 237.687 370.955 245.011 371.62 242.443C372.285 239.78 368.769 236.641 365.252 227.605C361.736 218.569 360.5 212.672 357.649 208.392C354.797 204.112 353.752 203.922 353.752 203.922L320.962 211.531Z" fill="#7FE0AF" stroke="#263238" stroke-miterlimit="10" stroke-linecap="round" stroke-linejoin="round"/>
<path d="M323.814 217.144C323.814 217.144 324.67 241.207 324.86 245.297C325.05 249.482 333.604 268.124 335.125 265.651C336.645 263.178 346.53 244.631 349.571 237.783C352.613 230.935 353.753 217.048 354.228 214.195C354.704 211.342 355.084 198.406 355.084 198.406C355.084 198.406 343.679 215.717 339.116 218.285C334.554 220.948 323.814 217.144 323.814 217.144Z" fill="white" stroke="#263238" stroke-miterlimit="10" stroke-linecap="round" stroke-linejoin="round"/>
<path d="M338.166 223.608L324.385 231.978L323.814 217.141L338.166 223.608Z" fill="#263238" stroke="#263238" stroke-miterlimit="10" stroke-linecap="round" stroke-linejoin="round"/>
<path d="M282.849 342.883C282.849 342.883 308.701 346.212 310.602 346.117C312.503 346.022 320.581 350.777 323.528 352.87C326.474 355.057 332.272 360.003 332.272 360.003L302.143 360.669C302.143 360.669 298.721 359.908 296.915 360.003C295.11 360.098 292.639 361.525 287.411 361.525C282.184 361.525 276.291 358.957 276.291 358.957L282.849 342.883Z" fill="white" stroke="#263238" stroke-miterlimit="10" stroke-linecap="round" stroke-linejoin="round"/>
<path d="M292.543 355.628C292.543 355.628 298.151 354.391 299.956 355.247C301.762 356.103 308.89 360.193 308.89 360.193" stroke="#263238" stroke-miterlimit="10" stroke-linecap="round" stroke-linejoin="round"/>
<path d="M297.01 351.539C297.01 351.539 305.564 351.444 306.989 351.919C308.415 352.395 317.159 360.099 317.159 360.099" stroke="#263238" stroke-miterlimit="10" stroke-linecap="round" stroke-linejoin="round"/>
<path d="M305.184 348.688C305.184 348.688 312.027 348.688 313.072 349.639C314.118 350.59 324.192 358.674 324.953 359.626" stroke="#263238" stroke-miterlimit="10" stroke-linecap="round" stroke-linejoin="round"/>
<path d="M372.285 350.777L367.818 340.885L378.368 339.648C378.463 339.648 379.319 347.923 372.285 350.777Z" fill="white" stroke="#263238" stroke-miterlimit="10" stroke-linecap="round" stroke-linejoin="round"/>
<path d="M390.914 259.375C390.914 259.375 376.563 277.636 376.277 282.107C375.992 286.577 382.455 323.766 382.455 323.766L369.814 326.81C369.814 326.81 373.141 335.656 373.141 340.697C373.141 345.738 372.286 350.874 372.286 350.874C372.286 350.874 397.282 355.82 404.03 355.059C410.778 354.203 412.774 351.635 416.956 345.547C421.138 339.46 416.101 329.283 413.915 323.766C411.634 318.25 412.489 315.396 412.489 315.396L406.121 257.758" fill="#8E6AF7"/>
<path d="M390.914 259.375C390.914 259.375 376.563 277.636 376.277 282.107C375.992 286.577 382.455 323.766 382.455 323.766L369.814 326.81C369.814 326.81 373.141 335.656 373.141 340.697C373.141 345.738 372.286 350.874 372.286 350.874C372.286 350.874 397.282 355.82 404.03 355.059C410.778 354.203 412.774 351.635 416.956 345.547C421.138 339.46 416.101 329.283 413.915 323.766C411.634 318.25 412.489 315.396 412.489 315.396L406.121 257.758" stroke="#263238" stroke-miterlimit="10" stroke-linecap="round" stroke-linejoin="round"/>
<path d="M382.455 323.764C382.455 323.764 397.567 320.34 406.881 320.055L382.455 323.764Z" fill="white"/>
<path d="M382.455 323.764C382.455 323.764 397.567 320.34 406.881 320.055" stroke="#263238" stroke-miterlimit="10" stroke-linecap="round" stroke-linejoin="round"/>
<path d="M335.123 305.698L330.941 282.586C330.941 282.586 306.705 283.727 295.965 284.298C285.225 284.869 253.195 283.918 253.195 283.918C253.195 283.918 271.634 332.615 273.25 336.515C274.865 340.415 276.196 343.744 276.196 343.744C276.196 343.744 294.919 346.978 313.548 346.502C332.272 346.026 340.635 341.461 340.635 341.461L335.123 305.698Z" fill="white" stroke="#263238" stroke-miterlimit="10" stroke-linecap="round" stroke-linejoin="round"/>
<path d="M369.814 326.717L360.975 323.198C360.975 323.198 345.863 311.594 344.437 310.262C343.011 308.931 335.123 305.602 335.123 305.602L336.929 314.923C336.929 314.923 309.841 327.097 308.035 328.524C306.23 329.951 310.031 331.282 310.031 331.282C310.031 331.282 306.42 333.565 308.226 334.706C310.031 335.848 316.209 335.562 316.209 335.562C316.209 335.562 320.011 337.655 324.003 338.035C327.995 338.511 337.119 338.891 337.119 338.891C337.119 338.891 336.168 340.508 333.127 341.459C330.181 342.41 321.151 345.264 322.387 346.881C323.623 348.403 332.177 346.881 332.177 346.881C332.177 346.881 348.524 343.266 349.094 343.266C349.665 343.266 354.892 344.408 357.458 344.313C360.024 344.218 366.012 343.171 366.012 343.171L373.14 343.076C373.045 343.266 372.855 331.282 369.814 326.717Z" fill="white" stroke="#263238" stroke-miterlimit="10" stroke-linecap="round" stroke-linejoin="round"/>
<path d="M336.928 315.018L341.87 312.641" stroke="#263238" stroke-miterlimit="10" stroke-linecap="round" stroke-linejoin="round"/>
<path d="M310.031 331.284L337.309 322.344" stroke="#263238" stroke-miterlimit="10" stroke-linecap="round" stroke-linejoin="round"/>
<path d="M316.209 335.659L341.681 331.094" stroke="#263238" stroke-miterlimit="10" stroke-linecap="round" stroke-linejoin="round"/>
<path d="M337.023 339.085L344.247 338.609" stroke="#263238" stroke-miterlimit="10" stroke-linecap="round" stroke-linejoin="round"/>
<path d="M340.732 137.531C340.732 137.531 342.348 128.685 345.104 128.115C347.861 127.544 365.254 128.876 368.485 134.012C371.717 139.243 372.952 157.029 371.336 158.931C369.721 160.834 359.836 162.641 358.601 162.641C357.46 162.641 353.563 149.896 347.29 145.045C341.208 140.289 340.732 137.531 340.732 137.531Z" fill="#263238" stroke="#263238" stroke-miterlimit="10" stroke-linecap="round" stroke-linejoin="round"/>
<path d="M310.318 140.291C310.318 140.291 302.714 144.001 301.288 148.471C299.863 152.942 299.673 157.792 299.673 157.792C299.673 157.792 289.978 161.121 291.119 168.54C292.259 175.864 300.338 180.429 301.003 180.905C301.669 181.38 308.607 192.604 308.607 192.604L309.272 183.092C309.272 183.092 308.797 181.475 319.442 180.619C330.087 179.763 337.405 180.905 340.446 180.049C343.488 179.288 344.628 179.003 344.628 179.003C344.628 179.003 345.294 179.859 348.525 181.666C351.757 183.378 356.129 187.182 357.744 185.946C359.36 184.709 361.451 174.247 361.451 174.247C361.451 174.247 362.877 156.461 362.877 153.227C362.877 149.993 355.748 143.525 353.847 142.003C352.042 140.482 336.835 134.109 333.318 133.063C329.897 132.017 319.727 133.348 315.83 135.821C311.933 138.104 310.318 140.291 310.318 140.291Z" fill="#263238" stroke="#263238" stroke-miterlimit="10" stroke-linecap="round" stroke-linejoin="round"/>
<path d="M304.9 178.812C304.9 178.812 311.363 200.973 312.029 205.539C312.599 209.533 317.446 213.433 320.107 216.096C322.864 218.854 332.463 229.222 336.455 225.417C339.021 223.039 348.62 213.623 351.377 209.819C354.133 206.014 354.703 200.402 355.654 196.978C356.604 193.459 356.604 193.459 356.604 193.459C356.604 193.459 361.261 190.511 361.927 186.611C362.592 182.616 364.968 173.771 361.451 174.151C358.03 174.532 357.745 180.048 357.555 181.665C357.365 183.282 355.464 181.76 354.323 180.619C353.183 179.477 350.141 179.382 348.811 177.861C347.385 176.339 350.711 164.164 349.096 165.115C347.48 166.067 346.339 174.722 335.98 175.292C325.62 175.958 318.492 174.341 318.492 174.341C318.492 174.341 313.739 181.95 304.9 178.812Z" fill="white" stroke="#263238" stroke-miterlimit="10" stroke-linecap="round" stroke-linejoin="round"/>
<path d="M327.711 187.559C327.711 187.559 307.562 186.798 306.992 187.368C306.422 187.939 308.323 195.073 310.033 197.355C311.744 199.543 320.488 199.258 323.149 198.021C325.811 196.785 327.711 187.559 327.711 187.559Z" stroke="#263238" stroke-miterlimit="10" stroke-linecap="round" stroke-linejoin="round"/>
<path d="M331.322 187.467C331.322 187.467 334.934 196.978 337.025 198.119C339.116 199.166 344.438 199.546 347.29 199.071C350.141 198.595 352.232 196.978 352.612 196.217C352.992 195.456 353.943 186.516 353.943 186.516L331.322 187.467Z" stroke="#263238" stroke-miterlimit="10" stroke-linecap="round" stroke-linejoin="round"/>
<path d="M331.323 187.469L327.711 187.564" stroke="#263238" stroke-miterlimit="10" stroke-linecap="round" stroke-linejoin="round"/>
<path d="M353.943 186.422L357.555 178.812" stroke="#263238" stroke-miterlimit="10" stroke-linecap="round" stroke-linejoin="round"/>
<path d="M315.164 193.176C315.164 193.176 319.346 196.6 322.958 192.891" stroke="#263238" stroke-miterlimit="10" stroke-linecap="round" stroke-linejoin="round"/>
<path d="M337.975 193.077C337.975 193.077 343.297 195.36 345.958 192.602" stroke="#263238" stroke-miterlimit="10" stroke-linecap="round" stroke-linejoin="round"/>
<path d="M323.908 186.989C323.908 186.989 317.255 184.421 312.123 185.943" stroke="#263238" stroke-miterlimit="10" stroke-linecap="round" stroke-linejoin="round"/>
<path d="M334.553 185.942C334.553 185.942 342.917 184.325 347.669 185.276" stroke="#263238" stroke-miterlimit="10" stroke-linecap="round" stroke-linejoin="round"/>
<path d="M326.76 202.781C326.76 202.781 326.57 206.396 326.951 206.966C327.331 207.537 328.851 209.154 330.372 208.964C331.893 208.678 334.934 206.681 334.934 206.681" stroke="#263238" stroke-miterlimit="10" stroke-linecap="round" stroke-linejoin="round"/>
<path d="M325.049 211.243C325.049 211.243 330.371 214.857 336.264 210.672" stroke="#263238" stroke-miterlimit="10" stroke-linecap="round" stroke-linejoin="round"/>
<path d="M498.503 143.911C498.503 143.911 509.433 122.796 513.71 122.891C517.987 123.081 517.987 130.405 517.987 130.405C517.987 130.405 526.255 124.127 527.396 126.6C528.441 129.073 528.441 129.073 528.441 129.073C528.441 129.073 548.21 134.114 555.814 143.435C563.512 152.757 567.219 162.839 563.703 170.257C560.281 177.581 553.818 202.025 553.818 202.025L556.479 212.107L526.921 229.608L519.982 216.958C519.982 216.958 504.87 221.428 502.875 219.526C500.879 217.624 492.895 192.989 492.895 192.989L483.676 186.617C483.676 186.617 491.754 168.831 492.42 163.98C493.18 159.129 496.031 149.903 498.503 143.911Z" fill="white" stroke="#263238" stroke-miterlimit="10" stroke-linecap="round" stroke-linejoin="round"/>
<path d="M496.791 198.599C496.791 198.599 498.882 200.12 501.733 194.984" stroke="#263238" stroke-miterlimit="10" stroke-linecap="round" stroke-linejoin="round"/>
<path d="M498.502 143.911C498.502 143.911 509.432 122.796 513.709 122.891C517.986 123.081 517.986 130.405 517.986 130.405C517.986 130.405 526.255 124.127 527.395 126.6C528.441 129.073 528.441 129.073 528.441 129.073C528.441 129.073 548.21 134.114 555.813 143.435C563.512 152.757 567.218 162.839 563.702 170.257C561.041 175.964 556.574 191.753 554.673 198.696C552.582 199.552 550.301 200.313 548.115 200.503C538.61 201.55 529.391 193.085 529.391 193.085C529.391 193.085 534.904 189.375 532.908 181.195C530.817 173.016 525.209 172.921 525.209 172.921C525.209 172.921 522.263 179.388 517.701 178.342C513.139 177.201 520.647 170.448 520.932 166.833C521.312 163.219 516.75 159.7 515.42 157.607C514.089 155.515 521.027 154.183 523.308 152.091C525.494 149.998 509.717 147.716 506.296 146.574C502.779 145.528 509.337 144.957 512.283 142.009C515.23 138.965 498.502 143.911 498.502 143.911Z" fill="#263238" stroke="#263238" stroke-miterlimit="10" stroke-linecap="round" stroke-linejoin="round"/>
<path d="M496.792 171.116C496.697 173.018 497.267 174.635 498.122 174.73C498.978 174.73 499.738 173.208 499.833 171.306C499.928 169.404 499.358 167.787 498.502 167.692C497.647 167.597 496.887 169.118 496.792 171.116Z" fill="#263238"/>
<path d="M502.59 163.788C502.59 163.788 498.599 155.132 493.941 160.744" stroke="#263238" stroke-miterlimit="10" stroke-linecap="round" stroke-linejoin="round"/>
<path d="M529.488 192.992L522.835 193.182L522.645 198.509" stroke="#263238" stroke-miterlimit="10" stroke-linecap="round" stroke-linejoin="round"/>
<path d="M516.371 234.078C516.371 234.078 510.954 239.214 510.289 242.258C509.623 245.301 509.243 248.06 509.243 248.06C509.243 248.06 499.359 261.661 498.408 269.08C497.363 276.594 500.404 292.858 500.404 292.858L520.078 234.459L516.371 234.078Z" fill="#263238" stroke="#263238" stroke-miterlimit="10" stroke-linecap="round" stroke-linejoin="round"/>
<path d="M557.145 200.695C557.145 200.695 516.561 229.705 516.276 230.561C516.086 231.417 515.801 239.787 515.801 239.787L562.657 208.78L557.145 200.695Z" fill="#8E6AF7" stroke="#263238" stroke-miterlimit="10" stroke-linecap="round" stroke-linejoin="round"/>
<path d="M515.895 239.788C515.895 239.788 504.68 259.381 504.11 262.33C503.445 265.374 496.792 307.889 496.792 307.889L488.428 360.202H593.926C593.926 360.202 591.645 338.801 590.314 321.395C588.984 303.99 588.414 278.309 582.046 255.482C578.529 242.642 562.657 208.781 562.657 208.781L515.895 239.788Z" fill="#7FE0AF" stroke="#263238" stroke-miterlimit="10" stroke-linecap="round" stroke-linejoin="round"/>
<path d="M464.954 303.222C464.954 303.222 459.441 293.426 458.301 292.094C457.16 290.763 451.647 288.765 450.127 288.195C448.606 287.624 435.68 283.344 434.92 283.344C434.159 283.344 433.209 285.056 433.399 287.053C433.589 289.051 436.916 291.333 437.676 291.523C438.436 291.714 427.696 291.714 423.99 292.094C420.283 292.475 413.25 293.806 412.68 295.423C412.109 296.945 412.68 298.562 414.866 298.752C417.052 298.942 421.138 298.372 421.138 298.372L431.308 299.323C431.308 299.323 418.192 301.32 416.291 301.701C414.295 302.081 413.155 304.649 414.105 305.981C415.056 307.312 420.758 306.551 420.758 306.551L430.358 305.981C430.358 305.981 417.812 309.88 417.242 310.641C416.671 311.402 417.052 313.78 418.762 314.16C420.473 314.541 428.742 313.59 428.742 313.59L432.829 314.16C432.829 314.16 426.936 314.921 426.936 315.682C426.936 316.443 426.936 317.68 428.267 317.68C429.597 317.68 438.627 317.489 438.627 317.489C438.627 317.489 442.713 319.867 446.23 319.677C449.747 319.487 464.193 317.68 464.193 317.68L464.954 303.222Z" fill="white" stroke="#263238" stroke-miterlimit="10" stroke-linecap="round" stroke-linejoin="round"/>
<path d="M437.58 291.523L443.758 294.567C443.758 294.567 443.758 300.464 449.175 304.364" stroke="#263238" stroke-miterlimit="10" stroke-linecap="round" stroke-linejoin="round"/>
<path d="M431.023 297.703C431.023 297.703 432.354 309.782 433.304 312.731" stroke="#263238" stroke-miterlimit="10" stroke-linecap="round" stroke-linejoin="round"/>
<path d="M500.5 305.505L473.697 304.078V319.011L497.078 322.15L500.5 305.505Z" fill="#7FE0AF" stroke="#263238" stroke-miterlimit="10" stroke-linecap="round" stroke-linejoin="round"/>
<path d="M473.697 304.079L464.953 302.938L464.098 317.775L473.697 319.012V304.079Z" fill="#8E6AF7" stroke="#263238" stroke-miterlimit="10" stroke-linecap="round" stroke-linejoin="round"/>
<path d="M550.586 242.066C550.586 242.066 542.508 236.264 537.66 237.215C532.813 238.166 518.652 243.017 515.42 249.484C512.189 255.952 492.515 314.732 492.515 314.732L417.715 309.215L414.959 336.228C414.959 336.228 495.461 353.158 501.924 354.109C508.387 355.06 515.515 355.06 518.747 351.826C521.978 348.592 555.814 275.64 555.814 275.64" fill="#7FE0AF"/>
<path d="M550.586 242.066C550.586 242.066 542.508 236.264 537.66 237.215C532.813 238.166 518.652 243.017 515.42 249.484C512.189 255.952 492.515 314.732 492.515 314.732L417.715 309.215L414.959 336.228C414.959 336.228 495.461 353.158 501.924 354.109C508.387 355.06 515.515 355.06 518.747 351.826C521.978 348.592 555.814 275.64 555.814 275.64" stroke="#263238" stroke-miterlimit="10" stroke-linecap="round" stroke-linejoin="round"/>
<path d="M417.717 309.22L405.551 307.508L404.506 330.62L415.151 332.237L417.717 309.22Z" fill="#8E6AF7" stroke="#263238" stroke-miterlimit="10" stroke-linecap="round" stroke-linejoin="round"/>
<path d="M405.551 307.509C405.551 307.509 399.373 299.615 398.137 296.476C396.902 293.242 390.249 292.862 387.302 292.006C384.356 291.15 380.079 289.438 379.604 290.959C379.128 292.481 378.938 295.62 380.649 296.952C382.36 298.188 386.352 299.044 387.492 299.9C388.633 300.756 389.583 301.612 389.583 301.612L370.194 303.514C370.194 303.514 361.26 302.278 357.173 303.514C353.086 304.751 349.95 304.751 349.76 306.463C349.57 308.175 349.95 310.553 350.996 310.743C352.041 310.933 355.463 310.553 356.128 310.553C356.128 310.553 353.752 312.931 354.037 313.787C354.322 314.643 355.748 317.02 356.603 317.02C357.459 317.02 362.781 317.401 363.636 317.686C364.492 317.972 368.293 321.776 369.149 322.157C370.004 322.537 375.992 324.725 375.992 324.725C375.992 324.725 378.083 326.437 382.36 327.483C386.637 328.529 404.505 330.812 404.505 330.812L405.551 307.509Z" fill="white" stroke="#263238" stroke-miterlimit="10" stroke-linecap="round" stroke-linejoin="round"/>
<path d="M376.182 323.961C376.182 323.961 378.368 324.341 380.744 324.722" stroke="#263238" stroke-miterlimit="10" stroke-linecap="round" stroke-linejoin="round"/>
<path d="M356.129 310.459L366.584 310.078L376.848 311.124" stroke="#263238" stroke-miterlimit="10" stroke-linecap="round" stroke-linejoin="round"/>
<path d="M363.637 317.492L369.339 317.968L378.273 318.348" stroke="#263238" stroke-miterlimit="10" stroke-linecap="round" stroke-linejoin="round"/>
<path d="M614.457 360.389L620.445 300.943C621.3 292.573 614.837 285.249 606.473 284.964C599.06 284.679 592.597 290.1 591.551 297.519L582.617 360.484H614.457V360.389Z" fill="#263238" stroke="#263238" stroke-miterlimit="10" stroke-linecap="round" stroke-linejoin="round"/>
<path d="M149.599 197.168C149.599 197.168 110.631 218.092 109.015 219.804C107.304 221.517 97.7051 346.02 97.7051 346.02L215.749 330.041C215.749 330.041 228.01 275.351 230.196 253.284C232.477 231.218 231.812 214.954 231.146 213.051C230.481 211.149 212.803 202.113 208.716 200.116C204.629 198.214 198.451 195.836 198.451 195.836L149.599 197.168Z" fill="#7FE0AF" stroke="#263238" stroke-miterlimit="10" stroke-linecap="round" stroke-linejoin="round"/>
<path d="M203.584 281.055C193.985 290.946 172.315 311.966 152.926 321.763" stroke="#263238" stroke-miterlimit="10" stroke-linecap="round" stroke-linejoin="round"/>
<path d="M208.621 275.734C208.621 275.734 207.385 277.066 205.199 279.349" stroke="#263238" stroke-miterlimit="10" stroke-linecap="round" stroke-linejoin="round"/>
<path d="M146.557 316.727C143.706 318.058 141.235 319.009 139.334 319.295" stroke="#263238" stroke-miterlimit="10" stroke-linecap="round" stroke-linejoin="round"/>
<path d="M172.789 301.414C172.789 301.414 161.289 309.118 151.119 314.54" stroke="#263238" stroke-miterlimit="10" stroke-linecap="round" stroke-linejoin="round"/>
<path d="M153.686 331.18C153.686 331.18 126.598 317.769 123.272 316.532C119.945 315.296 106.449 330.514 106.449 330.514L160.814 343.164L153.686 331.18Z" fill="white" stroke="#263238" stroke-miterlimit="10" stroke-linecap="round" stroke-linejoin="round"/>
<path d="M112.342 332.128C112.342 332.128 120.896 320.429 125.078 318.812" stroke="#263238" stroke-miterlimit="10" stroke-linecap="round" stroke-linejoin="round"/>
<path d="M120.516 333.366C120.516 333.366 127.834 322.904 130.4 320.906" stroke="#263238" stroke-miterlimit="10" stroke-linecap="round" stroke-linejoin="round"/>
<path d="M127.168 334.7C127.168 334.7 132.49 325.284 135.532 323.477" stroke="#263238" stroke-miterlimit="10" stroke-linecap="round" stroke-linejoin="round"/>
<path d="M131.541 335.742C131.541 335.742 134.773 333.269 135.913 333.649C137.149 334.03 142.566 337.834 143.517 338.5" stroke="#263238" stroke-miterlimit="10" stroke-linecap="round" stroke-linejoin="round"/>
<path d="M231.146 213.053C231.146 213.053 229.34 220.186 224.683 233.882C220.026 247.579 216.509 254.141 216.509 254.141L205.769 319.579L153.686 331.183L160.814 343.167C160.814 343.167 190.753 345.831 205.769 342.121C220.786 338.412 227.344 336.414 228.105 334.702C228.865 332.99 235.708 296.086 235.328 271.262C235.043 246.437 234.473 211.34 231.146 213.053Z" fill="#7FE0AF" stroke="#263238" stroke-miterlimit="10" stroke-linecap="round" stroke-linejoin="round"/>
<path d="M216.51 254.14L232.192 230.742" stroke="#263238" stroke-miterlimit="10" stroke-linecap="round" stroke-linejoin="round"/>
<path d="M220.311 253.286L230.955 239.305" stroke="#263238" stroke-miterlimit="10" stroke-linecap="round" stroke-linejoin="round"/>
<path d="M208.621 318.819C208.621 318.819 219.551 318.058 224.779 324.24" stroke="#263238" stroke-miterlimit="10" stroke-linecap="round" stroke-linejoin="round"/>
<path d="M159.293 329.945L167.467 343.071" stroke="#263238" stroke-miterlimit="10" stroke-linecap="round" stroke-linejoin="round"/>
<path d="M208.146 315.966C208.146 315.966 213.469 311.971 222.688 314.349" stroke="#263238" stroke-miterlimit="10" stroke-linecap="round" stroke-linejoin="round"/>
<path d="M186.95 342.406L200.922 343.928L198.355 364.568L183.719 363.807L186.95 342.406Z" fill="#8E6AF7" stroke="#263238" stroke-miterlimit="10" stroke-linecap="round" stroke-linejoin="round"/>
<path d="M118.805 214.383C118.805 214.383 96.7545 223.894 95.5189 228.65C94.3784 233.405 81.5475 284.767 76.3201 311.684C71.0927 338.601 69.1919 357.338 70.9026 358.479C72.6134 359.621 100.651 364.186 134.392 365.518C168.132 366.849 182.199 367.325 183.624 365.898C185.05 364.376 187.711 343.547 186.856 342.405C186.096 341.264 110.536 328.424 110.536 328.424C110.536 328.424 130.02 262.795 130.02 260.227C130.02 257.659 120.04 240.158 116.143 235.308" fill="#7FE0AF"/>
<path d="M118.805 214.383C118.805 214.383 96.7545 223.894 95.5189 228.65C94.3784 233.405 81.5475 284.767 76.3201 311.684C71.0927 338.601 69.1919 357.338 70.9026 358.479C72.6134 359.621 100.651 364.186 134.392 365.518C168.132 366.849 182.199 367.325 183.624 365.898C185.05 364.376 187.711 343.547 186.856 342.405C186.096 341.264 110.536 328.424 110.536 328.424C110.536 328.424 130.02 262.795 130.02 260.227C130.02 257.659 120.04 240.158 116.143 235.308" stroke="#263238" stroke-miterlimit="10" stroke-linecap="round" stroke-linejoin="round"/>
<path d="M110.632 328.422C110.632 328.422 97.7056 326.615 88.4863 336.317" stroke="#263238" stroke-miterlimit="10" stroke-linecap="round" stroke-linejoin="round"/>
<path d="M88.485 330.992C88.485 330.992 82.6874 336.794 81.2617 342.12" stroke="#263238" stroke-miterlimit="10" stroke-linecap="round" stroke-linejoin="round"/>
<path d="M200.922 343.925C200.922 343.925 230.1 334.129 232.096 335.46C234.092 336.792 245.307 346.398 245.497 347.825C245.592 349.252 245.307 352.771 244.167 353.342C243.026 353.817 241.03 354.388 241.03 354.388C241.03 354.388 237.894 364.945 236.658 365.897C235.422 366.848 231.526 367.799 229.72 368.084C227.914 368.37 198.355 364.565 198.355 364.565L200.922 343.925Z" fill="white" stroke="#263238" stroke-miterlimit="10" stroke-linecap="round" stroke-linejoin="round"/>
<path d="M241.031 354.387C241.031 354.387 238.56 350.202 237.324 349.631C236.089 348.965 229.15 346.492 229.15 346.492" stroke="#263238" stroke-miterlimit="10" stroke-linecap="round" stroke-linejoin="round"/>
<path d="M228.199 354.289C228.199 354.289 236.373 355.811 238.939 358.759" stroke="#263238" stroke-miterlimit="10" stroke-linecap="round" stroke-linejoin="round"/>
<path d="M227.533 361.898C227.533 361.898 234.376 364.371 237.988 363.515" stroke="#263238" stroke-miterlimit="10" stroke-linecap="round" stroke-linejoin="round"/>
<path d="M165.566 234.451L173.265 247.577L161.289 337.934L169.843 352.677L185.905 336.127L176.686 247.672L185.715 230.932L175.736 223.133L165.566 234.451Z" fill="white" stroke="#263238" stroke-miterlimit="10" stroke-linecap="round" stroke-linejoin="round"/>
<path d="M154.541 191.556L147.508 195.455C147.508 195.455 147.413 209.152 151.12 221.231C154.826 233.311 158.153 241.49 158.153 241.49L176.306 231.694L194.174 242.917C194.174 242.917 196.646 230.077 195.505 218.283C194.365 206.489 189.422 193.553 189.422 193.553C189.422 193.553 164.236 186.8 154.541 191.556Z" fill="#8E6AF7" stroke="#263238" stroke-miterlimit="10" stroke-linecap="round" stroke-linejoin="round"/>
<path d="M161.385 209.625C161.385 209.625 164.616 217.044 166.802 220.753C168.988 224.463 176.402 231.691 176.402 231.691C176.402 231.691 183.815 220.468 185.241 218.566C186.666 216.568 186.666 216.568 186.666 216.568C186.666 216.568 177.067 217.519 174.976 216.854C172.79 216.188 161.385 209.625 161.385 209.625Z" fill="#263238" stroke="#263238" stroke-miterlimit="10" stroke-linecap="round" stroke-linejoin="round"/>
<path d="M205.009 165.5C205.009 165.5 201.302 184.998 201.302 187.566C201.397 190.134 203.013 198.123 201.873 201.072C200.732 204.116 187.806 217.146 183.814 220.285C179.727 223.424 173.93 223.138 170.793 220.475C167.657 217.812 156.917 206.398 155.206 203.164C153.4 199.931 151.5 191.275 151.5 191.275C151.5 191.275 146.367 188.707 143.326 183.666C140.284 178.625 138.669 175.106 142.851 172.728L140.95 151.233C140.95 151.233 148.078 144.004 164.806 145.336C181.628 146.667 205.009 165.5 205.009 165.5Z" fill="white" stroke="#263238" stroke-miterlimit="10" stroke-linecap="round" stroke-linejoin="round"/>
<path d="M149.98 177.1L153.972 186.611L156.348 186.897L155.112 179.668C155.112 179.668 164.616 174.627 165.092 174.151C165.567 173.771 163.001 161.787 162.906 160.645C162.811 159.504 163.476 155.604 176.972 159.599C190.373 163.594 190.849 168.445 197.502 169.681C204.155 170.822 204.82 168.254 204.82 168.254C204.82 168.254 212.043 169.966 216.035 164.545C220.027 159.124 208.242 152.846 208.242 152.846C208.242 152.846 210.142 142.764 205.39 138.294C200.638 133.823 196.361 138.294 196.361 138.864C196.456 139.435 179.158 127.165 170.604 126.69C162.05 126.119 142.661 139.245 139.335 145.903C136.008 152.561 143.042 172.725 143.042 172.725C143.042 172.725 147.224 171.108 149.98 177.1Z" fill="#263238" stroke="#263238" stroke-miterlimit="10" stroke-linecap="round" stroke-linejoin="round"/>
<path d="M190.563 188.516L190.848 203.163L183.529 202.212" stroke="#263238" stroke-miterlimit="10" stroke-linecap="round" stroke-linejoin="round"/>
<path d="M176.117 205.727C176.117 205.727 182.2 210.482 188.663 207.724" stroke="#263238" stroke-miterlimit="10" stroke-linecap="round" stroke-linejoin="round"/>
<path d="M180.773 186.516C180.773 186.516 178.682 190.701 171.459 187.847" stroke="#263238" stroke-miterlimit="10" stroke-linecap="round" stroke-linejoin="round"/>
<path d="M192.844 185.374C192.844 185.374 195.98 187.466 199.307 184.898" stroke="#263238" stroke-miterlimit="10" stroke-linecap="round" stroke-linejoin="round"/>
<path d="M163.762 184.516C163.762 184.516 172.411 181.853 188.283 181.758C188.283 181.758 186.857 185.943 185.432 189.462C184.006 193.076 183.531 195.835 177.638 197.071C171.745 198.308 166.898 196.025 165.948 193.837C164.997 191.65 163.762 184.516 163.762 184.516Z" stroke="#263238" stroke-miterlimit="10" stroke-linecap="round" stroke-linejoin="round"/>
<path d="M188.283 181.762C188.283 181.762 203.395 178.433 207.767 177.672C207.767 177.672 207.862 182.142 206.722 185.376C205.581 188.61 203.205 191.654 200.924 192.51C198.643 193.366 193.511 194.697 192.18 192.319C191.515 191.178 188.283 181.762 188.283 181.762Z" stroke="#263238" stroke-miterlimit="10" stroke-linecap="round" stroke-linejoin="round"/>
<path d="M207.766 177.668L203.299 173.578" stroke="#263238" stroke-miterlimit="10" stroke-linecap="round" stroke-linejoin="round"/>
<path d="M163.762 184.52L149.98 177.102" stroke="#263238" stroke-miterlimit="10" stroke-linecap="round" stroke-linejoin="round"/>
<path d="M169.273 181.286C169.273 181.286 174.976 178.813 182.484 179.765" stroke="#263238" stroke-miterlimit="10" stroke-linecap="round" stroke-linejoin="round"/>
<path d="M192.369 179.101C192.369 179.101 194.555 175.677 201.208 176.628" stroke="#263238" stroke-miterlimit="10" stroke-linecap="round" stroke-linejoin="round"/>
<path d="M449.461 383.112L426.461 371.508H528.633L558.286 383.112H449.461Z" fill="white" stroke="#263238" stroke-miterlimit="10" stroke-linecap="round"/>
<path d="M460.582 382.737L440.908 372.75H528.348L553.725 382.737H460.582Z" fill="white" stroke="#263238" stroke-miterlimit="10" stroke-linecap="round"/>
<path d="M449.461 383.114H558.286L573.113 313.016H464.383L449.461 383.114Z" fill="white" stroke="#263238" stroke-miterlimit="10" stroke-linecap="round"/>
<path d="M506.678 345.927C503.922 348.685 503.732 352.87 506.203 355.438C508.674 357.911 512.951 357.721 515.708 355.058C518.464 352.299 518.654 348.114 516.183 345.546C513.617 343.073 509.435 343.264 506.678 345.927Z" fill="white" stroke="#263238" stroke-miterlimit="10" stroke-linecap="round"/>
<path d="M510.956 359.241C516.047 359.241 520.175 355.11 520.175 350.015C520.175 344.92 516.047 340.789 510.956 340.789C505.864 340.789 501.736 344.92 501.736 350.015C501.736 355.11 505.864 359.241 510.956 359.241Z" fill="#060606"/>
<path d="M510.099 345.547C509.624 345.547 509.243 345.547 508.863 345.642V348.21C509.338 348.02 509.719 348.02 510.099 348.02C511.429 348.02 512.57 349.066 512.57 350.398V356.009H515.326V350.398C515.231 346.974 513.33 345.547 510.099 345.547Z" fill="#F4F8FB"/>
<path d="M517.323 345.547H513.711V345.642C514.851 346.213 515.707 347.164 516.087 348.305H517.323V345.547Z" fill="#7FE0AF"/>
<path d="M510.194 356.009C510.669 356.009 511.05 356.009 511.43 355.914V353.346C510.955 353.536 510.574 353.536 510.194 353.536C508.864 353.536 507.723 352.49 507.723 351.159V345.547H504.967V351.159C504.967 354.583 506.963 356.009 510.194 356.009Z" fill="#8E6AF7"/>
<path d="M195.6 273.359C199.956 273.359 203.488 269.825 203.488 265.465C203.488 261.105 199.956 257.57 195.6 257.57C191.243 257.57 187.711 261.105 187.711 265.465C187.711 269.825 191.243 273.359 195.6 273.359Z" fill="#060606"/>
<path d="M194.745 261.562C194.365 261.562 193.984 261.563 193.699 261.658V263.845C194.079 263.655 194.365 263.75 194.84 263.75C195.98 263.75 196.931 264.606 196.931 265.843V270.693H199.307V265.843C199.212 262.799 197.596 261.658 194.745 261.562Z" fill="#F4F8FB"/>
<path d="M201.017 261.562H197.881V261.658C198.831 262.133 199.592 262.894 199.972 263.94H201.017V261.562Z" fill="#7FE0AF"/>
<path d="M194.839 270.693C195.22 270.693 195.6 270.693 195.885 270.598V268.411C195.505 268.601 195.22 268.506 194.744 268.506C193.604 268.506 192.653 267.65 192.653 266.413V261.562H190.277V266.413C190.372 269.457 192.083 270.598 194.839 270.693Z" fill="#8E6AF7"/>
<path d="M300.338 363.812L253.387 384.928L338.451 389.683L377.229 365.239L300.338 363.812Z" fill="white" stroke="#263238" stroke-miterlimit="10" stroke-linecap="round" stroke-linejoin="round"/>
<path d="M307.086 364.289L266.312 391.111L353.087 398.53L366.679 364.765L307.086 364.289Z" fill="white" stroke="#263238" stroke-miterlimit="10" stroke-linecap="round" stroke-linejoin="round"/>
<path d="M166.801 348.685C166.801 344.975 167.752 341.646 169.273 339.078H88.7707C83.6383 339.078 79.3613 343.263 79.3613 348.494C79.3613 353.63 83.5433 357.911 88.7707 357.911H168.987C167.657 355.247 166.801 352.109 166.801 348.685Z" fill="white" stroke="#263238" stroke-miterlimit="10" stroke-linecap="round"/>
<path d="M169.083 359.433H88.7712C82.6884 359.433 77.7461 354.488 77.7461 348.4C77.7461 342.313 82.6884 337.367 88.7712 337.367H169.368C170.319 337.367 170.984 338.128 170.984 338.984C170.984 339.935 170.224 340.601 169.368 340.601H88.7712C84.4942 340.601 81.0726 344.025 81.0726 348.305C81.0726 352.585 84.4942 356.009 88.7712 356.009H168.988C169.938 356.009 170.604 356.77 170.604 357.626C170.699 358.768 169.938 359.433 169.083 359.433Z" fill="#8E6AF7" stroke="#263238" stroke-miterlimit="10" stroke-linecap="round"/>
<path d="M158.153 339.078C156.632 341.741 155.682 345.07 155.682 348.685C155.682 352.109 156.537 355.247 157.868 357.815H169.083C167.752 355.247 166.897 352.109 166.897 348.685C166.897 344.975 167.847 341.646 169.368 339.078H158.153Z" fill="white" stroke="#263238" stroke-miterlimit="10" stroke-linecap="round"/>
<path d="M169.083 370.56C169.083 366.85 170.033 363.521 171.554 360.953H91.0519C85.9195 360.953 81.6426 365.138 81.6426 370.369C81.6426 375.505 85.8245 379.786 91.0519 379.786H171.269C169.938 377.122 169.083 373.984 169.083 370.56Z" fill="white" stroke="#263238" stroke-miterlimit="10" stroke-linecap="round"/>
<path d="M171.269 381.308H91.0524C84.9696 381.308 80.0273 376.363 80.0273 370.275C80.0273 364.188 84.9696 359.242 91.0524 359.242H171.649C172.6 359.242 173.265 360.003 173.265 360.859C173.265 361.81 172.505 362.476 171.649 362.476H91.0524C86.7754 362.476 83.3539 365.9 83.3539 370.18C83.3539 374.46 86.7754 377.884 91.0524 377.884H171.269C172.22 377.884 172.885 378.645 172.885 379.501C172.98 380.643 172.22 381.308 171.269 381.308Z" fill="#7FE0AF" stroke="#263238" stroke-miterlimit="10" stroke-linecap="round"/>
<path d="M160.434 360.953C158.913 363.616 157.963 366.945 157.963 370.56C157.963 373.984 158.818 377.122 160.149 379.69H171.364C170.033 377.122 169.178 373.984 169.178 370.56C169.178 366.85 170.128 363.521 171.649 360.953H160.434Z" fill="white" stroke="#263238" stroke-miterlimit="10" stroke-linecap="round"/>
</g>
<defs>
<clipPath id="clip0_5409_25685">
<rect width="675" height="399" fill="white"/>
</clipPath>
</defs>
</svg>
