<svg width="222" height="42" viewBox="0 0 222 42" fill="none" xmlns="http://www.w3.org/2000/svg">
<path d="M56.8906 4.20001V19.0652H64.5356V17.3664H58.6957V4.20001H56.8906Z" fill="#1B1773"/>
<path d="M66.8699 11.6326C66.8699 10.5142 67.1106 9.5161 67.5919 8.63834C68.0874 7.76059 68.7599 7.06688 69.6094 6.55721C70.4588 6.04755 71.4215 5.79271 72.4975 5.79271C73.5876 5.79271 74.5503 6.04755 75.3856 6.55721C76.235 7.06688 76.9004 7.76059 77.3817 8.63834C77.8773 9.5161 78.125 10.5142 78.125 11.6326C78.125 12.7511 77.8773 13.7492 77.3817 14.6269C76.9004 15.5047 76.235 16.1984 75.3856 16.708C74.5503 17.2177 73.5876 17.4725 72.4975 17.4725C71.4215 17.4725 70.4588 17.2177 69.6094 16.708C68.7599 16.1984 68.0874 15.5047 67.5919 14.6269C67.1106 13.7492 66.8699 12.7511 66.8699 11.6326ZM64.9587 11.6326C64.9587 12.7086 65.1427 13.7138 65.5108 14.6481C65.893 15.5825 66.4239 16.3966 67.1035 17.0903C67.7831 17.7698 68.5829 18.3078 69.5032 18.7042C70.4234 19.0865 71.4215 19.2776 72.4975 19.2776C73.5876 19.2776 74.5857 19.0865 75.4917 18.7042C76.412 18.3078 77.2119 17.7698 77.8914 17.0903C78.571 16.3966 79.0948 15.5825 79.4629 14.6481C79.8451 13.7138 80.0363 12.7086 80.0363 11.6326C80.0363 10.5425 79.8451 9.53734 79.4629 8.61711C79.0948 7.68272 78.571 6.87575 77.8914 6.1962C77.2119 5.50249 76.412 4.96451 75.4917 4.58226C74.5857 4.18585 73.5876 3.98765 72.4975 3.98765C71.4215 3.98765 70.4234 4.18585 69.5032 4.58226C68.5829 4.96451 67.7831 5.50249 67.1035 6.1962C66.4239 6.87575 65.893 7.68272 65.5108 8.61711C65.1427 9.53734 64.9587 10.5425 64.9587 11.6326Z" fill="#1B1773"/>
<path d="M83.6472 11.6326C83.6472 10.4717 83.902 9.45947 84.4117 8.59587C84.9355 7.71812 85.6151 7.03148 86.4504 6.53598C87.2857 6.04047 88.1917 5.79271 89.1686 5.79271C89.8764 5.79271 90.5206 5.88474 91.1011 6.06878C91.6957 6.25283 92.2337 6.51474 92.715 6.85452C93.1964 7.18013 93.6069 7.56238 93.9467 8.00126V5.62283C93.3238 5.07069 92.6442 4.66012 91.908 4.39113C91.1718 4.12214 90.2587 3.98765 89.1686 3.98765C88.1351 3.98765 87.1653 4.17877 86.2592 4.56102C85.3673 4.92912 84.5816 5.46002 83.902 6.15373C83.2225 6.83328 82.6916 7.64025 82.3093 8.57464C81.9271 9.50902 81.736 10.5284 81.736 11.6326C81.736 12.7369 81.9271 13.7562 82.3093 14.6906C82.6916 15.625 83.2225 16.439 83.902 17.1328C84.5816 17.8123 85.3673 18.3432 86.2592 18.7255C87.1653 19.0936 88.1351 19.2776 89.1686 19.2776C90.2587 19.2776 91.1718 19.1431 91.908 18.8741C92.6442 18.6051 93.3238 18.1946 93.9467 17.6424V15.264C93.6069 15.7029 93.1964 16.0922 92.715 16.432C92.2337 16.7576 91.6957 17.0124 91.1011 17.1965C90.5206 17.3805 89.8764 17.4725 89.1686 17.4725C88.1917 17.4725 87.2857 17.2248 86.4504 16.7293C85.6151 16.2338 84.9355 15.5471 84.4117 14.6694C83.902 13.7916 83.6472 12.7794 83.6472 11.6326Z" fill="#1B1773"/>
<path d="M98.2347 14.6057H106.092L105.455 12.9068H98.8718L98.2347 14.6057ZM102.121 7.5553L104.669 13.5439L104.839 13.9686L107.005 19.0652H109.023L102.121 3.45675L95.2192 19.0652H97.2366L99.4452 13.8412L99.6151 13.4589L102.121 7.5553Z" fill="#1B1773"/>
<path d="M110.831 4.20001V19.0652H118.476V17.3664H112.636V4.20001H110.831Z" fill="#1B1773"/>
<path d="M125.144 7.40665H129.221V19.0652H132.81V7.40665H136.909V4.20001H125.144V7.40665Z" fill="#1B1773"/>
<path d="M142.251 12.3334L146.413 19.0652H150.618L145.967 12.3334H142.251ZM138.534 4.20001V19.0652H142.123V4.20001H138.534ZM140.785 7.23676H143.695C144.176 7.23676 144.587 7.31463 144.926 7.47036C145.28 7.62609 145.549 7.85261 145.733 8.14992C145.917 8.43306 146.01 8.77992 146.01 9.19048C146.01 9.60104 145.917 9.95498 145.733 10.2523C145.549 10.5354 145.28 10.7549 144.926 10.9106C144.587 11.0522 144.176 11.123 143.695 11.123H140.785V13.9049H143.95C145.224 13.9049 146.286 13.6996 147.135 13.289C147.984 12.8785 148.629 12.3122 149.067 11.5902C149.506 10.854 149.726 10.0116 149.726 9.06306C149.726 8.10036 149.506 7.258 149.067 6.53598C148.629 5.79979 147.984 5.22642 147.135 4.81586C146.286 4.40529 145.224 4.20001 143.95 4.20001H140.785V7.23676Z" fill="#1B1773"/>
<path d="M154.62 16.1984H162.477L162.244 13.4589H154.875L154.62 16.1984ZM158.506 9.65767L160.608 14.4783L160.481 15.3914L162.265 19.0652H166.342L158.506 3.26562L150.691 19.0652H154.747L156.595 15.2428L156.425 14.457L158.506 9.65767Z" fill="#1B1773"/>
<path d="M167.9 4.20001V19.0652H171.595V4.20001H167.9ZM173.209 19.0652C174.837 19.0652 176.246 18.7609 177.435 18.1521C178.624 17.5433 179.544 16.6868 180.196 15.5825C180.847 14.4641 181.172 13.1475 181.172 11.6326C181.172 10.1036 180.847 8.787 180.196 7.68272C179.544 6.57845 178.624 5.72193 177.435 5.11316C176.246 4.50439 174.837 4.20001 173.209 4.20001H170.278V7.38542H173.081C173.648 7.38542 174.193 7.4562 174.717 7.59778C175.255 7.73935 175.722 7.97295 176.118 8.29857C176.529 8.62419 176.854 9.06306 177.095 9.6152C177.336 10.1532 177.456 10.8257 177.456 11.6326C177.456 12.4396 177.336 13.1191 177.095 13.6713C176.854 14.2093 176.529 14.6411 176.118 14.9667C175.722 15.2923 175.255 15.5259 174.717 15.6675C174.193 15.809 173.648 15.8798 173.081 15.8798H170.278V19.0652H173.209Z" fill="#1B1773"/>
<path d="M185.853 19.0652H193.349V16.1134H185.853V19.0652ZM185.853 7.15182H193.349V4.20001H185.853V7.15182ZM185.853 12.6944H192.924V9.80633H185.853V12.6944ZM183.474 4.20001V19.0652H186.915V4.20001H183.474Z" fill="#1B1773"/>
<path d="M199.986 12.3334L204.148 19.0652H208.353L203.703 12.3334H199.986ZM196.27 4.20001V19.0652H199.859V4.20001H196.27ZM198.521 7.23676H201.43C201.912 7.23676 202.322 7.31463 202.662 7.47036C203.016 7.62609 203.285 7.85261 203.469 8.14992C203.653 8.43306 203.745 8.77992 203.745 9.19048C203.745 9.60104 203.653 9.95498 203.469 10.2523C203.285 10.5354 203.016 10.7549 202.662 10.9106C202.322 11.0522 201.912 11.123 201.43 11.123H198.521V13.9049H201.685C202.959 13.9049 204.021 13.6996 204.871 13.289C205.72 12.8785 206.364 12.3122 206.803 11.5902C207.242 10.854 207.461 10.0116 207.461 9.06306C207.461 8.10036 207.242 7.258 206.803 6.53598C206.364 5.79979 205.72 5.22642 204.871 4.81586C204.021 4.40529 202.959 4.20001 201.685 4.20001H198.521V7.23676Z" fill="#1B1773"/>
<path d="M211.655 13.8412L209.149 15.6462C209.489 16.3541 209.963 17.0053 210.572 17.6C211.18 18.1946 211.895 18.6688 212.716 19.0228C213.552 19.3625 214.451 19.5324 215.413 19.5324C216.107 19.5324 216.78 19.4263 217.431 19.2139C218.096 19.0157 218.684 18.7184 219.193 18.322C219.717 17.9256 220.128 17.4371 220.425 16.8567C220.737 16.2621 220.892 15.5896 220.892 14.8393C220.892 14.2163 220.793 13.6642 220.595 13.1829C220.397 12.7015 220.121 12.2768 219.767 11.9087C219.427 11.5406 219.031 11.2291 218.578 10.9743C218.125 10.7053 217.636 10.4717 217.112 10.2735C216.419 10.0328 215.824 9.80633 215.328 9.59397C214.847 9.3816 214.472 9.14801 214.203 8.89318C213.948 8.63834 213.821 8.34104 213.821 8.00126C213.821 7.67564 213.955 7.40665 214.224 7.19429C214.493 6.96777 214.882 6.85452 215.392 6.85452C215.774 6.85452 216.128 6.93238 216.454 7.08811C216.794 7.22969 217.098 7.43497 217.367 7.70396C217.65 7.95879 217.898 8.26317 218.11 8.61711L220.85 7.08811C220.595 6.57845 220.227 6.07586 219.746 5.58035C219.264 5.08485 218.655 4.67428 217.919 4.34866C217.197 4.02304 216.341 3.86023 215.35 3.86023C214.387 3.86023 213.509 4.03012 212.716 4.3699C211.938 4.69552 211.315 5.17687 210.848 5.81395C210.395 6.45103 210.168 7.20845 210.168 8.08621C210.168 8.82239 210.303 9.45239 210.572 9.97621C210.841 10.4859 211.18 10.9248 211.591 11.2928C212.001 11.6468 212.433 11.937 212.886 12.1635C213.353 12.39 213.764 12.567 214.118 12.6944C214.84 12.9634 215.42 13.2041 215.859 13.4165C216.298 13.6288 216.617 13.8553 216.815 14.096C217.013 14.3225 217.112 14.6269 217.112 15.0092C217.112 15.4622 216.942 15.8232 216.603 16.0922C216.263 16.347 215.831 16.4744 215.307 16.4744C214.812 16.4744 214.337 16.3683 213.884 16.1559C213.446 15.9435 213.035 15.6392 212.653 15.2428C212.285 14.8463 211.952 14.3792 211.655 13.8412Z" fill="#1B1773"/>
<rect x="56.8262" y="24.5078" width="164.988" height="13.6128" fill="#9C6AFD"/>
<path d="M67.2543 31.4493C67.2543 31.0681 67.3387 30.7387 67.5075 30.461C67.6817 30.1833 67.9077 29.9709 68.1854 29.8239C68.4631 29.6714 68.7653 29.5952 69.092 29.5952C69.3643 29.5952 69.6066 29.6306 69.8189 29.7014C70.0313 29.7722 70.2219 29.8674 70.3907 29.9872C70.5649 30.107 70.7147 30.2377 70.8399 30.3793V29.0643C70.6058 28.8791 70.3498 28.7349 70.0721 28.6314C69.7999 28.5279 69.4541 28.4762 69.0348 28.4762C68.5992 28.4762 68.1936 28.547 67.8178 28.6886C67.4476 28.8301 67.1236 29.0343 66.8459 29.3011C66.5736 29.568 66.3613 29.8838 66.2088 30.2486C66.0618 30.608 65.9883 31.0082 65.9883 31.4493C65.9883 31.8903 66.0618 32.2933 66.2088 32.6581C66.3613 33.0175 66.5736 33.3306 66.8459 33.5974C67.1236 33.8642 67.4476 34.0684 67.8178 34.2099C68.1936 34.3515 68.5992 34.4223 69.0348 34.4223C69.4541 34.4223 69.7999 34.3706 70.0721 34.2671C70.3498 34.1637 70.6058 34.0194 70.8399 33.8342V32.5192C70.7147 32.6608 70.5649 32.7915 70.3907 32.9113C70.2219 33.0311 70.0313 33.1264 69.8189 33.1971C69.6066 33.2679 69.3643 33.3033 69.092 33.3033C68.7653 33.3033 68.4631 33.2298 68.1854 33.0828C67.9077 32.9303 67.6817 32.7153 67.5075 32.4375C67.3387 32.1544 67.2543 31.825 67.2543 31.4493Z" fill="white"/>
<path d="M76.2003 31.6453L77.9155 34.308H79.2958L77.4336 31.6453H76.2003ZM74.9016 28.5906V34.308H76.0696V28.5906H74.9016ZM75.6122 29.587H76.7475C76.9544 29.587 77.1314 29.6224 77.2784 29.6932C77.4309 29.7585 77.5479 29.8566 77.6296 29.9872C77.7113 30.1125 77.7521 30.2649 77.7521 30.4446C77.7521 30.6243 77.7113 30.7795 77.6296 30.9102C77.5479 31.0354 77.4309 31.1334 77.2784 31.2042C77.1314 31.2696 76.9544 31.3022 76.7475 31.3022H75.6122V32.2334H76.821C77.273 32.2334 77.6569 32.1571 77.9727 32.0047C78.2885 31.8522 78.5308 31.6398 78.6996 31.3676C78.8684 31.0899 78.9528 30.7713 78.9528 30.412C78.9528 30.0471 78.8684 29.7286 78.6996 29.4563C78.5308 29.1841 78.2885 28.9717 77.9727 28.8193C77.6569 28.6668 77.273 28.5906 76.821 28.5906H75.6122V29.587Z" fill="white"/>
<path d="M86.0433 28.5906L84.81 30.8939L83.5848 28.5906H82.2535L84.2219 31.9475V34.308H85.4062V31.9393L87.3747 28.5906H86.0433Z" fill="white"/>
<path d="M90.9023 28.5906V34.308H92.0703V28.5906H90.9023ZM91.6129 29.5788H92.7482C93.0586 29.5788 93.3037 29.6496 93.4833 29.7912C93.663 29.9273 93.7529 30.1343 93.7529 30.412C93.7529 30.6842 93.663 30.8911 93.4833 31.0327C93.3037 31.1743 93.0586 31.2451 92.7482 31.2451H91.6129V32.2334H92.7482C93.2002 32.2334 93.5841 32.1598 93.8999 32.0128C94.2212 31.8658 94.4662 31.6562 94.635 31.3839C94.8038 31.1062 94.8882 30.7822 94.8882 30.412C94.8882 30.0362 94.8038 29.7123 94.635 29.44C94.4662 29.1677 94.2212 28.9581 93.8999 28.8111C93.5841 28.6641 93.2002 28.5906 92.7482 28.5906H91.6129V29.5788Z" fill="white"/>
<path d="M97.8723 29.6442H99.4079V34.308H100.576V29.6442H102.12V28.5906H97.8723V29.6442Z" fill="white"/>
<path d="M106.183 31.4493C106.183 31.0844 106.259 30.7604 106.411 30.4773C106.564 30.1942 106.773 29.9709 107.04 29.8075C107.307 29.6442 107.617 29.5625 107.971 29.5625C108.331 29.5625 108.644 29.6442 108.911 29.8075C109.177 29.9709 109.384 30.1942 109.531 30.4773C109.678 30.7604 109.752 31.0844 109.752 31.4493C109.752 31.8141 109.676 32.1381 109.523 32.4212C109.376 32.7044 109.169 32.9276 108.902 33.091C108.636 33.2543 108.325 33.336 107.971 33.336C107.617 33.336 107.307 33.2543 107.04 33.091C106.773 32.9276 106.564 32.7044 106.411 32.4212C106.259 32.1381 106.183 31.8141 106.183 31.4493ZM104.949 31.4493C104.949 31.8794 105.023 32.2796 105.17 32.6499C105.317 33.0147 105.526 33.3333 105.799 33.6055C106.071 33.8778 106.389 34.0901 106.754 34.2426C107.125 34.3896 107.53 34.4631 107.971 34.4631C108.412 34.4631 108.815 34.3896 109.18 34.2426C109.55 34.0901 109.869 33.8778 110.136 33.6055C110.408 33.3333 110.618 33.0147 110.765 32.6499C110.917 32.2796 110.993 31.8794 110.993 31.4493C110.993 31.0136 110.917 30.6161 110.765 30.2568C110.618 29.8919 110.405 29.5761 110.128 29.3093C109.855 29.0425 109.537 28.8383 109.172 28.6967C108.807 28.5497 108.407 28.4762 107.971 28.4762C107.541 28.4762 107.141 28.5497 106.771 28.6967C106.406 28.8383 106.087 29.0425 105.815 29.3093C105.543 29.5761 105.33 29.8919 105.178 30.2568C105.025 30.6161 104.949 31.0136 104.949 31.4493Z" fill="white"/>
<path d="M120.895 29.6115H123.452V28.5906H120.895V29.6115ZM120.895 31.8658H123.37V30.8939H120.895V31.8658ZM120.144 28.5906V34.308H121.271V28.5906H120.144Z" fill="white"/>
<path d="M128.329 31.4493C128.329 31.0844 128.405 30.7604 128.558 30.4773C128.71 30.1942 128.92 29.9709 129.187 29.8075C129.454 29.6442 129.764 29.5625 130.118 29.5625C130.477 29.5625 130.79 29.6442 131.057 29.8075C131.324 29.9709 131.531 30.1942 131.678 30.4773C131.825 30.7604 131.898 31.0844 131.898 31.4493C131.898 31.8141 131.822 32.1381 131.67 32.4212C131.523 32.7044 131.316 32.9276 131.049 33.091C130.782 33.2543 130.472 33.336 130.118 33.336C129.764 33.336 129.454 33.2543 129.187 33.091C128.92 32.9276 128.71 32.7044 128.558 32.4212C128.405 32.1381 128.329 31.8141 128.329 31.4493ZM127.096 31.4493C127.096 31.8794 127.169 32.2796 127.316 32.6499C127.463 33.0147 127.673 33.3333 127.945 33.6055C128.218 33.8778 128.536 34.0901 128.901 34.2426C129.271 34.3896 129.677 34.4631 130.118 34.4631C130.559 34.4631 130.962 34.3896 131.327 34.2426C131.697 34.0901 132.016 33.8778 132.282 33.6055C132.555 33.3333 132.764 33.0147 132.911 32.6499C133.064 32.2796 133.14 31.8794 133.14 31.4493C133.14 31.0136 133.064 30.6161 132.911 30.2568C132.764 29.8919 132.552 29.5761 132.274 29.3093C132.002 29.0425 131.683 28.8383 131.319 28.6967C130.954 28.5497 130.553 28.4762 130.118 28.4762C129.688 28.4762 129.287 28.5497 128.917 28.6967C128.552 28.8383 128.234 29.0425 127.962 29.3093C127.689 29.5761 127.477 29.8919 127.325 30.2568C127.172 30.6161 127.096 31.0136 127.096 31.4493Z" fill="white"/>
<path d="M138.241 31.6453L139.956 34.308H141.337L139.474 31.6453H138.241ZM136.942 28.5906V34.308H138.11V28.5906H136.942ZM137.653 29.587H138.788C138.995 29.587 139.172 29.6224 139.319 29.6932C139.472 29.7585 139.589 29.8566 139.67 29.9872C139.752 30.1125 139.793 30.2649 139.793 30.4446C139.793 30.6243 139.752 30.7795 139.67 30.9102C139.589 31.0354 139.472 31.1334 139.319 31.2042C139.172 31.2696 138.995 31.3022 138.788 31.3022H137.653V32.2334H138.862C139.314 32.2334 139.698 32.1571 140.013 32.0047C140.329 31.8522 140.572 31.6398 140.74 31.3676C140.909 31.0899 140.994 30.7713 140.994 30.412C140.994 30.0471 140.909 29.7286 140.74 29.4563C140.572 29.1841 140.329 28.9717 140.013 28.8193C139.698 28.6668 139.314 28.5906 138.862 28.5906H137.653V29.587Z" fill="white"/>
<path d="M151.007 34.308H153.89V33.3197H151.007V34.308ZM151.007 29.5788H153.89V28.5906H151.007V29.5788ZM151.007 31.7596H153.726V30.7877H151.007V31.7596ZM150.255 28.5906V34.308H151.382V28.5906H150.255Z" fill="white"/>
<path d="M160.227 32.315L158.676 28.5906H157.328L160.227 34.6428L163.127 28.5906H161.771L160.227 32.315Z" fill="white"/>
<path d="M167.398 34.308H170.281V33.3197H167.398V34.308ZM167.398 29.5788H170.281V28.5906H167.398V29.5788ZM167.398 31.7596H170.118V30.7877H167.398V31.7596ZM166.647 28.5906V34.308H167.774V28.5906H166.647Z" fill="white"/>
<path d="M175.631 31.6453L177.346 34.308H178.726L176.864 31.6453H175.631ZM174.332 28.5906V34.308H175.5V28.5906H174.332ZM175.043 29.587H176.178C176.385 29.587 176.562 29.6224 176.709 29.6932C176.861 29.7585 176.978 29.8566 177.06 29.9872C177.142 30.1125 177.183 30.2649 177.183 30.4446C177.183 30.6243 177.142 30.7795 177.06 30.9102C176.978 31.0354 176.861 31.1334 176.709 31.2042C176.562 31.2696 176.385 31.3022 176.178 31.3022H175.043V32.2334H176.251C176.703 32.2334 177.087 32.1571 177.403 32.0047C177.719 31.8522 177.961 31.6398 178.13 31.3676C178.299 31.0899 178.383 30.7713 178.383 30.412C178.383 30.0471 178.299 29.7286 178.13 29.4563C177.961 29.1841 177.719 28.9717 177.403 28.8193C177.087 28.6668 176.703 28.5906 176.251 28.5906H175.043V29.587Z" fill="white"/>
<path d="M185.474 28.5906L184.24 30.8939L183.015 28.5906H181.684L183.652 31.9475V34.308H184.837V31.9393L186.805 28.5906H185.474Z" fill="white"/>
<path d="M190.833 31.4493C190.833 31.0844 190.909 30.7604 191.061 30.4773C191.214 30.1942 191.423 29.9709 191.69 29.8075C191.957 29.6442 192.267 29.5625 192.621 29.5625C192.981 29.5625 193.294 29.6442 193.561 29.8075C193.827 29.9709 194.034 30.1942 194.181 30.4773C194.328 30.7604 194.402 31.0844 194.402 31.4493C194.402 31.8141 194.326 32.1381 194.173 32.4212C194.026 32.7044 193.819 32.9276 193.552 33.091C193.286 33.2543 192.975 33.336 192.621 33.336C192.267 33.336 191.957 33.2543 191.69 33.091C191.423 32.9276 191.214 32.7044 191.061 32.4212C190.909 32.1381 190.833 31.8141 190.833 31.4493ZM189.599 31.4493C189.599 31.8794 189.673 32.2796 189.82 32.6499C189.967 33.0147 190.176 33.3333 190.449 33.6055C190.721 33.8778 191.039 34.0901 191.404 34.2426C191.775 34.3896 192.18 34.4631 192.621 34.4631C193.062 34.4631 193.465 34.3896 193.83 34.2426C194.2 34.0901 194.519 33.8778 194.786 33.6055C195.058 33.3333 195.268 33.0147 195.415 32.6499C195.567 32.2796 195.643 31.8794 195.643 31.4493C195.643 31.0136 195.567 30.6161 195.415 30.2568C195.268 29.8919 195.055 29.5761 194.778 29.3093C194.505 29.0425 194.187 28.8383 193.822 28.6967C193.457 28.5497 193.057 28.4762 192.621 28.4762C192.191 28.4762 191.791 28.5497 191.421 28.6967C191.056 28.8383 190.737 29.0425 190.465 29.3093C190.193 29.5761 189.98 29.8919 189.828 30.2568C189.675 30.6161 189.599 31.0136 189.599 31.4493Z" fill="white"/>
<path d="M203.513 28.5906V32.1353L199.446 28.3047V34.308H200.573V30.7632L204.64 34.5938V28.5906H203.513Z" fill="white"/>
<path d="M209.534 34.308H212.417V33.3197H209.534V34.308ZM209.534 29.5788H212.417V28.5906H209.534V29.5788ZM209.534 31.7596H212.253V30.7877H209.534V31.7596ZM208.782 28.5906V34.308H209.909V28.5906H208.782Z" fill="white"/>
<path d="M32.2793 0H46.3495V10.7596H41.0199C39.8261 4.72535 34.6954 1.07226 32.2793 0Z" fill="#04E2AF"/>
<path d="M10.2303 22.1351V0.427732V0H0V22.6698C0 37.2127 12.5037 41.2048 18.7556 41.383H24.8298V31.1175H20.0344C12.6174 31.1175 10.4079 25.1292 10.2303 22.1351Z" fill="#9C6AFD"/>
<path d="M28.6701 19.2477L28.6701 40.9551L28.6701 41.3828L38.9004 41.3828L38.9004 18.713C38.9004 4.17014 26.3967 0.177983 20.1448 -0.000238686L14.0706 -0.000238155L14.0706 10.2653L18.866 10.2653C26.283 10.2653 28.4925 16.2536 28.6701 19.2477Z" fill="#1A1C55"/>
</svg>
