<svg width="213" height="40" viewBox="0 0 213 40" fill="none" xmlns="http://www.w3.org/2000/svg">
<path d="M54.6309 4.03007V18.3046H61.9721V16.6733H56.3642V4.03007H54.6309Z" fill="white"/>
<path d="M64.2136 11.1674C64.2136 10.0934 64.4447 9.13493 64.907 8.29205C65.3828 7.44917 66.0285 6.78302 66.8442 6.29361C67.6599 5.8042 68.5844 5.55949 69.6176 5.55949C70.6644 5.55949 71.5888 5.8042 72.3909 6.29361C73.2066 6.78302 73.8456 7.44917 74.3078 8.29205C74.7836 9.13493 75.0215 10.0934 75.0215 11.1674C75.0215 12.2413 74.7836 13.1998 74.3078 14.0427C73.8456 14.8855 73.2066 15.5517 72.3909 16.0411C71.5888 16.5305 70.6644 16.7752 69.6176 16.7752C68.5844 16.7752 67.6599 16.5305 66.8442 16.0411C66.0285 15.5517 65.3828 14.8855 64.907 14.0427C64.4447 13.1998 64.2136 12.2413 64.2136 11.1674ZM62.3783 11.1674C62.3783 12.2006 62.5551 13.1658 62.9085 14.0631C63.2756 14.9603 63.7854 15.742 64.4379 16.4082C65.0905 17.0607 65.8586 17.5773 66.7423 17.958C67.6259 18.325 68.5844 18.5086 69.6176 18.5086C70.6644 18.5086 71.6228 18.325 72.4929 17.958C73.3765 17.5773 74.1446 17.0607 74.7972 16.4082C75.4497 15.742 75.9528 14.9603 76.3062 14.0631C76.6733 13.1658 76.8568 12.2006 76.8568 11.1674C76.8568 10.1206 76.6733 9.15532 76.3062 8.27166C75.9528 7.3744 75.4497 6.59949 74.7972 5.94694C74.1446 5.2808 73.3765 4.76419 72.4929 4.39713C71.6228 4.01648 70.6644 3.82615 69.6176 3.82615C68.5844 3.82615 67.6259 4.01648 66.7423 4.39713C65.8586 4.76419 65.0905 5.2808 64.4379 5.94694C63.7854 6.59949 63.2756 7.3744 62.9085 8.27166C62.5551 9.15532 62.3783 10.1206 62.3783 11.1674Z" fill="white"/>
<path d="M80.3243 11.1674C80.3243 10.0526 80.569 9.08055 81.0584 8.25126C81.5614 7.40839 82.214 6.74904 83.0161 6.27322C83.8182 5.7974 84.6882 5.55949 85.6263 5.55949C86.306 5.55949 86.9246 5.64786 87.482 5.82459C88.0529 6.00132 88.5695 6.25282 89.0318 6.5791C89.494 6.89178 89.8882 7.25884 90.2145 7.68028V5.39635C89.6164 4.86615 88.9638 4.4719 88.2569 4.2136C87.5499 3.9553 86.6731 3.82615 85.6263 3.82615C84.6338 3.82615 83.7026 4.00968 82.8325 4.37674C81.9761 4.7302 81.2215 5.24001 80.569 5.90616C79.9164 6.55871 79.4066 7.33361 79.0396 8.23087C78.6725 9.12813 78.489 10.107 78.489 11.1674C78.489 12.2278 78.6725 13.2066 79.0396 14.1038C79.4066 15.0011 79.9164 15.7828 80.569 16.4489C81.2215 17.1015 81.9761 17.6113 82.8325 17.9784C83.7026 18.3318 84.6338 18.5086 85.6263 18.5086C86.6731 18.5086 87.5499 18.3794 88.2569 18.1211C88.9638 17.8628 89.6164 17.4686 90.2145 16.9384V14.6544C89.8882 15.0759 89.494 15.4497 89.0318 15.776C88.5695 16.0887 88.0529 16.3334 87.482 16.5101C86.9246 16.6869 86.306 16.7752 85.6263 16.7752C84.6882 16.7752 83.8182 16.5373 83.0161 16.0615C82.214 15.5857 81.5614 14.9263 81.0584 14.0834C80.569 13.2406 80.3243 12.2685 80.3243 11.1674Z" fill="white"/>
<path d="M94.3322 14.0223H101.877L101.266 12.3909H94.9439L94.3322 14.0223ZM98.0639 7.25204L100.511 13.0027L100.674 13.4105L102.754 18.3046H104.691L98.0639 3.31634L91.4365 18.3046H93.3737L95.4945 13.2881L95.6577 12.9211L98.0639 7.25204Z" fill="white"/>
<path d="M106.428 4.03007V18.3046H113.769V16.6733H108.161V4.03007H106.428Z" fill="white"/>
<path d="M120.172 7.1093H124.088V18.3046H127.534V7.1093H131.47V4.03007H120.172V7.1093Z" fill="white"/>
<path d="M136.599 11.8403L140.596 18.3046H144.634L140.168 11.8403H136.599ZM133.031 4.03007V18.3046H136.477V4.03007H133.031ZM135.192 6.94616H137.986C138.448 6.94616 138.842 7.02093 139.169 7.17048C139.509 7.32002 139.767 7.53754 139.944 7.82303C140.12 8.09493 140.209 8.428 140.209 8.82225C140.209 9.2165 140.12 9.55637 139.944 9.84186C139.767 10.1138 139.509 10.3245 139.169 10.474C138.842 10.61 138.448 10.6779 137.986 10.6779H135.192V13.3493H138.231C139.454 13.3493 140.474 13.1522 141.289 12.758C142.105 12.3637 142.724 11.8199 143.145 11.1266C143.567 10.4196 143.777 9.61075 143.777 8.69989C143.777 7.77545 143.567 6.96655 143.145 6.27322C142.724 5.56629 142.105 5.0157 141.289 4.62145C140.474 4.2272 139.454 4.03007 138.231 4.03007H135.192V6.94616Z" fill="white"/>
<path d="M148.477 15.5517H156.022L155.798 12.9211H148.722L148.477 15.5517ZM152.209 9.27088L154.228 13.8999L154.105 14.7768L155.818 18.3046H159.733L152.209 3.13281L144.704 18.3046H148.599L150.373 14.634L150.21 13.8795L152.209 9.27088Z" fill="white"/>
<path d="M161.229 4.03007V18.3046H164.777V4.03007H161.229ZM166.327 18.3046C167.891 18.3046 169.243 18.0124 170.385 17.4278C171.527 16.8432 172.411 16.0207 173.036 14.9603C173.662 13.8863 173.974 12.622 173.974 11.1674C173.974 9.69911 173.662 8.4348 173.036 7.3744C172.411 6.314 171.527 5.49152 170.385 4.90694C169.243 4.32236 167.891 4.03007 166.327 4.03007H163.513V7.08891H166.205C166.749 7.08891 167.272 7.15688 167.775 7.29283C168.292 7.42878 168.74 7.65309 169.121 7.96577C169.515 8.27845 169.828 8.69989 170.059 9.23009C170.29 9.7467 170.406 10.3925 170.406 11.1674C170.406 11.9423 170.29 12.5948 170.059 13.125C169.828 13.6416 169.515 14.0563 169.121 14.3689C168.74 14.6816 168.292 14.9059 167.775 15.0419C167.272 15.1778 166.749 15.2458 166.205 15.2458H163.513V18.3046H166.327Z" fill="white"/>
<path d="M178.469 18.3046H185.667V15.4701H178.469V18.3046ZM178.469 6.86459H185.667V4.03007H178.469V6.86459ZM178.469 12.187H185.259V9.41362H178.469V12.187ZM176.185 4.03007V18.3046H179.488V4.03007H176.185Z" fill="white"/>
<path d="M192.041 11.8403L196.038 18.3046H200.075L195.609 11.8403H192.041ZM188.472 4.03007V18.3046H191.918V4.03007H188.472ZM190.634 6.94616H193.427C193.89 6.94616 194.284 7.02093 194.61 7.17048C194.95 7.32002 195.208 7.53754 195.385 7.82303C195.562 8.09493 195.65 8.428 195.65 8.82225C195.65 9.2165 195.562 9.55637 195.385 9.84186C195.208 10.1138 194.95 10.3245 194.61 10.474C194.284 10.61 193.89 10.6779 193.427 10.6779H190.634V13.3493H193.672C194.896 13.3493 195.915 13.1522 196.731 12.758C197.547 12.3637 198.165 11.8199 198.587 11.1266C199.008 10.4196 199.219 9.61075 199.219 8.69989C199.219 7.77545 199.008 6.96655 198.587 6.27322C198.165 5.56629 197.547 5.0157 196.731 4.62145C195.915 4.2272 194.896 4.03007 193.672 4.03007H190.634V6.94616Z" fill="white"/>
<path d="M203.245 13.2881L200.839 15.0215C201.165 15.7012 201.621 16.3266 202.205 16.8976C202.79 17.4686 203.476 17.924 204.265 18.2639C205.067 18.5901 205.93 18.7533 206.855 18.7533C207.521 18.7533 208.167 18.6513 208.792 18.4474C209.431 18.2571 209.995 17.9716 210.485 17.5909C210.988 17.2103 211.382 16.7412 211.667 16.1838C211.966 15.6129 212.116 14.9671 212.116 14.2466C212.116 13.6484 212.021 13.1182 211.831 12.656C211.64 12.1938 211.375 11.7859 211.035 11.4325C210.709 11.079 210.328 10.7799 209.893 10.5352C209.458 10.2769 208.989 10.0526 208.486 9.86225C207.82 9.63114 207.249 9.41362 206.773 9.2097C206.311 9.00578 205.951 8.78146 205.692 8.53676C205.448 8.29205 205.325 8.00656 205.325 7.68028C205.325 7.3676 205.455 7.1093 205.713 6.90538C205.971 6.68786 206.345 6.5791 206.834 6.5791C207.201 6.5791 207.541 6.65387 207.854 6.80342C208.18 6.93936 208.473 7.13649 208.731 7.39479C209.003 7.6395 209.241 7.93179 209.445 8.27166L212.075 6.80342C211.831 6.314 211.477 5.83139 211.015 5.35557C210.553 4.87975 209.968 4.4855 209.261 4.17282C208.568 3.86014 207.745 3.7038 206.794 3.7038C205.869 3.7038 205.026 3.86693 204.265 4.19321C203.517 4.50589 202.919 4.96811 202.47 5.57988C202.035 6.19165 201.818 6.91897 201.818 7.76185C201.818 8.46878 201.947 9.07375 202.205 9.57676C202.464 10.0662 202.79 10.4876 203.184 10.8411C203.578 11.181 203.993 11.4596 204.428 11.6772C204.877 11.8947 205.271 12.0646 205.611 12.187C206.304 12.4453 206.862 12.6764 207.283 12.8803C207.704 13.0842 208.01 13.3017 208.201 13.5329C208.391 13.7504 208.486 14.0427 208.486 14.4097C208.486 14.8448 208.323 15.1914 207.997 15.4497C207.671 15.6944 207.256 15.8168 206.753 15.8168C206.277 15.8168 205.822 15.7148 205.387 15.5109C204.965 15.307 204.571 15.0147 204.204 14.634C203.85 14.2534 203.531 13.8048 203.245 13.2881Z" fill="white"/>
<rect x="54.5684" y="23.5312" width="158.432" height="13.0719" fill="#9C6AFD"/>
<path d="M64.5809 30.1993C64.5809 29.8333 64.662 29.517 64.8241 29.2503C64.9914 28.9836 65.2084 28.7797 65.475 28.6385C65.7417 28.4921 66.0319 28.4189 66.3456 28.4189C66.6071 28.4189 66.8398 28.4529 67.0437 28.5209C67.2476 28.5888 67.4306 28.6803 67.5927 28.7954C67.76 28.9104 67.9038 29.0359 68.0241 29.1719V27.9091C67.7992 27.7313 67.5535 27.5928 67.2868 27.4934C67.0254 27.3941 66.6934 27.3444 66.2907 27.3444C65.8724 27.3444 65.4829 27.4124 65.1221 27.5483C64.7665 27.6843 64.4554 27.8803 64.1888 28.1366C63.9273 28.3928 63.7234 28.696 63.577 29.0464C63.4358 29.3915 63.3652 29.7758 63.3652 30.1993C63.3652 30.6228 63.4358 31.0098 63.577 31.3601C63.7234 31.7052 63.9273 32.0059 64.1888 32.2621C64.4554 32.5183 64.7665 32.7144 65.1221 32.8503C65.4829 32.9862 65.8724 33.0542 66.2907 33.0542C66.6934 33.0542 67.0254 33.0045 67.2868 32.9052C67.5535 32.8059 67.7992 32.6673 68.0241 32.4895V31.2268C67.9038 31.3627 67.76 31.4882 67.5927 31.6032C67.4306 31.7183 67.2476 31.8098 67.0437 31.8777C66.8398 31.9457 66.6071 31.9797 66.3456 31.9797C66.0319 31.9797 65.7417 31.9091 65.475 31.7679C65.2084 31.6215 64.9914 31.415 64.8241 31.1483C64.662 30.8764 64.5809 30.5601 64.5809 30.1993Z" fill="white"/>
<path d="M73.1715 30.3875L74.8185 32.9444H76.144L74.3558 30.3875H73.1715ZM71.9244 27.4542V32.9444H73.046V27.4542H71.9244ZM72.6068 28.4111H73.697C73.8957 28.4111 74.0656 28.4451 74.2068 28.513C74.3532 28.5758 74.4656 28.6699 74.544 28.7954C74.6225 28.9156 74.6617 29.062 74.6617 29.2346C74.6617 29.4071 74.6225 29.5562 74.544 29.6817C74.4656 29.8019 74.3532 29.896 74.2068 29.964C74.0656 30.0268 73.8957 30.0581 73.697 30.0581H72.6068V30.9523H73.7675C74.2015 30.9523 74.5702 30.879 74.8734 30.7326C75.1767 30.5862 75.4094 30.3823 75.5715 30.1209C75.7336 29.8542 75.8146 29.5483 75.8146 29.2032C75.8146 28.8529 75.7336 28.547 75.5715 28.2856C75.4094 28.0241 75.1767 27.8202 74.8734 27.6738C74.5702 27.5274 74.2015 27.4542 73.7675 27.4542H72.6068V28.4111Z" fill="white"/>
<path d="M82.6234 27.4542L81.4391 29.666L80.2626 27.4542H78.9842L80.8744 30.6777V32.9444H82.0116V30.6699L83.9018 27.4542H82.6234Z" fill="white"/>
<path d="M87.2894 27.4542V32.9444H88.4109V27.4542H87.2894ZM87.9717 28.4032H89.0619C89.36 28.4032 89.5952 28.4712 89.7678 28.6071C89.9403 28.7379 90.0266 28.9366 90.0266 29.2032C90.0266 29.4647 89.9403 29.6634 89.7678 29.7993C89.5952 29.9353 89.36 30.0032 89.0619 30.0032H87.9717V30.9523H89.0619C89.4959 30.9523 89.8645 30.8817 90.1678 30.7405C90.4763 30.5993 90.7116 30.398 90.8737 30.1366C91.0358 29.8699 91.1168 29.5588 91.1168 29.2032C91.1168 28.8424 91.0358 28.5313 90.8737 28.2699C90.7116 28.0084 90.4763 27.8071 90.1678 27.666C89.8645 27.5248 89.4959 27.4542 89.0619 27.4542H87.9717V28.4032Z" fill="white"/>
<path d="M93.9824 28.466H95.4569V32.9444H96.5785V28.466H98.0608V27.4542H93.9824V28.466Z" fill="white"/>
<path d="M101.962 30.1993C101.962 29.849 102.036 29.5379 102.182 29.266C102.328 28.9941 102.53 28.7797 102.786 28.6228C103.042 28.466 103.34 28.3875 103.68 28.3875C104.025 28.3875 104.326 28.466 104.582 28.6228C104.838 28.7797 105.037 28.9941 105.178 29.266C105.319 29.5379 105.39 29.849 105.39 30.1993C105.39 30.5496 105.317 30.8607 105.17 31.1326C105.029 31.4045 104.83 31.6189 104.574 31.7758C104.318 31.9326 104.02 32.0111 103.68 32.0111C103.34 32.0111 103.042 31.9326 102.786 31.7758C102.53 31.6189 102.328 31.4045 102.182 31.1326C102.036 30.8607 101.962 30.5496 101.962 30.1993ZM100.778 30.1993C100.778 30.6124 100.849 30.9967 100.99 31.3523C101.131 31.7026 101.332 32.0085 101.594 32.2699C101.855 32.5313 102.161 32.7353 102.511 32.8817C102.867 33.0228 103.257 33.0934 103.68 33.0934C104.104 33.0934 104.491 33.0228 104.841 32.8817C105.196 32.7353 105.502 32.5313 105.758 32.2699C106.02 32.0085 106.221 31.7026 106.362 31.3523C106.509 30.9967 106.582 30.6124 106.582 30.1993C106.582 29.781 106.509 29.3993 106.362 29.0542C106.221 28.7039 106.017 28.4006 105.751 28.1444C105.489 27.8882 105.183 27.6921 104.833 27.5562C104.483 27.415 104.098 27.3444 103.68 27.3444C103.267 27.3444 102.883 27.415 102.527 27.5562C102.177 27.6921 101.871 27.8882 101.609 28.1444C101.348 28.4006 101.144 28.7039 100.998 29.0542C100.851 29.3993 100.778 29.781 100.778 30.1993Z" fill="white"/>
<path d="M116.091 28.4346H118.546V27.4542H116.091V28.4346ZM116.091 30.5993H118.467V29.666H116.091V30.5993ZM115.369 27.4542V32.9444H116.451V27.4542H115.369Z" fill="white"/>
<path d="M123.229 30.1993C123.229 29.849 123.302 29.5379 123.449 29.266C123.595 28.9941 123.796 28.7797 124.053 28.6228C124.309 28.466 124.607 28.3875 124.947 28.3875C125.292 28.3875 125.592 28.466 125.849 28.6228C126.105 28.7797 126.304 28.9941 126.445 29.266C126.586 29.5379 126.656 29.849 126.656 30.1993C126.656 30.5496 126.583 30.8607 126.437 31.1326C126.296 31.4045 126.097 31.6189 125.841 31.7758C125.585 31.9326 125.287 32.0111 124.947 32.0111C124.607 32.0111 124.309 31.9326 124.053 31.7758C123.796 31.6189 123.595 31.4045 123.449 31.1326C123.302 30.8607 123.229 30.5496 123.229 30.1993ZM122.045 30.1993C122.045 30.6124 122.115 30.9967 122.256 31.3523C122.398 31.7026 122.599 32.0085 122.86 32.2699C123.122 32.5313 123.428 32.7353 123.778 32.8817C124.134 33.0228 124.523 33.0934 124.947 33.0934C125.37 33.0934 125.757 33.0228 126.107 32.8817C126.463 32.7353 126.769 32.5313 127.025 32.2699C127.287 32.0085 127.488 31.7026 127.629 31.3523C127.775 30.9967 127.849 30.6124 127.849 30.1993C127.849 29.781 127.775 29.3993 127.629 29.0542C127.488 28.7039 127.284 28.4006 127.017 28.1444C126.756 27.8882 126.45 27.6921 126.1 27.5562C125.749 27.415 125.365 27.3444 124.947 27.3444C124.534 27.3444 124.149 27.415 123.794 27.5562C123.443 27.6921 123.138 27.8882 122.876 28.1444C122.615 28.4006 122.411 28.7039 122.264 29.0542C122.118 29.3993 122.045 29.781 122.045 30.1993Z" fill="white"/>
<path d="M132.747 30.3875L134.394 32.9444H135.72L133.931 30.3875H132.747ZM131.5 27.4542V32.9444H132.622V27.4542H131.5ZM132.182 28.4111H133.273C133.471 28.4111 133.641 28.4451 133.782 28.513C133.929 28.5758 134.041 28.6699 134.12 28.7954C134.198 28.9156 134.237 29.062 134.237 29.2346C134.237 29.4071 134.198 29.5562 134.12 29.6817C134.041 29.8019 133.929 29.896 133.782 29.964C133.641 30.0268 133.471 30.0581 133.273 30.0581H132.182V30.9523H133.343C133.777 30.9523 134.146 30.879 134.449 30.7326C134.752 30.5862 134.985 30.3823 135.147 30.1209C135.309 29.8542 135.39 29.5483 135.39 29.2032C135.39 28.8529 135.309 28.547 135.147 28.2856C134.985 28.0241 134.752 27.8202 134.449 27.6738C134.146 27.5274 133.777 27.4542 133.343 27.4542H132.182V28.4111Z" fill="white"/>
<path d="M145.005 32.9444H147.774V31.9954H145.005V32.9444ZM145.005 28.4032H147.774V27.4542H145.005V28.4032ZM145.005 30.4973H147.617V29.564H145.005V30.4973ZM144.284 27.4542V32.9444H145.366V27.4542H144.284Z" fill="white"/>
<path d="M153.86 31.0307L152.37 27.4542H151.075L153.86 33.266L156.644 27.4542H155.342L153.86 31.0307Z" fill="white"/>
<path d="M160.746 32.9444H163.514V31.9954H160.746V32.9444ZM160.746 28.4032H163.514V27.4542H160.746V28.4032ZM160.746 30.4973H163.357V29.564H160.746V30.4973ZM160.024 27.4542V32.9444H161.106V27.4542H160.024Z" fill="white"/>
<path d="M168.651 30.3875L170.298 32.9444H171.624L169.835 30.3875H168.651ZM167.404 27.4542V32.9444H168.526V27.4542H167.404ZM168.086 28.4111H169.177C169.375 28.4111 169.545 28.4451 169.686 28.513C169.833 28.5758 169.945 28.6699 170.024 28.7954C170.102 28.9156 170.141 29.062 170.141 29.2346C170.141 29.4071 170.102 29.5562 170.024 29.6817C169.945 29.8019 169.833 29.896 169.686 29.964C169.545 30.0268 169.375 30.0581 169.177 30.0581H168.086V30.9523H169.247C169.681 30.9523 170.05 30.879 170.353 30.7326C170.656 30.5862 170.889 30.3823 171.051 30.1209C171.213 29.8542 171.294 29.5483 171.294 29.2032C171.294 28.8529 171.213 28.547 171.051 28.2856C170.889 28.0241 170.656 27.8202 170.353 27.6738C170.05 27.5274 169.681 27.4542 169.247 27.4542H168.086V28.4111Z" fill="white"/>
<path d="M178.103 27.4542L176.919 29.666L175.742 27.4542H174.464L176.354 30.6777V32.9444H177.491V30.6699L179.381 27.4542H178.103Z" fill="white"/>
<path d="M183.249 30.1993C183.249 29.849 183.322 29.5379 183.469 29.266C183.615 28.9941 183.816 28.7797 184.072 28.6228C184.329 28.466 184.627 28.3875 184.967 28.3875C185.312 28.3875 185.612 28.466 185.869 28.6228C186.125 28.7797 186.323 28.9941 186.465 29.266C186.606 29.5379 186.676 29.849 186.676 30.1993C186.676 30.5496 186.603 30.8607 186.457 31.1326C186.316 31.4045 186.117 31.6189 185.861 31.7758C185.604 31.9326 185.306 32.0111 184.967 32.0111C184.627 32.0111 184.329 31.9326 184.072 31.7758C183.816 31.6189 183.615 31.4045 183.469 31.1326C183.322 30.8607 183.249 30.5496 183.249 30.1993ZM182.065 30.1993C182.065 30.6124 182.135 30.9967 182.276 31.3523C182.418 31.7026 182.619 32.0085 182.88 32.2699C183.142 32.5313 183.448 32.7353 183.798 32.8817C184.153 33.0228 184.543 33.0934 184.967 33.0934C185.39 33.0934 185.777 33.0228 186.127 32.8817C186.483 32.7353 186.789 32.5313 187.045 32.2699C187.306 32.0085 187.508 31.7026 187.649 31.3523C187.795 30.9967 187.869 30.6124 187.869 30.1993C187.869 29.781 187.795 29.3993 187.649 29.0542C187.508 28.7039 187.304 28.4006 187.037 28.1444C186.776 27.8882 186.47 27.6921 186.119 27.5562C185.769 27.415 185.385 27.3444 184.967 27.3444C184.553 27.3444 184.169 27.415 183.814 27.5562C183.463 27.6921 183.157 27.8882 182.896 28.1444C182.635 28.4006 182.431 28.7039 182.284 29.0542C182.138 29.3993 182.065 29.781 182.065 30.1993Z" fill="white"/>
<path d="M195.426 27.4542V30.8581L191.52 27.1797V32.9444H192.602V29.5405L196.508 33.2189V27.4542H195.426Z" fill="white"/>
<path d="M201.207 32.9444H203.976V31.9954H201.207V32.9444ZM201.207 28.4032H203.976V27.4542H201.207V28.4032ZM201.207 30.4973H203.819V29.564H201.207V30.4973ZM200.485 27.4542V32.9444H201.568V27.4542H200.485Z" fill="white"/>
<path d="M30.9961 0H44.5073V10.3321H39.3894C38.243 4.53759 33.3162 1.02966 30.9961 0Z" fill="#04E2AF"/>
<path d="M9.82382 21.2556V0.410736V0H0V21.769C0 35.734 12.0069 39.5676 18.0103 39.7387H23.8432V29.8811H19.2383C12.116 29.8811 9.99437 24.1307 9.82382 21.2556Z" fill="#9C6AFD"/>
<path d="M27.5297 18.4866L27.5297 39.3315L27.5297 39.7422L37.3535 39.7422L37.3535 17.9732C37.3535 4.00814 25.3466 0.174604 19.3432 0.00346532L13.5103 0.00346583L13.5103 9.86113L18.1152 9.86113C25.2375 9.86113 27.3591 15.6114 27.5297 18.4866Z" fill="white"/>
</svg>
