<svg width="150" height="150" viewBox="0 0 150 150" fill="none" xmlns="http://www.w3.org/2000/svg">
<path d="M96.2556 83.0068C92.7597 83.0068 89.2637 83.0068 85.8114 83.0068C83.8886 83.0068 82.1844 82.5261 80.6112 81.4336C77.5085 79.2923 74.3621 77.2821 71.2594 75.1408C70.4729 74.6164 70.0359 74.4416 69.3804 75.403C65.3163 81.2151 61.1648 86.9397 57.1008 92.7081C54.9158 95.767 56.2268 99.0445 59.9412 99.6563C64.7045 100.443 69.5552 100.967 74.3184 101.798C81.6163 103.021 86.3358 110.232 84.1945 117.267C81.3104 126.706 78.1203 136.058 74.8865 145.41C73.6192 149.168 69.5989 150.872 65.9718 149.561C62.4321 148.294 60.5967 144.536 61.7766 140.778C64.3986 132.737 67.0643 124.696 69.8174 116.655C70.2544 115.388 69.9485 115.126 68.7686 114.995C64.8356 114.471 60.9026 113.99 56.9697 113.291C44.0346 110.975 37.7855 96.204 45.2145 85.3228C49.8903 78.5057 54.741 71.7759 59.6353 65.1336C63.6994 59.5837 70.7788 58.3164 76.6345 62.0309C79.8683 64.0848 82.971 66.2261 86.1173 68.3674C86.8602 68.8918 87.6031 69.1103 88.5208 69.1103C94.901 69.0666 101.281 69.0666 107.661 69.1103C111.026 69.154 113.823 71.6448 114.304 74.966C114.828 78.4183 112.905 81.5647 109.671 82.6572C108.71 82.9631 107.749 83.0505 106.787 83.0505C103.204 83.0068 99.7079 83.0068 96.2556 83.0068Z" fill="#04E2AF"/>
<path d="M59.2849 48.1789C59.2849 37.4288 59.1101 26.8971 59.3286 16.4092C59.5034 7.66929 67.0198 0.240348 75.8034 0.109249C88.4763 -0.0655495 101.193 0.0218498 113.866 0.0218498C120.027 0.0218498 126.189 -0.0218498 132.351 0.0218498C141.222 0.109249 148.126 5.92131 149.656 14.5738C149.874 15.7974 149.874 17.0647 149.874 18.332C149.874 54.9523 149.874 91.5726 149.874 128.193C149.874 137.326 144.587 144.187 136.065 146.11C134.623 146.416 133.137 146.547 131.695 146.547C118.061 146.547 104.47 146.547 90.8361 146.591C89.4814 146.591 89.1318 146.328 89.6999 145.017C90.268 143.706 90.705 142.352 91.0546 140.997C91.3605 139.861 91.8849 139.511 93.1085 139.511C106.087 139.555 119.022 139.555 132.001 139.555C137.114 139.555 141.003 136.845 142.489 132.301C142.882 131.165 143.013 129.985 143.013 128.761C143.013 91.8348 143.013 54.8649 143.013 17.9387C143.013 11.5149 138.512 7.0575 132.132 7.0575C113.822 7.0575 95.512 7.0575 77.2018 7.0575C70.8217 7.0575 66.3206 11.5149 66.2769 17.9387C66.2332 26.8097 66.2332 35.7245 66.2769 44.5955C66.2769 45.9065 66.0584 46.5183 64.6163 46.6931C62.7809 46.7368 61.0766 47.3923 59.2849 48.1789Z" fill="#04E2AF"/>
<path d="M36.8667 111.98C39.8382 115.957 43.1157 118.885 47.2235 120.895C47.7479 121.157 47.879 121.376 47.6168 121.988C45.9562 126.052 43.6838 127.625 39.2701 127.625C28.5637 127.625 17.8136 127.625 7.10719 127.625C4.17932 127.625 1.99433 126.27 0.727044 123.648C-0.452847 121.114 -0.190649 118.667 1.46994 116.438C2.99943 114.428 5.14071 113.685 7.63159 113.685C16.5463 113.685 25.4611 113.685 34.4195 113.685C35.512 113.685 36.5608 113.728 36.8667 111.98Z" fill="#04E2AF"/>
<path d="M40.5383 27.8581C37.6104 24.974 35.0322 22.4394 32.4102 19.9048C31.3614 18.8997 31.0992 17.6324 31.5362 16.2777C31.9295 15.0104 32.8909 14.2238 34.2456 13.9616C35.4691 13.7431 36.5179 14.1364 37.3482 15.0104C41.9367 19.5989 46.5252 24.1437 51.1136 28.7758C52.7305 30.3927 52.6868 32.3155 51.0262 33.9761C46.5252 38.5208 42.0241 43.0219 37.523 47.4793C35.8624 49.1399 33.7649 49.1836 32.3228 47.6978C30.9681 46.2557 31.0118 44.2018 32.585 42.5849C35.0758 40.0503 37.5667 37.6032 40.1013 35.0686C39.5332 34.5879 38.9651 34.8064 38.4407 34.8064C28.0839 34.8064 17.7271 34.8064 7.37027 34.8064C4.44239 34.8064 2.7381 32.6214 3.61209 30.1305C4.13649 28.601 5.44748 27.8581 7.54506 27.8581C17.7708 27.8581 28.0402 27.8581 38.2659 27.8581C38.8777 27.8581 39.4021 27.8581 40.5383 27.8581Z" fill="#04E2AF"/>
<path d="M85.1975 31.3968C91.4029 31.4405 96.2972 36.4659 96.2098 42.715C96.1224 48.7892 91.0533 53.7273 84.9353 53.6836C78.7737 53.6399 73.8356 48.5707 73.923 42.3217C74.0104 36.2037 78.9922 31.3531 85.1975 31.3968Z" fill="#04E2AF"/>
<path d="M51.8112 57.9667C46.6984 65.1334 41.8477 72.2128 36.6475 79.0736C34.8995 81.3897 32.2775 83.0066 29.0874 82.9629C26.1595 82.9192 23.5813 80.9964 22.6636 78.2433C21.7459 75.4903 22.4888 72.3002 24.8922 70.6396C30.748 66.5755 36.7349 62.6863 42.678 58.7533C43.4209 58.2726 44.2512 57.9667 45.1252 57.9667C47.3102 57.923 49.4515 57.9667 51.8112 57.9667Z" fill="#04E2AF"/>
</svg>
